<?xml version="1.0" encoding="utf-8" ?>
<svg baseProfile="full" height="300mm" version="1.1" viewBox="0,0,200,300" width="200mm" xmlns="http://www.w3.org/2000/svg" xmlns:ev="http://www.w3.org/2001/xml-events" xmlns:xlink="http://www.w3.org/1999/xlink"><defs /><rect fill="#222222" height="300" width="200" x="0" y="0" /><text fill="#FFFFFF" style="font-size:12px; font-family:Arial; font-weight:bold;" x="10" y="20">Over 2km Runs</text><text fill="#FFFFFF" style="font-size:4px; font-family:Arial" x="10" y="280">ATHLETE</text><text fill="#FFFFFF" style="font-size:9px; font-family:Arial" x="10" y="290">Kris</text><text fill="#FFFFFF" style="font-size:4px; font-family:Arial" x="120" y="280">STATISTICS</text><text fill="#FFFFFF" style="font-size:3px; font-family:Arial" x="120" y="285">Number: 31</text><text fill="#FFFFFF" style="font-size:3px; font-family:Arial" x="120" y="290">Weekly: 1.8</text><text fill="#FFFFFF" style="font-size:3px; font-family:Arial" x="141" y="285">Total: 89.6 km</text><text fill="#FFFFFF" style="font-size:3px; font-family:Arial" x="141" y="290">Avg: 2.9 km</text><text fill="#FFFFFF" style="font-size:3px; font-family:Arial" x="167" y="285">Min: 2.1 km</text><text fill="#FFFFFF" style="font-size:3px; font-family:Arial" x="167" y="290">Max: 5.1 km</text><polyline fill="none" points="32.493254655681085,39.501673744453 31.56794183619786,40.00251305605343 31.373924632032868,40.97187627421226 31.582866236451082,39.340112436548225 31.896278643107507,39.25933173879457 31.955976244353224,39.582454354604124 30.91126822232036,42.89443420711905 30.030728603771422,43.78300580989162 29.135264584911056,46.351765649204026 29.627769795246422,46.96567872041487 29.000944982049987,47.87038964408566 29.284508588025346,50.18061698174279 29.150188985164277,54.25172867675428 29.284508588025346,54.72022486492642 29.65761859586928,54.914085069147404 29.53822339331964,55.689524203568 29.150188985164277,55.948003316880204 29.12034018454142,56.57804490248964 29.135264584911056,59.00126520966296 29.35913058958249,59.76053549758217 29.105415784288198,60.390566330592264 29.269584187713917,61.133677337129484 29.060642583295703,61.47292284439027 29.22481098677963,62.5229651973641 29.493450192385353,62.57142857143481 29.493450192385353,55.67336924908159 21.792459630058147,55.495664672373096 22.493906444928143,47.14339008394745 22.359586842067074,46.561788731924025 22.583452846796717,39.792483804092626 22.95656285464065,39.6470788216393 26.075762520369608,40.56797544473375 26.956302138976753,40.61644358285412 28.12040536350105,37.062085550191114 28.732305776386056,33.4915143733233 29.269584187713917,32.48980541451601 29.269584187713917,32.02126258444332 28.53828857233748,31.714285714289872" stroke="#4dd2ff" stroke-linecap="round" stroke-linejoin="round" stroke-width="0.5"><title>2022-06-12 5.1km</title></polyline><polyline fill="none" points="62.31072818208486,45.128173744422384 62.190661478322,47.85778352920897 50.42412451421842,45.90806267771404 51.50472484668717,51.49725678889081 64.23179544182494,37.4592478601262 61.590327959973365,40.4488330319291 74.31739855464548,36.93931949615944 68.7943301834166,37.71921198582277 60.509727626573294,48.637671277159825 62.55086158961058,52.407123951241374 53.185658698901534,50.32742690271698 63.871595330536366,36.93931949615944 60.62979433033615,38.88905008521397 60.86992773786187,40.058887422201224 63.751528626773506,39.14901400345843 61.590327959973365,40.83877855702303 65.19232907146215,41.61866935330909 72.75653140619397,39.27899594884366 74.07726514711976,41.488687577540986 65.55252918275073,43.56839486141689 61.23012784868479,53.05702878499869 59.66926069976762,50.58738916530274 58.82879377435893,53.1870097235078 55.827126181684434,52.537104936898686 66.99332962743938,45.128173744422384 66.6331295161508,43.17844992899336 70.95553085021675,44.218302894267254 57.26792662590742,46.817932671750896 61.83046136703342,38.499104136717506 56.907726514618844,46.16802558011841 64.9521956644021,44.47826604091097 67.59366314578801,44.73822915065102 65.91272929357365,46.94791406195145 60.509727626573294,48.117746149539016 59.90939410822466,45.128173744422384 58.94886047812179,46.68795127235353 48.1428571427241,44.218302894267254 56.30739299580455,56.69649150792975 55.34685936616734,57.346394789638 67.23346303449944,43.958339709206484 65.79266259027645,41.87863287643995 63.03112840466201,42.008614624268375 67.83379655331373,39.538959810859524 75.99833240685984,49.15759625437204 64.471928848885,47.467839528108016 77.79933296283707,51.10731357813347 73.71706503583118,41.098742193426006 72.3963312949054,47.85778352920897 65.91272929357365,50.717370282742195 66.75319622037932,52.14716195198707 73.47693162830546,44.47826604091097 71.31573096150532,43.56839486141689 73.11673151701689,44.47826604091097 72.87659810995683,41.87863287643995 75.51806559180841,39.408977884449996 77.55919955484569,39.408977884449996 79.0,41.87863287643995" stroke="#4dd2ff" stroke-linecap="round" stroke-linejoin="round" stroke-width="0.5"><title>2022-05-22 3.4km</title></polyline><polyline fill="none" points="101.5960591128096,46.64919660042506 99.771991555579,44.83905879268423 102.9641097811982,42.04157025553286 109.95636875461787,42.37068673258182 107.52427867706865,43.028919543954544 109.50035186484456,49.28212174796499 106.46023926790804,53.23150375240948 102.35608726274222,53.560618609772064 102.9641097811982,50.76314080366865 100.22800844535232,52.73783137684222 100.076002814807,47.471986036747694 94.60380014032125,54.054290806292556 90.34764250461012,51.75048630463425 88.97959183622152,54.877077562734485 85.635467980057,51.5859287509229 91.56368754338473,43.85171029041521 95.81984517909586,45.33273288339842 106.00422237813473,43.028919543954544 109.34834623523057,39.408636723062955 115.42857142817229,44.01626840385143 114.66854327917099,42.53524495358579 111.17241379339248,46.155522795859724 104.94018296990544,47.307428173022345 106.30823363829404,48.45933296682779 95.66783954948187,48.95300627115648 86.09148486889899,53.39606118691154 84.57142857182771,51.092256018309854 90.80365939438343,47.965659555164166 92.01970443315804,44.83905879268423 97.18789584748447,49.11756401567254 96.73187895864248,51.75048630463425 108.43631245661527,50.269467892474495 113.90851513016969,45.33273288339842 104.63617170974612,44.67450073850341 99.3159746658057,49.11756401567254 92.17171006277204,47.471986036747694 90.80365939438343,50.76314080366865 86.2434904994443,52.2441588944057 89.43560872599483,51.91504384658765 87.91555242799222,48.29477517504711 96.27586206886917,53.88973341928795 106.30823363829404,49.775794873829 105.70021111890674,47.965659555164166 110.86840253323317,50.269467892474495 114.364532019943,46.81375451129861 108.43631245661527,45.49729088973254 109.95636875461787,51.092256018309854 105.85221674852073,46.32008074235637 104.94018296990544,47.965659555164166 109.95636875461787,50.927698416868225 111.32441942300647,47.965659555164166 108.74032371584326,45.99096483748872 107.67628430668265,48.29477517504711 109.50035186484456,46.155522795859724 100.38001407403499,48.95300627115648 108.89232934638858,45.661848883959465 105.70021111890674,50.59858317824546" stroke="#4dd2ff" stroke-linecap="round" stroke-linejoin="round" stroke-width="0.5"><title>2022-05-05 2.2km</title></polyline><polyline fill="none" points="140.3533834591508,42.893954823259264 133.4511278201826,43.33349782368168 129.12030075211078,47.28938053257298 123.70676691737026,48.16846452921163 121.54135338356718,51.53828297974542 123.70676691737026,53.296446900698356 136.69924812065437,47.728922578739 140.48872180469334,50.21965903660748 148.4736842107959,50.65920044656377 151.1804511277005,48.75452031486202 146.5789473685436,42.893954823259264 132.63909774459898,42.74744046875276 130.4736842107959,46.70332432293799 123.57142857182771,48.021950556430966 121.6766917295754,50.366172850481234 123.16541353426874,52.710392430075444 127.49624060187489,50.073145212372765 133.18045112816617,50.65920044656377 136.69924812065437,47.87543657270726 140.75939849670976,52.856906063854694 150.50375939859077,50.21965903660748 151.04511278262362,45.384697230299935 146.7142857145518,41.57532524946146 140.21804511314258,40.98926738509908 133.18045112816617,43.4800121356966 130.60902255633846,47.43589455867186 125.19548872252926,47.28938053257298 121.27067669201642,52.563878786051646 130.20300751924515,51.9778241032036 137.91729323379695,48.75452031486202 139.54135338356718,51.24525551102124 149.55639097746462,49.78011753153987 151.04511278262362,46.26378205418587 142.92481203051284,42.014868535799906 132.09774436149746,44.35909778671339 128.0375939849764,47.87543657270726 122.35338345868513,48.16846452921163 121.81203007604927,52.27085146564059 132.36842105258256,51.24525551102124 137.10526315821335,47.87543657270726 141.84210526384413,51.09874176082667 147.255639098119,49.34057593077887 151.58646616525948,45.82423968985677 148.74436090234667,46.410296154092066 143.60150375962257,42.74744046875276 138.45864661643282,45.53121139423456 133.4511278201826,42.74744046875276 130.3383458647877,47.43589455867186 123.43609022535384,48.021950556430966 121.0,51.24525551102124 123.16541353426874,53.00341968657449 126.54887218074873,50.51268665387761 133.0451127816923,50.51268665387761 135.61654135398567,46.849838391062804 141.4360902258195,50.073145212372765 148.60902255680412,49.194062042748556 151.8571428572759,46.55681024398655 150.50375939859077,49.34057593077887 143.73684210563079,43.33349782368168 141.0300751887262,44.50561202503741 133.99248120328411,42.45441172725987 129.25563909765333,46.9963524491759 124.11278195492923,47.43589455867186 121.6766917295754,52.27085146564059 129.93233082676306,52.41736513108481 136.69924812065437,49.04754814412445 145.76691729296,52.12433778983541 150.0977443610318,48.60800638445653 146.84962406009436,44.06606927909888" stroke="#4dd2ff" stroke-linecap="round" stroke-linejoin="round" stroke-width="0.5"><title>2022-04-21 3.2km</title></polyline><polyline fill="none" points="181.02521008392796,48.7300155229168 175.02133160969242,51.148491477710195 172.78733031684533,49.48578955954872 162.1758241755888,53.718119110912085 168.0400775698945,45.25345143151935 182.28183581121266,44.195365559426136 178.79120879154652,50.84618213644717 172.36845507426187,51.148491477710195 165.66645119618624,55.683126343996264 165.94570135744289,49.78809909790289 169.2967032971792,44.04421039088629 172.22882999340072,45.55576158175245 175.44020685181022,42.532658105599694 184.37621202366427,40.56763849873096 184.23658694233745,38.90492815640755 186.74983839690685,47.21846662904136 182.1422107303515,45.55576158175245 173.34583063982427,46.160381752299145 165.66645119618624,52.96234660560731 165.10795087227598,54.625045755761676 167.62120232731104,54.02042803610675 167.34195216558874,58.7062107847305 168.59857789287344,51.75311002868693 167.06270200340077,48.276550969691016 175.57983193267137,48.578860682900995 182.56108597293496,39.66070574906189 187.30833872035146,37.39337215118576 186.33096315478906,38.90492815640755 188.28571428591385,39.50955025246367 182.56108597293496,45.85807168914471 165.94570135744289,51.450800775084645 163.9909502263181,55.38081765931565 165.80607627658173,45.85807168914471 169.9948287010193,42.83496865001507 177.39495798340067,43.43958960764576 183.39883645717055,40.26532762590796 184.6554621849209,45.70691664132755 177.53458306379616,50.69502744951751 174.04395604413003,45.85807168914471 177.11570782167837,49.63694433437195 165.10795087227598,53.86927357898094 168.31932773115113,50.9973368125502 167.62120232731104,45.70691664132755 173.90433096280321,41.928036884753965 178.51195862935856,43.13727915089112 185.49321266962215,39.9630167093128 186.0517129926011,41.77688155241776 180.6063348413445,46.160381752299145 174.88170652929693,46.160381752299145 175.16095669055358,43.74190002121031 169.85520361969247,48.12539609672967 166.92307692347094,46.76500174764078 162.31544925644994,56.13658928894438 166.2249515191652,44.79998612322379 169.15707821585238,42.83496865001507 183.67808661982417,39.05608369701076 188.0064641246572,44.951141236699186 165.5268261153251,52.81119207199663 159.66257272148505,45.25345143151935 157.42857142863795,47.974241212708876 158.54557207552716,52.96234660560731 160.7795733679086,53.56696463143453 162.59469941817224,41.32341548928525 168.87782805459574,39.66070574906189 171.80995475128293,41.928036884753965 183.817711699754,35.57950350106694 184.23658694233745,38.90492815640755 180.46670976141468,40.56763849873096 174.46283128671348,49.939253850257955 182.97996121505275,42.23034751706291 186.47058823518455,42.98612390574999 183.67808661982417,44.34652071655728 184.9347123466432,45.55576158175245" stroke="#4dd2ff" stroke-linecap="round" stroke-linejoin="round" stroke-width="0.5"><title>2022-04-18 3.7km</title></polyline><polyline fill="none" points="21.859099803958088,84.28861026198138 19.745596868451685,83.48780269350391 19.217221134342253,84.97501642617863 32.63796477485448,78.22534286498558 35.808219177182764,79.82696292852052 39.295499021187425,77.31013067136519 42.043052836786956,78.22534286498558 33.69471624214202,82.11498877534177 32.32093933457509,81.7717851094203 37.81604696623981,77.31013067136519 22.91585127171129,84.51741234981455 16.998043052852154,81.5429826239124 27.776908023282886,80.85657496936619 27.45988258300349,82.34379117761273 33.06066536111757,78.33974435192067 35.70254403073341,81.6573838707991 37.3933463790454,79.7125615492696 42.57142857089639,84.97501642617863 20.802348336204886,84.86061541968957 21.542074363678694,86.11902603751514 20.485322895925492,86.23342695320025 19.851272015832365,83.83100598677993 18.794520548079163,84.74621440446936 20.485322895925492,87.03423313051462 26.82583170197904,78.5685473009944 34.011741682421416,80.85657496936619 39.08414872735739,79.7125615492696 39.40117416763678,81.08537755405996 31.052837572991848,83.37340157921426 30.841487279627472,81.7717851094203 28.72798434412107,81.5429826239124 20.59099804284051,83.37340157921426 20.802348336204886,81.19977883377578 11.714285714086145,85.43262037006207 30.101761251688004,76.85252437600866 33.37769080186263,78.5685473009944 36.442270058207214,77.65333530597854 38.76712328707799,79.7125615492696 37.71037181932479,77.76773683459032 39.189823874272406,80.0557656622259 24.500978473573923,80.74217366462108 25.452054793946445,82.91579703916796 21.2250489233993,85.66142229258548 20.908023483119905,83.83100598677993 19.005870840977877,83.94540706800763 20.06262230873108,82.00058756163344 31.581213306635618,76.3949179481715 32.00391389383003,79.14055452856701 32.21526418719441,77.76773683459032 33.37769080186263,79.94136429927312 34.85714285634458,79.02615309949033 36.336594911292195,82.00058756163344 34.011741682421416,80.0557656622259 29.25636007776484,81.7717851094203 29.996086105238646,76.96692596212961 28.09393346356228,76.16611468431074 19.42857142817229,83.83100598677993 20.908023483119905,81.8861863395432 19.745596868451685,78.5685473009944 28.51663405029103,75.82290972664487 27.142857142258435,79.14055452856701 33.06066536111757,81.8861863395432 39.61252446100116,76.16611468431074" stroke="#4dd2ff" stroke-linecap="round" stroke-linejoin="round" stroke-width="0.5"><title>2022-04-06 3.4km</title></polyline><polyline fill="none" points="60.76880468102172,72.32640333415475 57.668029312975705,72.58462340186816 63.75031945807859,75.94148087932263 60.530283499043435,80.33120804862119 48.72348498320207,85.108251811238 52.06278153322637,88.46508572052699 51.70499976025894,92.33834776643198 50.27387266699225,85.88290635100566 51.70499976025894,83.30072324327193 61.12658645445481,79.81477011879906 66.13553127925843,71.68085300154053 61.365107636433095,77.49079758417793 62.4384529562667,88.98152114602271 56.95246576704085,90.2726090552751 54.328732763882726,94.01675870793406 58.74137463280931,76.32881018170156 65.30070714186877,66.00000000011642 66.61257364368066,80.84764582884964 64.82366477744654,81.75141158455517 66.25479187024757,81.75141158455517 67.68591896351427,88.33597684057895 73.52968792570755,88.07775905355811 75.08007560949773,90.91815265920013 68.40148250991479,87.1739965028828 63.75031945807859,87.30310546676628 55.04429630981758,94.01675870793406 59.81471995264292,94.27497563546058 63.75031945807859,90.53082652494777 63.98884064052254,87.56132336636074 70.66743373963982,89.75617400370538 76.39194211084396,87.43221442110371 74.12599088111892,86.01201540813781 78.41937215905637,86.27023349481169 72.93338497029617,88.33597684057895 60.41102290758863,88.72330345166847 54.8057751278393,93.6294332460966 55.640599264763296,79.81477011879906 55.521338674705476,86.14112445584033 57.31024754000828,86.78666955570225 66.01627068826929,84.85003355634399 75.31859679101035,86.65756055433303 77.70380861312151,85.108251811238 74.72229383606464,85.88290635100566 75.43785738246515,87.56132336636074 62.91549532068893,88.46508572052699 64.70440418692306,92.08013055834454 64.58514359546825,90.78904395736754 63.98884064052254,92.5965649371501 58.74137463280931,92.5965649371501 55.521338674705476,96.08249308308586 62.4384529562667,87.81954122846946 66.37405246170238,90.01439154800028 72.69486378785223,87.69043230218813 59.81471995264292,92.5965649371501 51.824260350782424,93.11299916624557 52.659084488637745,95.43695134797599 58.97989581525326,96.85714285715949 62.557713547255844,93.37121622485574 70.30965196667239,95.43695134797599 74.96081501850858,93.11299916624557 75.43785738246515,90.14350030641071 64.82366477744654,88.07775905355811 63.511798275634646,91.69280467601493 53.37464803503826,93.88765022996813 61.48436822742224,88.46508572052699 75.55711797391996,89.62706521712244 75.08007560949773,88.07775905355811" stroke="#4dd2ff" stroke-linecap="round" stroke-linejoin="round" stroke-width="0.5"><title>2022-03-20 3.8km</title></polyline><polyline fill="none" points="100.3282674769871,69.77233220636845 89.16717325244099,71.47813269507606 84.57142857136205,75.60047775914427 85.2279635258019,79.7228141707601 90.61155015183613,84.55588722112589 105.71185410302132,76.31122603360564 114.640729483217,76.02692675462458 115.42857142863795,79.58066478359979 108.99452887522057,81.85505374718923 108.20668692979962,84.55588722112589 111.3580547105521,87.39886581280734 114.640729483217,87.39886581280734 107.41884498437867,85.55093019630294 105.18662613956258,86.83027042355388 110.96413373807445,85.693079151446 112.14589665643871,82.28150138480123 103.34832826722413,83.98729100869969 105.97446808498353,86.54597266728524 112.27720364695415,86.54597266728524 113.32765957387164,84.2715891355183 111.8832826744765,82.13935218274128 105.31793313100934,84.41373818344437 103.34832826722413,86.54597266728524 103.87355623068288,91.23688038380351 107.15623100288212,90.52613751054741 110.96413373807445,84.98233427235391 110.4389057746157,82.42365057673305 103.61094224872068,84.69803624844644 106.23708206648007,86.54597266728524 112.53981762845069,86.11952595575713 113.4589665653184,83.5608437419869 103.87355623068288,83.7029928410193 102.42917933082208,86.11952595575713 105.97446808498353,91.37902892753482 109.65106382966042,88.82035356550477 110.70151975611225,83.5608437419869 108.07537993881851,83.98729100869969 111.3580547105521,85.26663225458469 105.44924012105912,84.2715891355183 103.21702127624303,85.97737703146413 103.08571428526193,91.80547449702863 105.44924012105912,93.08481065079104 108.86322188423946,90.66828610550147 104.66139817563817,85.55093019630294 112.14589665643871,86.40382377395872 113.72158054634929,83.7029928410193 108.86322188423946,82.28150138480123 104.53009118558839,84.12944007734768 108.99452887522057,86.40382377395872 111.09544072905555,84.55588722112589 104.79270516708493,83.98729100869969 105.58054711250588,86.54597266728524 111.4893617015332,86.26167486992199 112.53981762845069,83.98729100869969" stroke="#4dd2ff" stroke-linecap="round" stroke-linejoin="round" stroke-width="0.5"><title>2022-03-13 2.2km</title></polyline><polyline fill="none" points="136.13186813145876,81.50888616545126 125.45054945070297,84.72092640260234 130.49450549390167,84.23912066360936 130.04945054929703,86.0057411956368 136.4285714281723,79.26045523304492 141.62087912112474,80.70587537949905 145.77472527418286,77.97563653427642 151.70879120845348,80.38467098399997 124.70879120845348,89.05717334744986 125.8956043953076,85.68453756719828 132.12637362629175,83.43611086544115 130.04945054929703,86.0057411956368 132.12637362629175,81.34828403173015 144.1428571427241,81.02707972901408 146.66483516432345,77.17262446985114 149.18681318685412,77.01202202192508 148.8901098901406,79.09985293610953 136.57692307699472,81.34828403173015 126.19230769202113,88.09356364759151 122.78021978028119,88.09356364759151 130.93956043943763,86.16634299221914 132.86813186854124,76.85141956270672 137.02197802159935,80.22406876843888 146.81318681314588,77.17262446985114 151.8571428572759,80.22406876843888 138.80219780281186,82.15129458496813 123.37362637370825,89.21777492342517 137.31868131831288,80.70587537949905 136.4285714281723,76.85141956270672 139.3956043953076,75.24539432942402 141.02747252769768,78.13623891235329 148.8901098901406,79.09985293610953 139.98901098873466,86.16634299221914 129.15934065915644,82.15129458496813 121.0,87.77236032113433 121.8901098901406,84.72092640260234 145.32967032957822,78.93925062799826 148.0,73.6393679336179 148.74175824131817,77.33322690601926 140.43406593427062,78.61804597626906 144.73626373708248,83.59671284863725 148.74175824131817,77.65443174354732 147.85164835117757,74.76358653279021" stroke="#4dd2ff" stroke-linecap="round" stroke-linejoin="round" stroke-width="0.5"><title>2022-03-10 2.4km</title></polyline><polyline fill="none" points="172.9805714287795,82.76481170055922 172.11657142825425,80.09239054808859 169.40114285703748,80.09239054808859 162.61257142852992,83.0320536029758 158.90971428574994,86.50619481457397 160.14400000032037,88.91136567015201 168.9074285714887,91.98463498067576 174.21485714288428,89.71308859216515 180.63314285688102,90.24757034669165 188.2857142854482,79.6915270416066 187.91542857140303,73.94580721645616 185.1999999997206,70.87250787636731 173.4742857143283,80.49325396760833 161.9954285719432,83.43291638419032 158.90971428574994,86.77343617554288 161.87199999997392,90.78205194685142 169.89485714258626,87.0406774978619 176.56000000005588,88.64412461861502 184.58285714266822,86.63981550000608 186.92799999937415,79.95876938919537 184.335999999661,77.28634417476133 160.14400000032037,84.1010208260268 158.16914285719395,89.17860668268986 161.25485714245588,91.71739437442739 167.42628571437672,91.18291304528248 173.35085714282468,87.57516002631746 178.65828571422026,88.77774514933117 186.55771428532898,87.70878063398413 186.18742857128382,79.4242846557172 182.97828571405262,76.88548005896155 162.11885714298114,84.1010208260268 158.04571428569034,88.24326296884101 161.87199999997392,91.58377405640204 169.6480000000447,89.8467090454651 173.4742857143283,85.30360821203794 179.89257142832503,88.37688352866098 186.80457142880186,87.97602182091214 187.42171428585425,78.48893600003794 184.08914285711944,76.88548005896155 176.31314285704866,80.76049619889818 171.12914285669103,80.35963283735327 168.0434285714291,83.16567453974858 161.25485714245588,84.1010208260268 158.16914285719395,87.57516002631746 158.53942857170478,90.11394992272835 161.13142857141793,90.78205194685142 170.26514285756275,86.50619481457397 173.96799999987707,89.04498618131038 181.25028571439907,88.51050407846924 185.44685714272782,84.63550420524552 185.1999999997206,79.02342100406531 183.22514285705984,76.75185866758693 177.91771428566426,79.6915270416066 172.36342857172713,80.09239054808859 167.79657142842188,83.43291638419032 160.02057142881677,84.50188337522559 157.42857142863795,87.57516002631746 158.16914285719395,89.98032948886976 163.22971428604797,91.18291304528248 171.62285714317113,85.97171197691932 178.2880000001751,87.84240123222116 183.4719999996014,85.57084974693134 185.9405714282766,83.0320536029758 185.57028571376577,77.15272281237412 177.17714285710827,78.6225572655676" stroke="#4dd2ff" stroke-linecap="round" stroke-linejoin="round" stroke-width="0.5"><title>2022-03-06 3.6km</title></polyline><polyline fill="none" points="19.52459988044575,115.43707915826235 17.09187907492742,112.80347072181758 15.043272080365568,117.51624115509912 16.32365145208314,119.87262202298734 30.407824540510774,120.5656746677123 37.44991108449176,116.54596583754756 40.65085951378569,117.93207328370772 39.11440426809713,114.46680278691929 26.566686425358057,114.05096990626771 16.195613514631987,116.68457662709989 15.427385891787708,119.4567903156858 17.604030823800713,121.39733750990126 25.670420865062624,119.4567903156858 31.560165974777192,120.5656746677123 36.16953171323985,117.10040893638507 38.34617664478719,117.51624115509912 40.010669827926904,114.46680278691929 37.705986958928406,115.71430088824127 33.224659158382565,114.05096990626771 30.023710729088634,116.13013340812176 20.676941315177828,115.71430088824127 13.762892708182335,119.31817972671706 14.659158268943429,120.98150613391772 23.237700058612972,116.40735503786709 32.072317723650485,116.68457662709989 37.96206283336505,113.21930387336761 40.13870776537806,113.7737479355419 38.858328393194824,115.99152257817332 30.66390041494742,110.58569238695782 23.749851807951927,112.94208178215194 15.171310017351061,120.98150613391772 17.98814463475719,122.22899999131914 26.566686425358057,118.34790532186162 32.072317723650485,119.1795691276202 36.68168346118182,116.96179817663506 38.73029045667499,114.46680278691929 38.090100770350546,111.97180414712057 35.78541790181771,112.80347072181758 31.8162418496795,110.0312474021921 16.067575577646494,114.88263557769824 16.32365145208314,121.95177920442075 16.579727326054126,120.28845363983419 23.87788974493742,117.51624115509912 33.7368109067902,119.4567903156858 36.55364552466199,118.20929465233348 37.06579727353528,112.94208178215194 27.46295198565349,110.0312474021921 14.915234142914414,118.4865159811452 17.347954948898405,121.25872706144582 27.46295198565349,117.10040893638507 32.20035566110164,120.14984311105218 39.11440426809713,116.54596583754756 39.49851807905361,111.69458187499549 18.62833432108164,120.5656746677123 20.036751629784703,123.33788273797836 24.133965619374067,119.59540089475922 26.950800236780196,120.14984311105218 26.69472436280921,116.68457662709989 29.639596917666495,118.90234789915849 39.242442205082625,115.99152257817332 41.16301126265898,112.2490263787331 38.21813870733604,109.6154135579709 35.14522821595892,111.69458187499549 26.822762299329042,112.2490263787331 23.621813870500773,115.99152257817332 17.8601066977717,115.99152257817332 14.78719620546326,119.1795691276202 16.579727326054126,122.64483109675348 20.804979253094643,122.64483109675348 26.69472436280921,117.23901968589053 35.14522821595892,120.70428516645916 41.03497332520783,117.10040893638507 41.80320094805211,111.14013721130323 39.37048014206812,110.44708115572575 27.07883817423135,112.11041526764166 23.749851807951927,115.15985738800373 16.70776526303962,113.63513693504501 18.116182571742684,116.54596583754756 11.714285714086145,117.79346258426085 15.5554238287732,121.67455837747548 22.981624184641987,118.62512663053349 24.26200355635956,119.87262202298734 25.92649673949927,117.3776304256171 31.4321280377917,120.14984311105218 39.49851807905361,119.59540089475922 42.57142857136205,113.7737479355419 39.626556016504765,108.09068869042676 39.242442205082625,110.58569238695782 36.29756965022534,112.11041526764166" stroke="#4dd2ff" stroke-linecap="round" stroke-linejoin="round" stroke-width="0.5"><title>2022-02-27 4.2km</title></polyline><polyline fill="none" points="60.9113300498575,119.25230783841107 55.59113300498575,124.02447620627936 50.574947220273316,123.36624668224249 49.358902181498706,119.74598089267965 58.32723434269428,119.74598089267965 58.631245601922274,121.55611450818833 69.27163969073445,111.35352439223789 78.3919774806127,114.15101333451457 73.22378606628627,122.87257441401016 79.0,106.91044664417859 74.13581984583288,109.21426581952255 67.29556650295854,108.06235652358737 64.25545390602201,116.12570933904499 60.9113300498575,116.12570933904499 60.75932441931218,118.59407693275716 53.767065446823835,120.73332667991053 50.11893033143133,124.84726284374483 65.16748768463731,114.64468749659136 63.343420126475394,115.6320354990894 68.35960591211915,122.21434455621056 64.71147079579532,120.40421146526933 71.70372976828367,113.6573390654521 71.55172413773835,122.3789020384429 66.38353272341192,115.6320354990894 54.527093595825136,124.51814822433516 48.1428571427241,124.02447620627936 49.510907812044024,127.15106384351384 48.44686840288341,122.87257441401016 53.61505981720984,113.1636646889383 57.56720619276166,118.10040362842847 65.4714989438653,121.39155696623493 62.887403236702085,104.27750758489128 65.31949331518263,106.74588804226369 68.51161154080182,106.08765351586044 73.07178043667227,116.78394095960539 72.46375791728497,121.72067203803454 65.4714989438653,117.11305669834837 63.64743138663471,120.5687690784689 61.06333567947149,117.44217238947749 53.61505981720984,120.07509620301425 51.18296973966062,125.83460641501006 52.09500351920724,118.75863467727322 59.391273750923574,125.50549193902407 65.62350457441062,125.99916363530792 62.887403236702085,113.1636646889383 64.10344827640802,106.91044664417859 70.94370161928236,108.22691503004171 70.48768472950906,120.23965383984614 72.00774102751166,115.6320354990894 70.63969035912305,117.11305669834837 69.57565095089376,113.49278095201589 76.7199155529961,116.94849883462302" stroke="#4dd2ff" stroke-linecap="round" stroke-linejoin="round" stroke-width="0.5"><title>2022-02-13 2.6km</title></polyline><polyline fill="none" points="105.30519902752712,101.3571697929874 107.56188816623762,102.77148809510982 108.6704372165259,104.61438263411401 111.0458994677756,105.9001196147874 112.787905118661,109.80017138499534 114.4111376570072,111.21446952933911 112.39199474337511,119.78590119408909 110.09571456746198,122.18587983760517 109.14552966691554,127.92864641395863 107.79943439131603,129.04290810792008 102.92973677627742,128.82862717559328 99.08940613712184,131.1428571428405 96.00130521063693,131.1000011144206 93.74461607215926,130.32859207398724 92.31933872122318,130.88572092616232 91.96301938360557,130.28573598666117 88.36023496929556,129.3857574381982 85.78681753063574,125.22869592672214 85.5888623429928,122.0573097995948 87.212094881339,119.35733255610103 90.6961061831098,117.51448388013523 92.00261042104103,116.14305788942147 93.03197739669122,112.62876429711469 92.8340222092811,109.92874408315402 94.77398304757662,102.94292038714048 98.93104198691435,100.28571428568102 102.7713726265356,100.9714460336836" stroke="#4dd2ff" stroke-linecap="round" stroke-linejoin="round" stroke-width="0.5"><title>2022-02-12 2.4km</title></polyline><polyline fill="none" points="138.36756727704778,108.89219431264792 133.42312786355615,124.63562314887531 126.34579301718622,128.3090652830433 137.39806935284287,120.2274803040782 138.46451706904918,123.69102223881055 143.89370544534177,121.69686274114065 142.53640835080296,124.42571188870352 145.4449021234177,127.5743776006857 144.57235399167985,128.72888664866332 138.85231623938307,126.62977860483807 133.90787682589144,127.7842884050915 129.93293533660471,126.3149121364113 125.47324488544837,129.04375259322114 125.8610440553166,124.42571188870352 128.28478886559606,122.8513764688978 137.97976810717955,126.1050011193147 143.02115731313825,121.4869510558201 141.56691042659804,124.74057876761071 143.02115731313825,107.00297136546578 135.36212371196598,112.46071982989088 137.88281831517816,110.78141479799524 136.81637059804052,110.46654488798231 132.84142910921946,125.0554455780657 128.57563824299723,126.3149121364113 126.92749177198857,129.5685290156398 128.6725880354643,125.58022344345227 135.65297308936715,124.32075624715071 140.69436229486018,121.2770393397659 144.08760502981022,120.43739217193797 147.28694817936048,122.32659761561081 147.38389797182754,123.90093360538594 145.05710295401514,124.9504899821477 147.09304859442636,124.00588927720673 147.09304859442636,115.924280315754 139.43401499371976,100.28571428568102 138.17366769211367,104.69391775422264 141.95470959646627,106.58314370957669 132.35668014688417,131.1428571428405 134.78042495809495,126.94464500527829 129.73903575213626,124.84553437854629 125.8610440553166,130.09330524783581 134.9743245425634,122.32659761561081 134.29567599575967,123.69102223881055 136.23467184370384,124.00588927720673 134.68347516516224,125.16040116618387 139.43401499371976,121.2770393397659 137.88281831517816,116.55401769699529 144.3784544072114,126.62977860483807 146.2205004626885,125.4752678857185 146.31745025562122,126.83968954603188 143.40895648300648,125.0554455780657 139.53096478618681,124.9504899821477 137.59196893777698,130.09330524783581 134.1987262032926,127.5743776006857 138.75536644645035,122.32659761561081 131.6780316005461,110.57150153222028 145.34795233095065,121.80181857279968" stroke="#4dd2ff" stroke-linecap="round" stroke-linejoin="round" stroke-width="0.5"><title>2022-02-09 3.9km</title></polyline><polyline fill="none" points="176.38565022451803,110.47131854272448 163.51697629736736,113.61710702627897 157.42857142863795,118.71027824247722 162.40999359358102,122.00585293886252 166.8379244073294,120.05846852518152 177.2158872517757,120.50786509085447 181.0903267133981,118.56047926773317 182.05893657915294,115.26489908539224 187.593850096222,113.76690635865089 188.28571428591385,117.06248892645817 185.379884689115,118.11108227947261 175.83215887239203,113.01790958829224 161.99487507995218,114.21630429034121 158.6739269704558,117.81148423266131 160.47277386346832,121.70625545631628 171.6809737351723,118.11108227947261 173.20307495212182,120.95726155932061 177.7693786029704,121.10706036060583 184.96476617548615,115.41469829832204 184.1345291477628,112.86811020190362 180.9519538753666,112.11911310674623 162.27162075601518,114.06650499079842 158.12043561786413,118.41068028262816 160.19602818740532,122.45524908194784 167.5297885965556,121.70625545631628 172.37283792439848,117.96128326142207 173.47982062771916,120.65766392485239 179.56822549644858,120.8074627474416 184.54964766139165,116.46329248603433 185.656630365178,117.81148423266131 188.1473414474167,112.2689125475008 177.6310057658702,113.61710702627897 170.15887251729146,110.77091765217483 166.97629724489525,114.81550138117746 161.30301089026034,114.36610357952304 157.7053171042353,117.96128326142207 161.026265214663,122.15565166412853 172.23446508636698,117.66168519319035 174.31005765497684,120.8074627474416 178.46124279359356,121.10706036060583 185.10313901351765,113.61710702627897 172.51121076242998,114.81550138117746 174.171684817411,120.95726155932061 182.05893657915294,121.25685915071517 184.54964766139165,118.56047926773317 184.4112748238258,112.41871197719593 181.36707238899544,108.97332234645728 176.24727738602087,109.57252095546573" stroke="#4dd2ff" stroke-linecap="round" stroke-linejoin="round" stroke-width="0.5"><title>2022-02-07 2.3km</title></polyline><polyline fill="none" points="31.851106639951468,148.98062887007836 29.967806841246784,147.5691402037628 26.780684104189277,147.7259723233292 27.505030181258917,149.13746088708285 28.953722333535552,148.03963652811944 30.40241448674351,151.9604352567112 35.32796780671924,153.9992477920605 28.229376257397234,154.62657433992717 28.37424547318369,152.43093062739354 25.33199195191264,151.9604352567112 18.233400402590632,155.56756382156163 13.018108651041985,153.68558444979135 12.004024144262075,150.39211661648005 18.378269617445767,149.4511248874478 24.173038229346275,143.96199832425918 31.70623742416501,144.90299243689515 39.23943661991507,146.9418116126908 39.674044265411794,150.39211661648005 37.21126760542393,154.31291108881123 33.879275653511286,152.90142589609604 30.112676056101918,155.25390070630237 27.36016096547246,152.2740988485748 18.088531186804175,155.25390070630237 12.148893360048532,153.9992477920605 14.756539234891534,155.56756382156163 22.869215290993452,151.9604352567112 23.883299798704684,144.58932777808513 30.83702213317156,145.21665705018677 33.15492957737297,149.92162080307025 40.39839034155011,146.78497943631373 41.41247484926134,151.17627607868053 37.50100603606552,157.13587871589698 33.879275653511286,157.44954155827872 31.561368209309876,152.43093062739354 26.201207243837416,151.0194442087086 23.01408450677991,158.8610237883404 18.233400402590632,162.62497190700378 11.714285714551806,158.23369846655987 13.59758551325649,154.15607944584917 18.088531186804175,154.94023754599039 20.116700201295316,157.9200357372174 22.434607645496726,149.13746088708285 28.37424547318369,145.05982474947814 33.2997987922281,146.62814724899363 35.76257545221597,145.05982474947814 42.28169014118612,148.66696480137762 30.6921529173851,153.84241612674668 26.635814889334142,152.11726705811452 18.95774647872895,156.9790472772438 13.307847082614899,154.31291108881123 13.162977866828442,150.54894853185397 14.466800804249942,148.98062887007836 21.130784708075225,149.76478884287644 25.911468813195825,144.74616011290345 30.981891348026693,146.31448283954524 38.0804828973487,143.49150111468043 41.55734406411648,144.43249543197453 42.57142857182771,150.2352846902795 25.766599597409368,142.86417134315707 26.925553319975734,141.76634380535688 24.752515089698136,145.21665705018677 29.967806841246784,145.68715388537385 30.112676056101918,143.17783625144511 38.37022132799029,142.23684138967656 33.58953722380102,137.3750280928798 30.547283701598644,137.6886937962845 24.31790744420141,147.41230807325337 27.07042253483087,148.3533006872749 28.663983903825283,145.8439861406805 37.21126760542393,143.17783625144511 39.384305835701525,141.13901353429537 38.0804828973487,140.19801778683905 40.39839034155011,142.08000887278467 39.963782696053386,145.05982474947814 29.67806840967387,151.8036034438992" stroke="#4dd2ff" stroke-linecap="round" stroke-linejoin="round" stroke-width="0.5"><title>2022-02-06 3.0km</title></polyline><polyline fill="none" points="71.90140845067799,141.0606068619527 50.02615694142878,148.58854341774713 50.17102615721524,151.72517593065277 51.909456740133464,149.21587028331123 65.96177062299103,144.51091436296701 70.01810865197331,148.58854341774713 77.84104627743363,147.0202254585456 65.23742454685271,145.76557027420495 54.80684104654938,152.50933334918227 51.04024144820869,149.05903858412057 48.1428571427241,150.00002861046232 52.48893360141665,155.33229770697653 52.34406438563019,160.19406103610527 60.89134808816016,161.13504622667097 61.76056338008493,157.84159627137706 70.74245472811162,157.68476519617252 72.33601609617472,159.56673734879587 79.0,155.48912895249669 70.45271629747003,142.78576129931025 66.97585513070226,143.4130898450967 64.51307847071439,141.0606068619527 57.84909456688911,142.78576129931025 59.73239436559379,149.21587028331123 56.8350100601092,149.84319696738385 56.54527163039893,152.82299623743165 59.73239436559379,152.50933334918227 68.42454728391021,142.6289291344583 71.03219315875322,144.51091436296701 74.79879275616258,141.6879359073937 66.8309859149158,147.6475527783623 62.19517102558166,144.0404182090424 52.48893360141665,149.37270197144244 52.633802817203104,151.41151288338006 61.18108651880175,147.96121637022588 64.36820925492793,149.21587028331123 72.19114688038826,139.8059482264798 69.58350100647658,152.82299623743165 66.68611670006067,150.94101822783705 66.25150905456394,152.66616479877848 67.41046277619898,151.41151288338006 73.06036217231303,155.0186351822922 78.71026156935841,151.72517593065277 72.62575452681631,138.86495377321262 75.8128772629425,139.33545105077792 74.2193158948794,139.17861863656435 74.50905432552099,141.0606068619527" stroke="#4dd2ff" stroke-linecap="round" stroke-linejoin="round" stroke-width="0.5"><title>2022-02-05 2.4km</title></polyline><polyline fill="none" points="98.17662337655202,152.65681771590607 98.73766233748756,156.67989255132852 99.78961038962007,157.5907752799103 115.00779220764525,158.04621634777868 115.42857142863795,155.76900903275236 114.23636363632977,153.64361108344747 112.48311688331887,153.1122609236627 109.04675324680284,154.32677517912816 108.2051948052831,153.1122609236627 105.32987012970261,153.26407528232085 103.57662337645888,147.34329902747413 96.0727272729855,143.0924647169304 95.44155844161287,138.61388852319214 86.25454545486718,139.37297057855176 85.062337662559,141.42248938675039 84.57142857136205,150.0759691396379 85.97402597405016,154.40268227341585 87.93766233790666,155.00993883033516 89.05974026001059,160.77885860722745 92.00519480532967,161.31020488741342 98.17662337655202,155.9967299864511 99.43896103906445,156.90761330758687 114.09610389592126,157.81849583837902 115.28831168822944,156.3762647997355 112.69350649346597,153.56770393409533 108.97662337659858,154.4785893621738 107.99480519467033,153.33998245361727 104.76883116876706,153.03635373612633 103.43636363651603,147.34329902747413 97.33506493526511,144.4588061933755 95.65194805222563,141.87793746741954 95.51168831181712,138.68979675340233 89.62077922094613,138.7657049780828 86.67532467562705,139.52478692366276 85.34285714267753,141.346581354097 84.92207792215049,150.53141346701887 86.04415584425442,154.70631059579318 88.14805194805376,155.1617529146606 88.70909090922214,160.39932538528228 90.60259740264155,161.38611147680786 91.58441558433697,160.62704533484066" stroke="#4dd2ff" stroke-linecap="round" stroke-linejoin="round" stroke-width="0.5"><title>2022-02-02 2.7km</title></polyline><polyline fill="none" points="141.69841269869357,146.97567253140733 130.77777777798474,146.42579155636486 131.79365079384297,152.3370036961278 128.11111111193895,149.86254503880627 125.57142857229337,151.0997747705551 127.60317460354418,153.71170155715663 133.5714285718277,155.77374648291152 138.39682539692149,152.3370036961278 143.22222222248092,155.49880728882272 149.69841269869357,154.12411072151735 149.69841269869357,151.3747146014357 146.14285714318976,147.38808315829374 141.69841269869357,148.4878443919588 137.7619047621265,147.11314274999313 129.2539682541974,149.31266489962582 125.57142857229337,153.02435275097378 129.0,154.948928781203 134.58730158768594,153.71170155715663 138.26984127052128,150.00001504912507 140.93650793656707,150.96230484021362 142.20634920708835,154.948928781203 148.68253968283534,152.749413158861 149.44444444496185,150.41242501942907 147.28571428637952,147.93796385463793 140.68253968283534,148.21290414338 132.3015873017721,145.6009697949048 126.7142857145518,149.45013494952582 127.98412698460743,153.43676206446253 131.92063492070884,154.39905011444353 138.77777777798474,150.2749550389126 141.19047619123012,155.0863984231837 146.39682539692149,153.98664100968745 151.8571428572759,149.58760498918127 147.158730159048,142.43914972536732 136.49206349253654,147.52555334719364 131.28571428637952,147.80049369577318 129.0,153.02435275097378 121.0,154.39905011444353 122.52380952425301,155.49880728882272 133.19047619123012,152.61194334784523 144.23809523833916,156.73603334883228 150.33333333348855,149.58760498918127 146.523809524253,145.6009697949048 135.8571428572759,149.45013494952582 142.33333333395422,155.77374648291152 149.19047619076446,150.82483489997685 149.69841269869357,147.38808315829374 141.8253968260251,146.70073206338566 134.33333333348855,150.00001504912507 144.23809523833916,157.5608502747491 149.8253968260251,154.39905011444353 148.04761904850602,148.4878443919588" stroke="#4dd2ff" stroke-linecap="round" stroke-linejoin="round" stroke-width="0.5"><title>2022-01-28 2.6km</title></polyline><polyline fill="none" points="174.23469387739897,152.01331201416906 175.1989795914851,149.77635096758604 176.71428571408615,154.10114013263956 173.9591836729087,152.6098345494829 171.06632653065026,162.4524314509472 172.0306122447364,156.63635714666452 170.51530612260103,155.7415750271175 157.42857142863795,159.32070117327385 169.0,157.08374806062784 167.2091836729087,158.1276598153636 166.10714285681024,153.95200962282252 167.62244897987694,152.6098345494829 160.73469387786463,150.6711356776068 163.48979591857642,154.39940111967735 168.86224489752203,152.01331201416906 174.6479591834359,154.25027063139714 172.44387755077332,160.81200189923402 186.63265306083485,136.05627008981537 185.80612244876102,145.74981496459804 188.2857142854482,149.03069674631115 178.7806122447364,149.3289584669983 175.1989795914851,155.29418382165022 170.92857142863795,153.20635691203643 171.61734693869948,154.99592296418268 164.17857142863795,154.25027063139714 159.0816326532513,156.78548746195156 161.01020408142358,154.8467925194418 169.0,155.7415750271175 172.44387755077332,151.2676586016314 176.85204081609845,150.96939716127235 186.35714285681024,160.0663516712375 181.39795918297023,159.32070117327385 175.6122448979877,149.4780893116258 180.29591836687177,150.372874150984 178.36734693869948,150.22374337131623 176.43877551006153,159.32070117327385 168.86224489752203,155.89070540759712 179.33163265278563,159.61896140489262 183.6020408165641,163.94372991018463 179.19387755077332,159.76809150422923 181.6734693874605,157.8293993677944 180.9846938769333,154.99592296418268 184.5663265301846,155.7415750271175 179.33163265278563,149.3289584669983 182.7755102040246,157.53113887750078 182.49999999906868,162.8998211021535 177.8163265301846,155.29418382165022 176.71428571408615,156.78548746195156 176.85204081609845,154.10114013263956 174.92346938792616,156.0398357770173 172.44387755077332,154.99592296418268" stroke="#4dd2ff" stroke-linecap="round" stroke-linejoin="round" stroke-width="0.5"><title>2022-01-26 2.5km</title></polyline><polyline fill="none" points="29.27724449429661,183.36147553741466 20.98362507019192,181.24889132822864 20.373800112865865,179.53241485671606 22.20327498577535,182.96536618459504 12.69000564655289,187.85070885904133 17.934500282630324,187.05849201674573 24.52060982491821,178.4761208408745 28.179559570271522,180.5887082607951 35.375494070816785,180.32463496748824 35.49745906237513,182.04111069336068 17.08074534125626,187.58663661638275 26.10615471424535,177.28778934187721 32.44833427434787,178.4761208408745 36.35121400328353,176.62760484125465 36.473178994841874,180.19259830622468 22.325239976868033,186.26627483044285 20.12987012974918,183.88962120760698 15.007340485230088,186.5303472642554 16.22699040127918,187.4546004809672 20.373800112865865,185.60609357920475 21.227555053308606,181.1168547339039 23.66685488447547,179.66445156547707 27.569734612945467,180.98481812980026 34.64370412193239,179.53241485671606 29.765104460995644,180.5887082607951 26.47204968892038,184.285730359843 23.30095990933478,179.26834141020663 21.227555053308606,181.7770376097178 28.789384528063238,181.7770376097178 15.129305477254093,191.9438237301074 15.007340485230088,189.4351415114943 11.714285714086145,189.96328542300034 13.05590062122792,187.85070885904133 24.15471485024318,178.7401944019366 29.27724449429661,181.9090741565451 35.375494070816785,180.72074489388615 25.98418972361833,185.73812984849792 26.10615471424535,183.88962120760698 26.47204968892038,186.92645584302954 32.204404291231185,184.54980308015365 37.08300395263359,178.08001042739488 35.741389045491815,182.5692567457445 42.57142857136205,180.19259830622468" stroke="#4dd2ff" stroke-linecap="round" stroke-linejoin="round" stroke-width="0.5"><title>2022-01-24 2.3km</title></polyline><polyline fill="none" points="68.30285714287311,179.16359424381517 67.34285714291036,180.351337064174 68.30285714287311,178.866658431245 64.87428571423516,177.9758507356746 54.86285714246333,181.68754691502545 48.27999999979511,185.69617124507204 48.41714285733178,189.85325486876536 55.41142857121304,190.89252445835155 64.73714285669848,185.84463866229635 78.58857142878696,187.03237761417404 77.21714285667986,179.01512634265237 72.96571428561583,176.63963846722618 66.79428571416065,178.56972257536836 62.542857143096626,176.93657460191753 58.154285714030266,177.3819787238026 57.46857142820954,181.98448231909424 48.554285714868456,187.18084493500646 49.78857142850757,189.85325486876536 55.68571428535506,191.04099149955437 63.91428571380675,189.25938629568554 64.32571428548545,187.62624683254398 68.98857142822817,189.7047877414152 77.76571428589523,188.36858311318792 78.17714285757393,180.20286924915854 72.00571428565308,176.93657460191753 59.11428571399301,178.7181905087782 58.29142857110128,181.5390791965183 51.98285714304075,182.13295000523794 48.1428571427241,187.03237761417404 48.82857142854482,190.44712327013258 56.919999999925494,192.37719438725617 64.46285714302212,187.47777954372577 73.78857142850757,190.00172198517248 77.0800000000745,188.9624519442441 78.86285714292899,178.866658431245 71.04571428569034,176.3427022891119 59.11428571399301,178.866658431245 57.605714285280555,183.17222350626253 50.47428571386263,184.9538339972496 49.24000000022352,189.11091912526172 59.251428571064025,190.59559034358244 63.777142856735736,185.84463866229635 68.57714285654947,188.8139847527491 76.39428571378812,186.14157346484717 79.0,182.7268206415465 78.58857142878696,180.05440142331645 74.74857142847031,176.19423418410588 70.08571428572759,177.08504265313968" stroke="#4dd2ff" stroke-linecap="round" stroke-linejoin="round" stroke-width="0.5"><title>2022-01-23 2.3km</title></polyline><polyline fill="none" points="104.48979591857642,181.1042899559252 92.40816326532513,184.99272892833687 86.8571428572759,191.17886907909997 86.8571428572759,188.1741743918974 92.73469387833029,182.5182684804313 99.10204081702977,181.45778466342017 107.26530612260103,181.28103731619194 106.28571428637952,185.5229701269418 100.89795918390155,185.5229701269418 107.42857142910361,172.9738975504879 100.40816326532513,183.932246186072 89.46938775479794,186.76019914192148 89.46938775479794,189.76489556906745 87.83673469349742,188.5276680761017 92.24489795882255,188.35092124040239 96.48979591857642,181.8112793203909 110.85714285820723,180.22055296204053 106.9387755105272,185.69971716729924 96.65306122414768,183.57875183643773 92.24489795882255,191.00212243502028 96.16326530557126,188.8811617095489 84.57142857182771,188.8811617095489 103.18367346934974,178.62982556712814 105.95918367337435,181.98802662966773 101.71428571362048,186.93694609263912 91.26530612260103,183.4020046426449 86.69387755077332,192.06260210694745 94.8571428572759,187.4671868691221 92.73469387833029,186.40670520160347 86.20408163312823,191.8858555268962 89.95918367337435,191.00212243502028 94.69387755170465,184.2857404849492 102.8571428572759,184.81598183698952 104.97959183622152,182.16477392567322 112.0,188.35092124040239 115.42857142910361,187.64393376884982 113.46938775572926,177.03909713681787 107.91836734674871,174.03438505157828 110.53061224427074,179.33681564871222 105.7959183678031,184.81598183698952 101.06122449040413,185.5229701269418 94.53061224520206,195.59753102087416 101.87755102105439,189.41140206390992 103.83673469442874,192.94633481511846 109.87755102105439,189.41140206390992 105.7959183678031,182.16477392567322 114.12244897987694,176.86234946921468 112.48979591857642,173.32739343540743 101.38775510247797,185.5229701269418" stroke="#4dd2ff" stroke-linecap="round" stroke-linejoin="round" stroke-width="0.5"><title>2022-01-14 2.4km</title></polyline><polyline fill="none" points="131.4210526314564,179.81704637757502 123.30075187981129,181.868245636113 121.40601503802463,185.38458238588646 122.7593984962441,189.7799947335152 128.5789473685436,190.65907605795655 137.1052631577477,185.67761017254088 142.24812030047178,188.75439937284682 146.57894736761227,188.90091302781366 149.4210526314564,187.28926224180032 151.58646616479382,180.11007497052196 147.39097744319588,177.17978713475168 144.54887218028307,179.08447471063118 134.3984962408431,178.0588739310624 121.6766917295754,185.38458238588646 122.7593984962441,191.68467045377474 127.2255639093928,191.09861657686997 137.1052631577477,185.09155455662403 142.5187969924882,187.58228975266684 150.63909774413332,182.1612739317352 151.8571428572759,179.08447471063118 147.39097744319588,177.17978713475168 136.83458646619692,180.2565892508719 133.31578947324306,179.5240177429514 123.43609022535384,183.7729288005503 122.35338345868513,188.31485834496561 125.60150375915691,191.09861657686997 132.63909774366766,188.90091302781366 135.4812030075118,185.67761017254088 139.54135338310152,187.87531722150743 151.0451127816923,179.9635606794618 139.81203007511795,177.76584504113998 123.57142857182771,182.30778806388844 121.0,186.84972089563962 124.92481202958152,191.39164353674278 134.80451127840206,185.67761017254088 139.81203007511795,188.46137203159742 148.87969924742356,187.1427484700689 148.87969924742356,178.0588739310624 146.03759398451075,176.88675811770372" stroke="#4dd2ff" stroke-linecap="round" stroke-linejoin="round" stroke-width="0.5"><title>2022-01-11 2.1km</title></polyline><polyline fill="none" points="177.29368485603482,177.0455437344499 177.6909871250391,181.92013379000127 175.70447578234598,181.63339353073388 178.08828939311206,180.1996916111093 167.3611281425692,181.20328306383453 163.38810545718297,179.05272932746448 159.1502145929262,190.95243071648292 169.347639485728,185.9344930642983 173.32066217064857,190.66569176444318 179.67749846726656,185.9344930642983 182.0613120784983,186.50797229656018 183.78295524185523,182.78035431937315 181.92887798929587,177.7623959656339 182.4586143475026,179.05272932746448 176.36664622928947,178.33587756368797 176.23421214008704,179.76958083268255 167.4935622322373,181.77676366572268 167.62599632143974,178.7659886535257 159.9448191295378,187.79829996195622 157.82587369717658,187.36819083348382 158.09074187697843,190.37895277119242 159.2826486825943,191.3825390668353 168.28816676931456,187.79829996195622 184.44512568973005,188.51514830172528 184.44512568973005,176.6154322711518 175.57204169221222,175.03835610719398 168.02329858997837,181.49002338561695 162.063764561899,180.77317250333726 157.95830778731033,184.35742431983817 159.54751686099917,190.37895277119242 157.42857142863795,194.24992568115704 163.38810545718297,191.66927791468333 163.91784181492403,192.81623289268464 173.18822808144614,186.0778628877597 176.76394849829376,187.94166965060867 188.02084610657766,185.9344930642983 185.3721643164754,180.48643207759596 186.16676885355264,174.46487355441786 181.0018393630162,177.1889142015716 170.93684855941683,177.61902553995606 163.12323727784678,184.0706844131928 158.62047823471949,183.3538344646804 157.82587369717658,190.09221373591572 162.46106683043763,191.3825390668353 172.92335990210995,185.7911232301267 175.30717351380736,187.94166965060867 187.09380748076364,185.9344930642983 188.28571428591385,174.32150289032143 177.558553035371,176.18532071472146 170.14224402233958,181.92013379000127 173.9828326185234,188.22840899706353 176.49908031942323,185.64775338594336 177.42611894523725,188.51514830172528 181.66400980995968,190.95243071648292 185.2397302268073,184.93090400844812 182.4586143475026,181.05991288740188" stroke="#4dd2ff" stroke-linecap="round" stroke-linejoin="round" stroke-width="0.5"><title>2022-01-09 2.9km</title></polyline><polyline fill="none" points="32.57721226103604,212.28262054058723 30.32851359108463,213.90554895286914 24.33198380516842,213.0940849230392 19.709658761974424,216.61042650823947 12.963562752585858,217.9628638176946 11.714285714086145,221.208709366736 12.963562752585858,224.99552204750944 17.585887796245515,228.64708415057976 22.957779062911868,229.4585414264584 27.954887217842042,221.61443966371007 38.69866975117475,220.8029789814027 40.32272990094498,218.09810749499593 37.32446500798687,213.22932895249687 27.580104106105864,212.68835277564358 25.706188547890633,210.38920227752533 20.709080392494798,212.1473764424445 19.459803354460746,217.15140154981054 15.836899941787124,215.6637198093813 13.088490456808358,216.8809140487574 12.71370734507218,223.778333093971 23.95720069343224,221.88492647965904 27.205320994369686,219.18005655927118 31.82764603756368,222.56114334787708 38.44881434319541,222.29065663006622 40.44765760516748,219.18005655927118 39.073452862910926,215.1227443376556 31.702718333806843,212.1473764424445 24.58183921314776,212.41786462860182 21.958357431925833,213.90554895286914 20.709080392494798,217.82762013096362 15.212261423002928,218.09810749499593 12.089068825822324,220.53249200887512 13.713128976058215,224.04881959652994 20.58415268920362,224.99552204750944 25.081550028640777,223.23735997150652 28.7044534413144,218.36859481979627 34.57605552254245,220.93822245288175 40.32272990094498,217.15140154981054 40.32272990094498,214.31128083576914 39.57316367793828,217.55713272781577 35.95026026573032,213.63506098242942 31.952573741786182,214.98750044498593 27.829959513619542,211.7416440898087 19.709658761974424,216.33993892895523 14.337767495308071,217.01615780382417 12.213996529579163,220.39724850805942 13.213418160099536,223.37260326673277 22.33314054366201,223.50784655218013 26.205899363849312,218.09810749499593 36.44997108122334,221.0734659145819 38.948525158688426,219.99151794658974 42.19664545962587,217.28664528555237 42.57142857136205,214.31128083576914 42.44650086713955,210.11871379753575 41.072296124417335,207.68431571638212 38.948525158688426,207.95480454864446" stroke="#4dd2ff" stroke-linecap="round" stroke-linejoin="round" stroke-width="0.5"><title>2022-01-08 2.5km</title></polyline><polyline fill="none" points="64.48616600781679,214.14823678822722 67.7792207794264,214.41230990970507 66.31564088119194,215.73267494502943 59.24167137220502,217.31711172591895 55.58272162685171,212.43176056514494 50.09429700812325,217.58118438883685 50.826086956076324,220.35394504282158 54.85093167750165,221.67430577753112 62.65669113537297,218.5054384083487 65.46188594028354,221.54226974688936 70.58441558480263,220.485981159145 76.31677018664777,215.86471139616333 76.43873517867178,211.77157697244547 68.87690570345148,210.4512090702774 59.485601355321705,212.69583393528592 57.900056465528905,216.78896628541406 48.99661208409816,217.053039024584 48.1428571427241,219.95783663599286 50.7041219654493,223.7868809653446 57.534161490853876,222.99466555658728 65.33992094919086,217.58118438883685 72.53585544927046,220.6180172660388 78.51214003423229,212.16768715670332 71.07227555057034,208.47065542498603 61.802936194464564,213.4880538166035 57.0463015246205,212.29972386546433 55.948616600595415,216.39285710442346 49.36250705830753,219.16561956435908 50.46019198233262,222.99466555658728 60.2173913042061,220.22190891648643 62.41276115225628,221.1461615981534 63.14455110114068,218.7695108994376 68.26708074519411,220.75005336361937 70.58441558480263,218.3734021486016 75.09712027106434,219.29765576682985 79.0,217.31711172591895 78.51214003423229,214.01620021276176 73.3896103897132,209.13084021233954 64.24223602516577,212.43176056514494 58.50988142285496,211.77157697244547 56.80237154150382,216.78896628541406 49.48447204940021,219.03358335222583 50.826086956076324,227.48388165782671 53.8752117450349,228.67220171785448 59.485601355321705,227.35184604779352 62.77865612646565,220.08987278107088 68.87690570345148,221.1461615981534 78.51214003423229,218.5054384083487 78.75607001734897,214.14823678822722 76.31677018664777,211.6395402252674 69.12083568656817,210.8473195412662 65.46188594028354,212.43176056514494" stroke="#4dd2ff" stroke-linecap="round" stroke-linejoin="round" stroke-width="0.5"><title>2022-01-03 2.6km</title></polyline><polyline fill="none" points="103.98571428563446,213.7694480684586 95.75714285718277,214.1870138887316 85.47142857126892,218.22347880958114 85.98571428610012,224.76531775773037 95.11428571445867,223.9301906202454 100.12857142835855,218.64104366267566 109.12857142882422,221.14643087680452 113.37142857164145,217.3883488313295 108.22857142891735,210.42891824326944 94.59999999962747,214.46539105207194 93.82857142807916,217.3883488313295 87.91428571427241,217.24916046659928 84.57142857136205,221.14643087680452 88.81428571417928,222.81668720662128 99.35714285681024,218.50185538840014 102.95714285736904,221.8423711906653 107.32857142854482,222.25993525795639 115.30000000074506,219.47617309668567 112.47142857173458,213.7694480684586 107.45714285736904,210.98567361745518 101.15714285708964,211.54242882994004 92.67142857145518,217.66672553122044 85.47142857126892,218.22347880958114 86.11428571399301,223.51262691558804 89.07142857089639,226.29638323385734 94.59999999962747,227.5490722624818 99.61428571445867,220.7288665678352 104.88571428554133,224.0693785016192 107.32857142854482,223.09506312047597 113.75714285764843,217.80591386579908 113.50000000046566,212.51675006456207 108.22857142891735,209.59378488035873 100.25714285764843,214.74376817489974 93.95714285736904,213.3518821579637 92.54285714309663,217.1099720915081 84.6999999997206,219.47617309668567 86.37142857164145,224.76531775773037 93.57142857136205,226.4355709439842 100.25714285764843,219.6153613004135 102.18571428582072,221.56399509531911 115.42857142863795,218.36266710388009 114.39999999990687,214.46539105207194 107.45714285736904,211.54242882994004 103.34285714337602,210.98567361745518 101.67142857145518,212.93431615631562 101.54285714263096,211.54242882994004 97.3000000002794,216.69240690593142 100.38571428600699,222.67749923444353 103.47142857173458,222.67749923444353" stroke="#4dd2ff" stroke-linecap="round" stroke-linejoin="round" stroke-width="0.5"><title>2022-01-02 2.6km</title></polyline><polyline fill="none" points="141.2341920370236,214.46424872835632 138.70491803251207,214.7380623910576 137.69320843042806,212.82136592140887 137.94613583153114,215.69640989752952 136.049180327449,213.50590059754904 124.66744730621576,218.0238232491538 121.50585480034351,220.76195293781348 122.01170960161835,224.32151560753118 131.74941451987252,224.7322339459788 137.56674473080784,218.5714495042339 139.33723653387278,221.7202973922249 145.91334894578904,222.4048288485501 149.58079625247046,218.4345429551322 150.8454332551919,212.2737380019389 148.06323185004294,210.90466750937048 138.32552693178877,211.45229582535103 132.38173302076757,214.1904350266559 131.11709601804614,216.9285702641355 121.0,219.529795068549 121.63231850089505,225.00604612205643 127.32318501127884,226.6489183466183 133.64637002302334,225.82748241256922 137.18735363008454,219.94051444728393 144.7751756440848,223.6369848450413 150.33957845391706,215.42259637406096 140.2224824349396,213.36899368232116 124.28805620549247,218.70835604297463 121.50585480034351,221.58339107153006 121.75878220098093,225.6905763890827 126.18501170864329,227.47035392397083 137.56674473080784,220.6250465476187 142.49882903974503,223.22626626864076 149.07494145212695,220.89885931834579 149.45433255285025,222.4048288485501 151.85714285681024,214.46424872835632 146.7985948473215,209.94631757517345 137.31381733017042,211.45229582535103 130.7377049177885,216.38094353373162 123.65573770413175,218.5714495042339 121.12646369915456,222.4048288485501 122.13817330216989,225.14295219513588 130.23185011651367,225.55367035523523 137.31381733017042,219.529795068549 142.7517564399168,223.3631724708248 150.0866510537453,217.75001006247476 148.69555035140365,209.6725032189861 141.86651053838432,212.82136592140887 134.1522248238325,212.54755198128987 129.59953161561862,217.61310345400125 124.414519906044,218.0238232491538 121.75878220098093,222.54173510998953 123.14988290378824,224.86914003884885 132.38173302076757,219.39288858906366 133.51990632293746,222.4048288485501 136.55503512825817,220.21432731719688" stroke="#4dd2ff" stroke-linecap="round" stroke-linejoin="round" stroke-width="0.5"><title>2021-12-29 2.9km</title></polyline><polyline fill="none" points="172.91960670938715,221.74967202043626 171.5454019671306,221.61442844115663 172.54482359765097,215.9341892754892 166.92307692300528,215.52845724555664 165.17408906901255,218.09809194598347 161.3013302492909,218.639067222015 158.677848468069,222.02015914954245 159.55234239436686,226.07746138691436 169.54655870469287,224.86027164082043 171.5454019671306,220.80296676047146 179.04106419952586,224.1840547726024 185.4123770967126,223.10210727434605 186.66165413474664,217.2866287380457 180.54019664553925,214.176016510115 174.0439560445957,215.7989452747861 166.04858299624175,214.31126062758267 157.42857142863795,219.31528609688394 159.05263157980517,225.6717315595597 169.04684788919985,225.40124495897908 173.41931752488017,220.80296676047146 176.1677270103246,223.2373507458251 183.91324465023354,222.56113329005893 187.66107576619834,219.99150472716428 188.28571428591385,217.42187263059895 184.78773857699707,210.65966601669788 177.29207634506747,214.31126062758267 167.29786003520712,214.44650473550428 164.54945054929703,219.72101730434224 157.80335454037413,220.12674842390697 157.55349913286045,222.96686379273888 159.05263157980517,226.48319112625904 162.05089647183195,226.3479478894733 173.79410063661635,220.80296676047146 183.53846153849736,225.40124495897908 187.16136495070532,217.2866287380457 180.6651243492961,215.25796917651314 175.66801619436592,216.2046772458125 167.04800462676212,214.5817488337634 165.79872758872807,218.7743110167794 159.80219780281186,217.2866287380457 158.5529207638465,219.4505298427539 160.55176402581856,223.50783765967935 163.30017351126298,224.45454154908657 170.92076344741508,224.45454154908657 172.0451127816923,222.56113329005893 182.41411220328882,224.04881136957556 186.78658183896914,218.639067222015 185.0375939849764,214.31126062758267 180.7900520535186,212.4178420905955 160.30190861783922,219.99150472716428" stroke="#4dd2ff" stroke-linecap="round" stroke-linejoin="round" stroke-width="0.5"><title>2021-12-28 2.6km</title></polyline><polyline fill="none" points="26.57977059390396,245.96884926897474 25.34098018752411,249.50444742513355 20.723670489620417,250.11403256410267 16.106360792648047,254.50303905212786 15.54327424429357,257.79478641366586 17.119916579220444,259.98928108089603 20.16058394126594,255.2345390218543 26.57977059390396,254.0153722295072 29.05735140759498,257.063287556055 33.8998957243748,257.6728699593805 39.64337851945311,253.40578850230668 40.206465067807585,248.8948620655574 30.97184567246586,247.797607862507 25.904066735878587,249.138696235721 18.47132429573685,251.94278665725142 15.7685088631697,254.62495573598426 16.669447340536863,258.64820134604815 18.809176224749535,260.35502991394605 24.440041710156947,259.7454484810587 28.26903023989871,254.74687241076026 31.647549530491233,257.1852040543454 37.39103232510388,255.47837227454875 42.57142857136205,245.35926262987778 34.12513034418225,248.4071936191758 28.156412929762155,246.2126838627737 27.931178310420364,247.797607862507 17.00729927001521,250.96745138801634 15.430656934157014,256.81945453281514 11.714285714086145,259.7454484810587 26.57977059390396,257.42903702449985 27.705943691544235,253.64962201961316 31.197080292273313,257.6728699593805 38.967674660962075,254.0153722295072 40.88216892629862,248.04144219181035 39.08029197063297,245.48117997508962 22.300312825012952,246.45651842129882 21.39937434764579,250.23594956542365 13.854014598298818,255.8441220872337 14.417101146653295,259.7454484810587 16.782064650207758,261.086527342326 16.782064650207758,258.2824521420989 21.511991657782346,257.55095349648036 19.71011470258236,260.35502991394605 26.35453597502783,255.2345390218543 29.73305526562035,256.6975380079821 38.40458811214194,255.6002888873918 40.99478623550385,246.94418743264396 38.62982273194939,244.62775837176014 33.78727841516957,245.23734527558554 33.562043795362115,246.57843568746466" stroke="#4dd2ff" stroke-linecap="round" stroke-linejoin="round" stroke-width="0.5"><title>2021-12-27 2.6km</title></polyline></svg>