<?xml version="1.0" encoding="utf-8" ?>
<svg baseProfile="full" height="300mm" version="1.1" viewBox="0,0,200,300" width="200mm" xmlns="http://www.w3.org/2000/svg" xmlns:ev="http://www.w3.org/2001/xml-events" xmlns:xlink="http://www.w3.org/1999/xlink"><defs /><rect fill="#222222" height="300" width="200" x="0" y="0" /><text fill="#FFFFFF" style="font-size:12px; font-family:Arial; font-weight:bold;" x="10" y="20">Over 1km Runs</text><text fill="#FFFFFF" style="font-size:4px; font-family:Arial" x="10" y="280">ATHLETE</text><text fill="#FFFFFF" style="font-size:9px; font-family:Arial" x="10" y="290">Kris</text><text fill="#FFFFFF" style="font-size:4px; font-family:Arial" x="120" y="280">STATISTICS</text><text fill="#FFFFFF" style="font-size:3px; font-family:Arial" x="120" y="285">Number: 8</text><text fill="#FFFFFF" style="font-size:3px; font-family:Arial" x="120" y="290">Weekly: 1.3</text><text fill="#FFFFFF" style="font-size:3px; font-family:Arial" x="141" y="285">Total: 27.2 km</text><text fill="#FFFFFF" style="font-size:3px; font-family:Arial" x="141" y="290">Avg: 3.4 km</text><text fill="#FFFFFF" style="font-size:3px; font-family:Arial" x="167" y="285">Min: 1.3 km</text><text fill="#FFFFFF" style="font-size:3px; font-family:Arial" x="167" y="290">Max: 4.7 km</text><polyline fill="none" points="19.177966100163758,59.00921164266765 19.635593220591545,59.256914139026776 19.177966100163758,60.00002151937224 18.720338982529938,60.4954263495747 17.576271186582744,61.2385334612336 18.033898304216564,61.73393811262213 18.262711863964796,62.972449427237734 20.550847456790507,63.220151636749506 29.016949152573943,62.72474720003083 43.432203388772905,62.229342692065984 51.66949152573943,62.972449427237734 54.415254237130284,62.972449427237734 59.44915254320949,61.981640411540866 62.423728813417256,61.4862357955426 67.0,52.32123747607693 58.305084745399654,48.853393874363974 56.01694915257394,49.34880031878129 45.49152542371303,51.57812842843123 32.6779661020264,57.27529366919771 29.932203389704227,57.27529366919771 24.89830508455634,58.513806597329676 16.88983050826937,66.93568262294866 41.37288135569543,61.981640411540866 43.432203388772905,63.46785382786766 49.15254237316549,63.220151636749506 62.194915254600346,62.477044955361634 66.08474576286972,58.76150912907906 65.85593220312148,56.77988837263547 56.93220338970423,48.357987359166145 56.01694915257394,49.10109710600227 47.093220338225365,51.33042537700385 43.203389829955995,57.77069889451377 48.237288136035204,60.4954263495747 65.62711864337325,51.82583146262914 56.24576271139085,47.86258077179082 51.66949152573943,50.09190985024907 40.45762711856514,53.064346361905336 36.79661016911268,52.56894045625813 37.9406779659912,51.82583146262914 39.77118644025177,52.07353447843343 38.62711864337325,52.32123747607693 35.8813559319824,52.816643418511376 33.8220338979736,52.816643418511376 30.389830507338047,55.789077564375475 14.830508474260569,66.93568262294866 14.830508474260569,69.16499927896075 14.601694914512336,70.8989112295676 18.262711863964796,69.90810450795107 18.033898304216564,69.90810450795107 30.16101694945246,64.9540665987879 31.99152542371303,64.21096029388718 34.27966101653874,63.220151636749506 44.11864406708628,62.972449427237734 46.635593220591545,63.46785382786766 51.89830508362502,62.972449427237734 64.48305084742606,60.00002151937224 62.423728813417256,57.52299629081972 55.78813559375703,48.11028407420963 42.974576271139085,51.33042537700385 36.56779661029577,52.32123747607693 33.13559321966022,56.77988837263547 28.10169491544366,57.77069889451377 25.584745761938393,57.77069889451377 21.23728813510388,59.752319077029824 17.11864406708628,69.90810450795107 35.652542372234166,63.71555600082502 32.6779661020264,61.73393811262213 24.440677965059876,60.00002151937224 14.144067795947194,70.65120957558975 13.0,72.13741922797635 47.77966101653874,61.981640411540866 62.423728813417256,63.46785382786766 62.423728813417256,59.00921164266765 57.16101694852114,55.29367205267772 54.644067795947194,48.60569062596187 54.415254237130284,49.10109710600227 52.12711864430457,49.59650351386517 49.15254237316549,50.58731611445546 43.66101694945246,51.57812842843123 40.68644067738205,53.064346361905336 38.16949152480811,54.05515795899555 36.11016949079931,54.05515795899555 18.94915254227817,69.4127010400407 18.262711863964796,68.91729749948718 16.432203388772905,69.16499927896075 18.49152542371303,69.16499927896075 24.21186440717429,67.92649020440876 26.957627118565142,67.18338454491459 30.618644068017602,65.20176866464317 47.3220338979736,63.46785382786766 49.15254237316549,63.46785382786766 51.4406779659912,63.46785382786766 55.78813559375703,62.72474720003083 66.54237288143486,61.4862357955426 52.58474576193839,49.10109710600227 52.58474576193839,48.853393874363974 48.923728813417256,49.10109710600227 47.093220338225365,49.10109710600227 44.34745762683451,60.4954263495747 43.66101694945246,59.752319077029824 37.25423728860915,61.4862357955426 34.96610169392079,63.220151636749506 29.474576270207763,65.20176866464317 29.245762711390853,64.70636451477185 25.12711864337325,64.70636451477185 21.694915253669024,65.44947071233764 18.720338982529938,65.44947071233764 17.11864406708628,60.74312873836607 18.720338982529938,63.96325815585442 18.262711863964796,64.70636451477185 17.576271186582744,62.229342692065984 17.11864406708628,59.00921164266765 16.661016948521137,63.220151636749506 17.34745762590319,63.46785382786766 17.576271186582744,62.229342692065984 17.34745762590319,62.72474720003083 18.033898304216564,60.4954263495747 17.34745762590319,59.752319077029824 18.49152542371303,59.752319077029824 19.406779660843313,60.4954263495747 18.94915254227817,60.4954263495747 26.72881355881691,66.44027872406878 29.016949152573943,65.20176866464317 29.474576270207763,64.9540665987879 54.186440678313375,62.477044955361634 61.50847457628697,60.4954263495747 63.11016949079931,60.00002151937224 63.79661016911268,60.4954263495747 62.8813559319824,56.53218569699675 61.27966101747006,53.559752197004855 50.754237287677824,49.59650351386517 47.55084745772183,52.07353447843343" stroke="#4dd2ff" stroke-linecap="round" stroke-linejoin="round" stroke-width="0.5"><title>2022-08-01 4.0km</title></polyline><polyline fill="none" points="164.34117647167295,51.747156077763066 164.12941176537424,51.97640288970433 164.12941176537424,51.97640288970433 164.55294117704034,52.4348964644596 164.55294117704034,52.4348964644596 166.24705882370472,51.28866240312345 162.85882353037596,49.91318098292686 155.87058823555708,49.68393402104266 145.28235294204205,66.87741009751335 168.1529411766678,67.3359015150927 184.88235294166952,52.66414322680794 181.28235294111073,49.91318098292686 180.64705882407725,50.600921767996624 181.28235294111073,50.600921767996624 180.01176470611244,50.37167485570535 176.4117647074163,50.37167485570535 152.69411764852703,48.07920482615009 144.22352941334248,65.96042706188746 144.22352941334248,66.18967284611426 151.6352941179648,61.60475402115844 158.2000000011176,61.146261773770675 165.40000000130385,64.81419789558277 166.88235294166952,64.81419789558277 169.63529411889613,65.04344376176596 171.1176470592618,65.04344376176596 173.0235294122249,65.27268961211666 175.35294117685407,64.81419789558277 181.28235294111073,65.50193544547074 183.82352941296995,61.37550790607929 178.52941176481545,48.76694600912742 177.89411764778197,48.76694600912742 177.25882352981716,48.537698964821175 162.85882353037596,49.91318098292686 157.56470588315278,48.537698964821175 156.71764705888927,47.62071062112227 154.1764705888927,46.01598038105294 149.51764705963433,46.93296918924898 147.40000000037253,48.537698964821175 145.70588235277683,52.4348964644596 146.12941176630557,65.27268961211666 146.12941176630557,66.87741009751335 145.28235294204205,68.25288415164687 145.91764706000686,65.27268961211666 153.54117647185922,62.29249226814136 158.2000000011176,60.45852327812463 165.40000000130385,64.58495201240294 167.94117647130042,66.18967284611426 169.00000000093132,66.18967284611426 169.63529411889613,66.4189186131116 172.1764705888927,66.4189186131116 172.81176470592618,66.4189186131116 175.35294117685407,67.3359015150927 176.62352941185236,67.79439286701381 178.10588235408068,57.01982856099494 177.89411764778197,52.89338997239247 178.74117647111416,52.89338997239247 178.74117647111416,52.4348964644596 172.6000000005588,50.142427927814424 164.76470588333905,50.37167485570535 157.1411764714867,51.05941554158926 156.71764705888927,49.68393402104266 155.2352941185236,48.76694600912742 153.7529411772266,48.30845190351829 151.00000000186265,48.537698964821175 149.9411764703691,49.68393402104266 144.01176470611244,54.72736334241927 143.80000000074506,65.50193544547074 143.80000000074506,66.4189186131116 148.45882353093475,63.20947636477649 148.88235294166952,62.29249226814136 154.81176470592618,60.687769460259005 156.2941176481545,60.000030865194276 164.55294117704034,65.27268961211666 166.67058823537081,65.50193544547074 169.2117647062987,65.50193544547074 172.1764705888927,64.81419789558277 173.0235294122249,63.897214263211936 174.5058823544532,63.20947636477649 180.85882352944463,58.85379954148084 183.18823529407382,53.3518834146671 182.12941176537424,51.97640288970433 179.58823529444635,49.454687043093145 178.95294117648154,49.225440048612654 178.52941176481545,49.68393402104266 176.62352941185236,49.225440048612654 176.2000000011176,48.76694600912742 169.00000000093132,50.142427927814424 167.517647058703,50.37167485570535 170.0588235296309,64.81419789558277 170.482352941297,65.27268961211666 171.5411764709279,65.73118126229383 172.38823529426008,65.96042706188746 172.81176470592618,65.96042706188746 174.08235294092447,64.81419789558277 185.30588235333562,55.18585651833564 186.36470588296652,53.3518834146671 186.5764705883339,52.89338997239247 185.72941176500171,51.05941554158926 179.58823529444635,49.225440048612654 178.52941176481545,49.225440048612654 178.10588235408068,48.996193036902696 176.83529411815107,49.454687043093145 176.2000000011176,49.225440048612654 176.2000000011176,49.225440048612654 174.29411764722317,49.225440048612654 166.88235294166952,49.68393402104266 163.07058823574334,50.600921767996624 153.964705882594,49.91318098292686 152.482352941297,51.97640288970433 143.58823529537767,53.581130110425875 144.64705882407725,56.33208916964941 139.9882352957502,68.02363851759583 138.50588235352188,68.71137537108734 136.60000000149012,69.39911207510158 133.8470588242635,69.62835760950111 133.42352941352874,69.85760312783532 133.0,71.69156667566858 133.42352941352874,73.98401961917989 158.2000000011176,55.18585651833564 158.62352941278368,55.18585651833564 160.95294117741287,54.72736334241927 167.09411764796823,64.12646019598469 168.36470588296652,63.897214263211936 169.63529411889613,63.438722347375005 172.6000000005588,62.52173831732944 173.87058823555708,61.60475402115844 174.5058823544532,62.063246202189475 174.5058823544532,62.063246202189475 182.12941176537424,58.85379954148084 185.72941176500171,53.810376790352166 185.0941176470369,53.12263670214452 184.03529411833733,51.747156077763066 182.55294117610902,49.91318098292686 182.76470588240772,49.91318098292686 181.07058823574334,50.83016866305843 180.64705882407725,50.83016866305843 176.4117647074163,50.37167485570535 171.1176470592618,50.83016866305843 165.40000000130385,62.29249226814136 167.09411764796823,64.58495201240294 173.0235294122249,65.27268961211666 181.28235294111073,62.980230365647 185.94117647130042,56.561335649574175 187.0,53.581130110425875 186.36470588296652,54.03962345328182 185.517647058703,53.12263670214452 183.40000000037253,51.97640288970433 181.28235294111073,48.76694600912742 179.80000000074506,48.996193036902696 179.37647058814764,48.30845190351829 177.25882352981716,49.91318098292686 174.29411764722317,50.37167485570535 173.6588235301897,50.83016866305843" stroke="#4dd2ff" stroke-linecap="round" stroke-linejoin="round" stroke-width="0.5"><title>2022-07-20 3.6km</title></polyline><polyline fill="none" points="38.38461538404226,113.0050664038863 37.92307692300528,113.50470680114813 37.461538462899625,113.50470680114813 36.76923076901585,113.50470680114813 36.76923076901585,113.75452697277069 34.23076923098415,108.25847901799716 36.07692307699472,108.75812010257505 21.53846153896302,118.25128697324544 14.615384615026414,125.24623533058912 13.692307692021132,128.99352326337248 13.92307692207396,129.24334231438115 13.692307692021132,129.49316134676337 22.923076923005283,124.99641599040478 32.38461538404226,124.49677725578658 49.46153846103698,120.24984509288333 50.846153846010566,119.75020567141473 51.5384615380317,120.74948444217443 58.4615384619683,122.49822159530595 62.84615384694189,115.75308769661933 58.4615384619683,109.50758159416728 57.07692307792604,107.50901725585572 48.5384615380317,111.50614477670752 46.92307692300528,111.7559650929179 42.53846153896302,111.50614477670752 41.84615384694189,111.7559650929179 41.615384615026414,111.50614477670752 25.69230769108981,119.00074640358798 22.923076923005283,118.75092661124654 13.0,128.24406600208022 13.230769230052829,129.49316134676337 13.92307692207396,129.49316134676337 21.769230768084526,121.9985824986361 21.53846153896302,120.49966477695853 23.15384615305811,121.74876292352565 37.23076923098415,121.49894333048724 39.07692307699472,124.7465966322925 41.153846153989434,125.49605465307832 44.384615384973586,124.24695786181837 46.92307692300528,123.99713844922371 58.69230769202113,128.24406600208022 61.92307692300528,113.25488661159761 61.692307692952454,111.25632444233634 37.92307692300528,118.25128697324544 36.76923076901585,124.24695786181837 38.846153846010566,126.74515099194832 42.76923076901585,127.494608578505 47.615384615026414,122.49822159530595 49.46153846103698,122.99786061886698 59.61538461595774,121.9985824986361 60.07692307699472,120.00002539134584 62.384615384973586,114.50398737960495 62.84615384694189,114.25416726246476 59.153846153989434,106.75955533003435 49.230769231915474,108.75812010257505 46.0,107.25919663184322 33.76923076901585,109.00794061808847 27.076923076063395,111.25632444233634 25.69230769108981,110.75668371887878 24.538461538031697,112.00578539073467 17.615384615026414,115.25344762369059 16.23076923098415,119.25056617776863 15.999999999068677,127.74442773777992 16.923076923005283,128.24406600208022 16.923076923005283,129.24334231438115 19.69230769202113,123.49749957001768 22.0,120.49966477695853 27.076923076063395,123.74731901823543 32.153846153989434,122.99786061886698 39.5384615380317,131.99135068058968 40.92307692300528,132.74080712813884 44.384615384973586,133.24044466973282 45.76923076994717,128.7437041939702 56.384615384973586,122.99786061886698 60.76923076901585,121.24912371858954 64.69230769295245,114.50398737960495 64.4615384619683,114.25416726246476 56.153846153989434,110.25704292301089 56.153846153989434,110.75668371887878 54.76923076901585,110.25704292301089 48.30769230797887,111.7559650929179 43.23076923098415,112.2556056715548 34.46153846103698,114.75380747951567 34.23076923098415,114.00434712693095 34.23076923098415,114.25416726246476 33.07692307699472,114.75380747951567 22.923076923005283,117.25200747954659 20.153846153989434,117.00218756031245 19.69230769202113,117.00218756031245 17.384615384042263,119.00074640358798 18.30769230797887,129.49316134676337 33.76923076901585,124.24695786181837 39.76923076901585,125.9956932424102 41.38461538590491,125.74587395670824 45.07692307699472,124.7465966322925 46.0,124.49677725578658 46.92307692300528,123.99713844922371 48.30769230797887,125.49605465307832 58.923076923936605,124.49677725578658 60.53846153896302,124.49677725578658 64.4615384619683,117.00218756031245 67.0,112.00578539073467 58.0,111.25632444233634 58.23076923098415,111.50614477670752 58.23076923098415,111.50614477670752 50.384615384973586,111.25632444233634 37.23076923098415,111.50614477670752 35.153846153989434,111.7559650929179 35.615384615026414,111.7559650929179 33.30769230797887,112.50542593351565 19.0,116.00290770549327 17.846153845079243,117.00218756031245 15.307692307047546,120.74948444217443 15.076923076994717,121.49894333048724 15.538461538031697,129.49316134676337 15.769230769015849,128.99352326337248 16.461538460105658,127.99424687842838 16.923076923005283,127.24478940106928 26.615384615026414,120.99930408969522 31.69230769202113,120.00002539134584 37.69230769202113,128.4938851071056 37.92307692300528,128.24406600208022 37.92307692300528,127.99424687842838 39.07692307699472,126.99497020523995 41.84615384694189,125.24623533058912 44.153846153989434,125.49605465307832 57.30769230797887,122.74804111546837 59.84615384694189,124.24695786181837 59.61538461595774,123.24768010317348 61.92307692300528,118.50110680120997 64.23076923191547,117.50182738015428 63.53846153896302,117.50182738015428 58.4615384619683,114.25416726246476 57.07692307792604,113.75452697277069 51.5384615380317,113.25488661159761 40.69230769202113,125.24623533058912 42.07692307699472,128.7437041939702 45.5384615380317,130.49243729701266 49.46153846103698,125.24623533058912 49.46153846103698,124.7465966322925 59.61538461595774,122.49822159530595 61.692307692952454,121.74876292352565 64.9230769239366,114.00434712693095 62.153846153989434,122.24840205605142 56.384615384973586,113.75452697277069 55.23076923098415,113.50470680114813 49.46153846103698,113.0050664038863 49.0,113.50470680114813 35.615384615026414,111.25632444233634 30.999999999068677,115.00362756103277 25.461538461968303,118.25128697324544 21.53846153896302,117.50182738015428 21.769230768084526,117.50182738015428 21.307692307047546,118.00146712688729 14.153846153989434,126.24551250995137 15.307692307047546,126.74515099194832 15.076923076994717,130.24261833680794 15.076923076994717,130.74225623975508 15.999999999068677,130.24261833680794 15.538461538031697,130.74225623975508 25.23076923005283,124.24695786181837 28.692307692952454,125.74587395670824 31.23076923098415,125.49605465307832 32.846153846010566,121.24912371858954 37.69230769202113,121.74876292352565 38.61538461595774,126.99497020523995 39.5384615380317,126.99497020523995 46.23076923098415,124.49677725578658 47.615384615026414,124.24695786181837 52.23076923098415,124.49677725578658 57.53846153896302,122.24840205605142 64.9230769239366,115.25344762369059 60.76923076901585,116.00290770549327 59.84615384694189,110.50686333025806 59.84615384694189,111.00650408910587 39.76923076901585,112.00578539073467 39.30769230797887,111.50614477670752 31.461538461968303,114.25416726246476 29.846153846010566,112.2556056715548 27.76923076901585,112.00578539073467 19.0,122.49822159530595 18.076923076994717,123.24768010317348 15.999999999068677,128.99352326337248 19.69230769202113,127.74442773777992 22.69230769202113,127.24478940106928 24.30769230797887,127.494608578505 25.23076923005283,127.24478940106928" stroke="#4dd2ff" stroke-linecap="round" stroke-linejoin="round" stroke-width="0.5"><title>2022-07-16 4.7km</title></polyline><polyline fill="none" points="160.72321428637952,117.12931624846533 161.68749999906868,115.04153436701745 158.0714285708964,114.25861584953964 158.0714285708964,110.6049938548822 158.31249999906868,110.86596697708592 158.5535714291036,111.38791316561401 158.79464285820723,110.34402071381919 157.8303571427241,111.38791316561401 151.8035714281723,113.21472422895022 144.0892857145518,115.56347995088436 140.4732142854482,120.00001436262392 147.7053571427241,124.6975154383108 157.3482142854482,124.17557117668912 156.3839285708964,124.17557117668912 160.96428571362048,128.3511231553275 164.09821428637952,128.09015129879117 167.23214285634458,120.52195922867395 179.28571428637952,117.12931624846533 180.7321428572759,116.08542545884848 181.6964285718277,110.6049938548822 179.28571428637952,112.17083230614662 171.8125,113.99764297297224 166.75,112.95375127671286 160.0,111.38791316561401 159.5178571427241,111.90985927847214 149.875,116.86834358004853 146.9821428572759,117.12931624846533 142.8839285718277,117.12931624846533 142.6428571427241,117.65126153058372 141.1964285708964,119.21709692222066 137.0982142854482,123.91459901700728 137.3392857145518,125.21945962449536 135.1696428572759,129.6559821574483 135.8928571427241,129.13403861341067 135.4107142854482,129.6559821574483 139.2678571427241,127.82917942269705 155.1785714291036,125.21945962449536 159.2767857145518,122.08779337420128 160.4821428572759,123.91459901700728 165.3035714281723,125.21945962449536 166.9910714281723,121.82682106364518 171.8125,119.73904190096073 183.1428571427241,112.69277830491774 181.2142857145518,112.17083230614662 177.8392857145518,112.17083230614662 160.96428571362048,112.69277830491774 162.1696428572759,113.99764297297224 161.2053571427241,113.73667007731274 159.0357142854482,111.38791316561401 157.1071428572759,112.17083230614662 154.21428571362048,112.43180531519465 153.0089285718277,112.43180531519465 148.1875,114.51958870724775 144.8125,118.17320673679933 138.5446428572759,123.39265464246273 137.5803571427241,130.177925625816 143.6071428572759,128.87306681321934 146.49999999906868,128.6120949939359 151.8035714281723,124.43654331658036 154.6964285718277,123.13168242620304 153.25,123.13168242620304 156.3839285708964,122.60973793803714 159.2767857145518,122.87071019178256 161.4464285718277,124.95848754048347 162.4107142854482,124.17557117668912 163.1339285708964,124.17557117668912 164.5803571427241,123.39265464246273 168.1964285718277,121.5658487349283 170.125,120.78293163352646 171.5714285718277,121.3048763864208 179.0446428572759,122.60973793803714 181.2142857145518,120.78293163352646 186.7589285718277,114.25861584953964 187.0,114.25861584953964 186.7589285718277,113.99764297297224 180.0089285708964,110.6049938548822 180.24999999906868,112.69277830491774 173.5,116.08542545884848 169.8839285718277,113.73667007731274 164.09821428637952,109.82207437418401 155.6607142854482,113.21472422895022 137.3392857145518,124.17557117668912 133.2410714291036,130.177925625816 135.8928571427241,129.91695390129462 142.8839285718277,126.00237576221116 150.1160714281723,121.04390401975252 150.83928571362048,119.73904190096073 146.9821428572759,124.95848754048347 156.14285714179277,122.34876566496678 163.85714285634458,124.95848754048347 171.8125,122.34876566496678 171.5714285718277,122.34876566496678 183.62499999906868,120.00001436262392 184.1071428572759,113.47569716232829 179.0446428572759,110.34402071381919 175.9107142854482,111.38791316561401 174.46428571362048,112.17083230614662 168.4375,113.73667007731274 166.5089285708964,113.21472422895022 160.4821428572759,114.25861584953964 153.7321428572759,115.30250716814771 148.4285714291036,115.56347995088436 146.7410714281723,115.56347995088436 144.5714285708964,117.65126153058372 143.12499999906868,119.47806942113675 138.78571428637952,121.5658487349283 138.3035714281723,122.34876566496678 136.375,126.26334777008742 140.7142857145518,127.30723561393097 140.4732142854482,127.56820752727799 146.0178571427241,124.6975154383108 145.7767857145518,124.6975154383108 149.1517857145518,124.17557117668912 157.8303571427241,124.6975154383108 159.7589285708964,127.56820752727799 167.7142857145518,122.08779337420128 167.23214285634458,122.08779337420128 167.4732142854482,121.5658487349283 166.75,122.08779337420128 167.7142857145518,122.08779337420128 167.9553571427241,122.34876566496678 177.1160714291036,123.91459901700728 178.5625,121.04390401975252 180.0089285708964,119.21709692222066 183.1428571427241,114.25861584953964 180.7321428572759,110.86596697708592 181.2142857145518,110.86596697708592 178.3214285708964,111.64888623077422 178.3214285708964,112.43180531519465 166.2678571427241,116.86834358004853 161.4464285718277,117.12931624846533 160.4821428572759,117.65126153058372 147.4642857145518,119.21709692222066 141.4375,121.82682106364518 136.85714285634458,124.17557117668912 133.0,129.39501039450988 137.3392857145518,127.04626368149184 140.9553571427241,126.78529173019342 150.83928571362048,121.3048763864208 158.79464285820723,126.00237576221116 162.4107142854482,130.177925625816 170.60714285634458,123.39265464246273 172.0535714281723,122.08779337420128 172.5357142854482,121.5658487349283 174.70535714179277,121.04390401975252 174.9464285708964,120.26098680542782 181.2142857145518,112.95375127671286 180.7321428572759,112.43180531519465 179.28571428637952,111.12694008089602 176.87499999906868,112.17083230614662 174.9464285708964,113.47569716232829 170.3660714281723,117.12931624846533 167.7142857145518,118.17320673679933 165.0625,117.65126153058372 164.09821428637952,117.39028889941983 160.96428571362048,117.9122341426555 155.9017857145518,117.12931624846533 154.6964285718277,117.39028889941983 149.1517857145518,116.60737089207396 144.5714285708964,116.60737089207396 141.4375,119.73904190096073 135.8928571427241,123.39265464246273 136.1339285718277,123.39265464246273 134.4464285718277,129.39501039450988 137.5803571427241,126.52431975957006 137.5803571427241,126.78529173019342 144.8125,121.3048763864208 147.4642857145518,123.13168242620304 149.1517857145518,122.60973793803714 157.1071428572759,123.6536268396303 160.96428571362048,128.09015129879117 168.4375,123.6536268396303 172.2946428572759,122.08779337420128 171.8125,122.60973793803714 171.8125,122.08779337420128 182.1785714281723,119.73904190096073 187.0,112.17083230614662 182.66071428637952,114.7805615470279 163.85714285634458,114.25861584953964 162.4107142854482,114.25861584953964 162.4107142854482,113.99764297297224 160.72321428637952,113.73667007731274" stroke="#4dd2ff" stroke-linecap="round" stroke-linejoin="round" stroke-width="0.5"><title>2022-07-13 4.3km</title></polyline><polyline fill="none" points="42.50000000093132,172.96342052868567 42.0,172.69278198992833 39.75000000093132,170.52767297322862 37.25000000093132,169.71575676859356 16.000000000931323,182.7063948889263 20.75,189.74297169595957 29.500000000931323,187.57787254964933 43.75000000093132,186.22468494717032 62.75,175.6698048415128 61.25,174.04597448860295 57.75,171.88086625537835 51.75,169.4451179942116 45.75000000093132,172.96342052868567 40.25000000093132,175.94044316466898 22.25,181.6238434354309 17.500000000931323,181.6238434354309 41.50000000093132,184.3302214804571 50.25,171.33958900067955 29.500000000931323,174.85788975306787 25.250000000931323,177.56427269475535 18.5,190.55488355224952 23.750000000931323,189.74297169595957 53.250000001862645,187.03659756761044 58.75000000093132,185.9540473681409 64.75,179.72937763808295 43.5,174.5872513516806 35.75,173.50469754822552 29.500000000931323,178.10554904839955 26.250000000931323,180.54129166901112 23.750000000931323,180.54129166901112 15.499999999068677,182.4357570547145 14.500000000931323,183.78894602810033 13.0,190.82552079902962 30.500000000931323,187.03659756761044 32.75,185.9540473681409 46.50000000093132,186.49532250640914 52.75,169.98639552295208 21.750000000931323,178.91746343113482 19.500000000931323,179.4587395885028 13.0,184.05958376382478 17.75,189.47233437071554 25.75,187.84851001179777 27.75,186.76596004632302 35.0,184.60085917753167 61.75000000093132,184.3302214804571 62.50000000093132,182.7063948889263 59.25000000093132,172.96342052868567 57.0,172.15150485304184 41.25,172.96342052868567 38.75000000093132,172.42214343161322 33.25,172.96342052868567 30.75,175.6698048415128 13.5,184.60085917753167 27.25,188.38978487649 30.0,187.57787254964933 50.25,186.22468494717032 60.00000000093132,186.76596004632302 67.0,173.77533602830954 51.25,171.88086625537835 37.0,175.94044316466898 41.00000000093132,183.24767049774528 42.75,184.87149685434997 64.25000000093132,178.64682532288134 57.50000000093132,171.33958900067955 51.25,169.17447920073755 39.00000000093132,173.50469754822552 38.5,182.4357570547145 43.75000000093132,187.03659756761044 46.25,188.11914745392278 50.75000000093132,188.93105966295116 52.50000000093132,188.6604222790338 61.25,182.7063948889263 60.25,172.69278198992833 59.50000000093132,171.33958900067955 57.75,171.88086625537835 56.0,170.79831166868098 53.5,169.98639552295208" stroke="#4dd2ff" stroke-linecap="round" stroke-linejoin="round" stroke-width="0.5"><title>2022-07-11 4.0km</title></polyline><polyline fill="none" points="180.00000000093132,185.68341018026695 167.5,170.52767228730954 165.50000000093132,171.88086566817947 157.5,169.98639479861595 147.25,174.58725096005946 145.5,177.02299604774453 145.0,188.9310603090562 153.75000000093132,185.95404779864475 171.25,188.11914804182015 174.00000000186265,188.6604229065124 178.5,190.5548843163997 182.75000000093132,174.857889381703 175.5,171.06894969870336 161.25,172.15150428540073 157.0,170.52767228730954 149.75,176.48171949922107 141.75000000093132,180.27065369812772 136.24999999906868,189.20169769297354 142.75,188.11914804182015 147.5,188.11914804182015 162.75,185.14213488437235 169.75,188.9310603090562 180.50000000093132,189.47233505686745 184.25000000093132,177.02299604774453 156.5,171.88086566817947 152.25,173.50469707790762 139.25,180.8119296990335 149.25,190.5548843163997 156.25,186.4953229771927 169.50000000093132,188.38978548394516 175.25,189.20169769297354 178.00000000093132,188.9310603090562 183.00000000093132,175.39916616561823 164.75000000093132,172.15150428540073 148.0,178.37618707842194 139.25,180.8119296990335 133.0,188.38978548394516 133.75,190.8255215822719 138.5,190.01360972598195 142.0,189.74297240073793 147.00000000093132,188.38978548394516 154.50000000093132,189.47233505686745 157.75,187.30723559763283 159.25,184.87149720755406 159.25,185.41277254233137 161.25,185.14213488437235 163.5,186.76596053643152 165.75,188.38978548394516 167.75,190.28424703120254 172.75,182.97703291894868 173.25000000093132,180.54129170812666 176.25000000093132,178.37618707842194 178.75000000093132,179.4587395498529 185.5,177.56427251920104 187.0,173.50469707790762 171.50000000093132,169.17447841796093" stroke="#4dd2ff" stroke-linecap="round" stroke-linejoin="round" stroke-width="0.5"><title>2022-07-08 2.5km</title></polyline><polyline fill="none" points="26.10679611749947,242.69588225055486 25.058252427726984,242.4121066981461 24.009708739817142,242.4121066981461 20.864077671431005,241.27700428618118 18.24271844699979,241.84455553349108 13.262135922908783,247.23628828534856 16.40776699129492,250.35781438532285 25.844660194590688,250.07403938798234 57.30097087379545,245.24986129184254 38.16504854429513,230.77729139477015 36.33009708765894,231.34484416199848 34.23300970997661,232.479949449189 30.30097087379545,237.58791917632334 13.524271844886243,244.96608592476696 14.31067961268127,248.65516409371048 26.893203884363174,248.65516409371048 53.89320388343185,245.81741196429357 65.42718446627259,242.97965778107755 67.0,238.72302265651524 63.85436893161386,233.89883059589192 58.087378641590476,229.64218561444432 38.951456311158836,230.49351498065516 18.76699029188603,240.42567726108246 25.844660194590688,248.65516409371048 37.640776698477566,245.53363663866185 40.0,244.3985351291485 66.47572815604508,242.69588225055486 65.42718446627259,236.45281536784023 60.70873786415905,231.62862051441334 51.27184466086328,231.62862051441334 46.553398058749735,233.04750196938403 36.592233010567725,233.33127819909714 26.63106796145439,240.9932286317926 14.04854369070381,244.3985351291485 19.291262136772275,249.22271427256055 19.553398058749735,248.65516409371048 19.815533980727196,248.65516409371048 27.679611651226878,248.37138897250406 29.252427184954286,248.37138897250406 30.30097087379545,248.37138897250406 33.184466019272804,246.952513062628 40.26213592290878,244.3985351291485 42.62135922443122,242.97965778107755 44.98058252502233,246.1011872694362 51.009708737023175,247.52006348851137 52.84466019459069,247.23628828534856 53.89320388343185,247.23628828534856 57.03883495088667,247.52006348851137 58.6116504855454,247.80383867071941 60.184466019272804,247.80383867071941 63.06796116475016,247.80383867071941 66.47572815604508,239.57435005134903 61.757281553931534,235.60148729546927 35.01941747684032,229.64218561444432 17.718446603044868,250.07403938798234 20.864077671431005,249.22271427256055 33.184466019272804,249.22271427256055 36.592233010567725,247.23628828534856 37.37864077836275,246.3849625538569 37.90291262231767,243.26343329204246 33.44660194218159,239.29057427379303 27.94174757320434,240.14190154499374 26.36893203854561,240.7094529562164 25.058252427726984,240.7094529562164 23.74757281690836,240.7094529562164 21.65048543829471,240.42567726108246 20.33980582561344,240.14190154499374 20.33980582561344,240.42567726108246 13.0,247.52006348851137 18.76699029188603,246.952513062628 19.291262136772275,247.23628828534856 27.417475729249418,249.50648933183402 28.728155340068042,246.66873781871982" stroke="#4dd2ff" stroke-linecap="round" stroke-linejoin="round" stroke-width="0.5"><title>2022-06-28 2.7km</title></polyline><polyline fill="none" points="162.31428571417928,230.14568485016935 160.77142857015133,230.81377539015375 156.14285714365542,233.48613658663817 153.9828571435064,236.4925410822034 152.4400000013411,239.16489898995496 146.88571428507566,249.85431514983065 172.8057142868638,243.50747729022987 181.44571428745985,246.51387525955215 155.5257142856717,233.15209152153693 133.0,240.83512189611793 140.09714285843074,247.8500515059568 147.19428571499884,246.51387525955215 187.0,248.8521834372077 133.30857142806053,245.84578699059784 150.8971428591758,247.5160074797459 153.05714285746217,248.5181394838728 155.21714285761118,246.17983113694936 155.8342857155949,244.1755658967886" stroke="#4dd2ff" stroke-linecap="round" stroke-linejoin="round" stroke-width="0.5"><title>2022-06-21 1.3km</title></polyline></svg>