<?xml version="1.0" encoding="utf-8" ?>
<svg baseProfile="full" height="300mm" version="1.1" viewBox="0,0,200,300" width="200mm" xmlns="http://www.w3.org/2000/svg" xmlns:ev="http://www.w3.org/2001/xml-events" xmlns:xlink="http://www.w3.org/1999/xlink"><defs /><rect fill="#222222" height="300" width="200" x="0" y="0" /><text fill="#FFFFFF" style="font-size:12px; font-family:Arial; font-weight:bold;" x="10" y="20">Over 2km Runs</text><text fill="#FFFFFF" style="font-size:4px; font-family:Arial" x="10" y="280">ATHLETE</text><text fill="#FFFFFF" style="font-size:9px; font-family:Arial" x="10" y="290">Kris</text><text fill="#FFFFFF" style="font-size:4px; font-family:Arial" x="120" y="280">STATISTICS</text><text fill="#FFFFFF" style="font-size:3px; font-family:Arial" x="120" y="285">Number: 32</text><text fill="#FFFFFF" style="font-size:3px; font-family:Arial" x="120" y="290">Weekly: 1.8</text><text fill="#FFFFFF" style="font-size:3px; font-family:Arial" x="141" y="285">Total: 92.3 km</text><text fill="#FFFFFF" style="font-size:3px; font-family:Arial" x="141" y="290">Avg: 2.9 km</text><text fill="#FFFFFF" style="font-size:3px; font-family:Arial" x="167" y="285">Min: 2.1 km</text><text fill="#FFFFFF" style="font-size:3px; font-family:Arial" x="167" y="290">Max: 5.1 km</text><polyline fill="none" points="19.20388349611312,48.68336128606461 18.60471567325294,48.521203827578574 18.00554785132408,48.521203827578574 16.20804438367486,47.87257387780119 14.710124826990068,48.1968888763804 11.864077670499682,51.277879020315595 13.661581138148904,53.06160822021775 19.054091540165246,52.89945107884705 37.02912621386349,50.1427778811194 26.094313453882933,41.87273793993518 25.045769764110446,42.197053806856275 23.847434119321406,42.8456853996031 21.60055478475988,45.76452524366323 12.013869625516236,49.98062052857131 12.463245492428541,52.08866519643925 19.653259363025427,52.08866519643925 35.081830790266395,50.467092551174574 41.6726768380031,48.84551873221062 42.57142857182771,46.41315580380615 40.77392510417849,43.65647462639026 37.4785020807758,41.224106065463275 26.543689320795238,41.71057998901233 15.009708737954497,47.386101292213425 19.054091540165246,52.08866519643925 25.79472954198718,50.30493522225879 27.142857142724097,49.65630578820128 42.27184466086328,48.68336128606461 41.6726768380031,45.115894495975226 38.97642163652927,42.35921172250528 33.583911234512925,42.35921172250528 30.887656033970416,43.170001125428826 25.195561720058322,43.332158970995806 19.50346740707755,47.71041636110749 12.313453537411988,49.65630578820128 15.30929264985025,52.4129795844201 15.459084604866803,52.08866519643925 15.608876560814679,52.08866519643925 20.10263522900641,51.92650798440445 21.00138696283102,51.92650798440445 21.60055478475988,51.92650798440445 23.248266296461225,51.11572175018955 27.292649098671973,49.65630578820128 28.64077669940889,48.84551873221062 29.988904300145805,50.62924986833241 33.43411927856505,51.44003627926577 34.482662968337536,51.277879020315595 35.081830790266395,51.277879020315595 36.879334257915616,51.44003627926577 37.77808599174023,51.60219352610875 38.67683772556484,51.60219352610875 40.32454923726618,51.60219352610875 42.27184466086328,46.899628600804135 39.57558945938945,44.62942131177988 24.29680998623371,41.224106065463275 14.410540916025639,52.89945107884705 16.20804438367486,52.4129795844201 23.248266296461225,52.4129795844201 25.195561720058322,51.277879020315595 25.644937586970627,50.791407173732296 25.944521497935057,49.00767616694793 23.3980582524091,46.73747101367917 20.252427184022963,47.223943740013056 19.353675450198352,47.548258832190186 18.60471567325294,47.548258832190186 17.855755895376205,47.548258832190186 16.657420250587165,47.386101292213425 15.908460471779108,47.223943740013056 15.908460471779108,47.386101292213425 11.714285714551806,51.44003627926577 15.009708737954497,51.11572175018955 15.30929264985025,51.277879020315595 19.952843273989856,52.57513676118106 20.70180305093527,50.95356446795631" stroke="#4dd2ff" stroke-linecap="round" stroke-linejoin="round" stroke-width="0.5"><title>2022-06-28 2.7km</title></polyline><polyline fill="none" points="68.92182608426083,39.501673744453 67.9965132647776,40.00251305605343 67.80249606061261,40.97187627421226 68.01143766503083,39.340112436548225 68.32485007168725,39.25933173879457 68.38454767293297,39.582454354604124 67.3398396509001,42.89443420711905 66.45930003235117,43.78300580989162 65.5638360134908,46.351765649204026 66.05634122382617,46.96567872041487 65.42951641062973,47.87038964408566 65.71308001660509,50.18061698174279 65.57876041374402,54.25172867675428 65.71308001660509,54.72022486492642 66.08619002444902,54.914085069147404 65.96679482189938,55.689524203568 65.57876041374402,55.948003316880204 65.54891161312116,56.57804490248964 65.5638360134908,59.00126520966296 65.78770201816224,59.76053549758217 65.53398721286794,60.390566330592264 65.69815561629366,61.133677337129484 65.48921401187545,61.47292284439027 65.65338241535937,62.5229651973641 65.9220216209651,62.57142857143481 65.9220216209651,55.67336924908159 58.22103105863789,55.495664672373096 58.92247787350789,47.14339008394745 58.78815827064682,46.561788731924025 59.01202427537646,39.792483804092626 59.385134283220395,39.6470788216393 62.50433394894935,40.56797544473375 63.3848735675565,40.61644358285412 64.5489767920808,37.062085550191114 65.1608772049658,33.4915143733233 65.69815561629366,32.48980541451601 65.69815561629366,32.02126258444332 64.96686000091722,31.714285714289872" stroke="#4dd2ff" stroke-linecap="round" stroke-linejoin="round" stroke-width="0.5"><title>2022-06-12 5.1km</title></polyline><polyline fill="none" points="98.73929961072281,45.128173744422384 98.61923290695995,47.85778352920897 86.85269594285637,45.90806267771404 87.93329627532512,51.49725678889081 100.6603668704629,37.4592478601262 98.01889938861132,40.4488330319291 110.74596998328343,36.93931949615944 105.22290161205456,37.71921198582277 96.93829905521125,48.637671277159825 98.97943301824853,52.407123951241374 89.61423012753949,50.32742690271698 100.30016675917432,36.93931949615944 97.0583657589741,38.88905008521397 97.29849916649982,40.058887422201224 100.18010005541146,39.14901400345843 98.01889938861132,40.83877855702303 101.6209005001001,41.61866935330909 109.18510283483192,39.27899594884366 110.50583657575771,41.488687577540986 101.98110061138868,43.56839486141689 97.65869927732274,53.05702878499869 96.09783212840557,50.58738916530274 95.25736520299688,53.1870097235078 92.25569761032239,52.537104936898686 103.42190105607733,45.128173744422384 103.06170094478875,43.17844992899336 107.3841022788547,44.218302894267254 93.69649805454537,46.817932671750896 98.25903279567137,38.499104136717506 93.3362979432568,46.16802558011841 101.38076709304005,44.47826604091097 104.02223457442597,44.73822915065102 102.3413007222116,46.94791406195145 96.93829905521125,48.117746149539016 96.33796553686261,45.128173744422384 95.37743190675974,46.68795127235353 84.57142857136205,44.218302894267254 92.7359644244425,56.69649150792975 91.77543079480529,57.346394789638 103.66203446313739,43.958339709206484 102.2212340189144,41.87863287643995 99.45969983329996,42.008614624268375 104.26236798195168,39.538959810859524 112.4269038354978,49.15759625437204 100.90050027752295,47.467839528108016 114.22790439147502,51.10731357813347 110.14563646446913,41.098742193426006 108.82490272354335,47.85778352920897 102.3413007222116,50.717370282742195 103.18176764901727,52.14716195198707 109.90550305694342,44.47826604091097 107.74430239014328,43.56839486141689 109.54530294565484,44.47826604091097 109.30516953859478,41.87863287643995 111.94663702044636,39.408977884449996 113.98777098348364,39.408977884449996 115.42857142863795,41.87863287643995" stroke="#4dd2ff" stroke-linecap="round" stroke-linejoin="round" stroke-width="0.5"><title>2022-05-22 3.4km</title></polyline><polyline fill="none" points="138.0246305409819,46.64919660042506 136.2005629837513,44.83905879268423 139.3926812093705,42.04157025553286 146.38494018279016,42.37068673258182 143.95285010524094,43.028919543954544 145.92892329301685,49.28212174796499 142.88881069608033,53.23150375240948 138.7846586909145,53.560618609772064 139.3926812093705,50.76314080366865 136.6565798735246,52.73783137684222 136.5045742429793,47.471986036747694 131.03237156849355,54.054290806292556 126.77621393278241,51.75048630463425 125.4081632643938,54.877077562734485 122.06403940822929,51.5859287509229 127.99225897155702,43.85171029041521 132.24841660726815,45.33273288339842 142.43279380630702,43.028919543954544 145.77691766340286,39.408636723062955 151.85714285634458,44.01626840385143 151.09711470734328,42.53524495358579 147.60098522156477,46.155522795859724 141.36875439807773,47.307428173022345 142.73680506646633,48.45933296682779 132.09641097765416,48.95300627115648 122.52005629707128,53.39606118691154 121.0,51.092256018309854 127.23223082255572,47.965659555164166 128.44827586133033,44.83905879268423 133.61646727565676,49.11756401567254 133.16045038681477,51.75048630463425 144.86488388478756,50.269467892474495 150.33708655834198,45.33273288339842 141.0647431379184,44.67450073850341 135.744546093978,49.11756401567254 128.60028149094433,47.471986036747694 127.23223082255572,50.76314080366865 122.6720619276166,52.2441588944057 125.86418015416712,51.91504384658765 124.34412385616452,48.29477517504711 132.70443349704146,53.88973341928795 142.73680506646633,49.775794873829 142.12878254707903,47.965659555164166 147.29697396140546,50.269467892474495 150.7931034481153,46.81375451129861 144.86488388478756,45.49729088973254 146.38494018279016,51.092256018309854 142.28078817669302,46.32008074235637 141.36875439807773,47.965659555164166 146.38494018279016,50.927698416868225 147.75299085117877,47.965659555164166 145.16889514401555,45.99096483748872 144.10485573485494,48.29477517504711 145.92892329301685,46.155522795859724 136.80858550220728,48.95300627115648 145.32090077456087,45.661848883959465 142.12878254707903,50.59858317824546" stroke="#4dd2ff" stroke-linecap="round" stroke-linejoin="round" stroke-width="0.5"><title>2022-05-05 2.2km</title></polyline><polyline fill="none" points="176.78195488778874,42.893954823259264 169.87969924882054,43.33349782368168 165.54887218074873,47.28938053257298 160.1353383460082,48.16846452921163 157.96992481220514,51.53828297974542 160.1353383460082,53.296446900698356 173.12781954929233,47.728922578739 176.9172932333313,50.21965903660748 184.90225563943386,50.65920044656377 187.60902255633846,48.75452031486202 183.00751879718155,42.893954823259264 169.06766917323694,42.74744046875276 166.90225563943386,46.70332432293799 160.00000000046566,48.021950556430966 158.10526315821335,50.366172850481234 159.5939849629067,52.710392430075444 163.92481203051284,50.073145212372765 169.60902255680412,50.65920044656377 173.12781954929233,47.87543657270726 177.18796992534772,52.856906063854694 186.93233082722872,50.21965903660748 187.47368421126157,45.384697230299935 183.14285714318976,41.57532524946146 176.64661654178053,40.98926738509908 169.60902255680412,43.4800121356966 167.0375939849764,47.43589455867186 161.6240601511672,47.28938053257298 157.69924812065437,52.563878786051646 166.6315789478831,51.9778241032036 174.3458646624349,48.75452031486202 175.96992481220514,51.24525551102124 185.98496240610257,49.78011753153987 187.47368421126157,46.26378205418587 179.3533834591508,42.014868535799906 168.5263157901354,44.35909778671339 164.46616541361436,47.87543657270726 158.78195488732308,48.16846452921163 158.24060150468722,52.27085146564059 168.7969924812205,51.24525551102124 173.5338345868513,47.87543657270726 178.27067669248208,51.09874176082667 183.68421052675694,49.34057593077887 188.01503759389743,45.82423968985677 185.17293233098462,46.410296154092066 180.03007518826053,42.74744046875276 174.88721804507077,45.53121139423456 169.87969924882054,42.74744046875276 166.76691729342565,47.43589455867186 159.8646616539918,48.021950556430966 157.42857142863795,51.24525551102124 159.5939849629067,53.00341968657449 162.97744360938668,50.51268665387761 169.47368421033025,50.51268665387761 172.04511278262362,46.849838391062804 177.86466165445745,50.073145212372765 185.03759398544207,49.194062042748556 188.28571428591385,46.55681024398655 186.93233082722872,49.34057593077887 180.16541353426874,43.33349782368168 177.45864661736414,44.50561202503741 170.42105263192207,42.45441172725987 165.68421052629128,46.9963524491759 160.54135338356718,47.43589455867186 158.10526315821335,52.27085146564059 166.36090225540102,52.41736513108481 173.12781954929233,49.04754814412445 182.19548872159794,52.12433778983541 186.52631578966975,48.60800638445653 183.2781954887323,44.06606927909888" stroke="#4dd2ff" stroke-linecap="round" stroke-linejoin="round" stroke-width="0.5"><title>2022-04-21 3.2km</title></polyline><polyline fill="none" points="35.31092436937615,83.01572980859783 29.307045895140618,85.43420576339122 27.07304460229352,83.77150384522974 16.46153846103698,88.00383339659311 22.325791855342686,79.53916571720038 36.56755009666085,78.48107984510716 33.07692307699472,85.1318964221282 26.654169359710068,85.43420576339122 19.952165481634438,89.96884062967729 20.23141564289108,84.07381338358391 23.582417582627386,78.32992467656732 26.514544278848916,79.84147586743347 29.72592113725841,76.81837239128072 38.66192630911246,74.85335278441198 38.52230122778565,73.19064244208857 41.035552682355046,81.50418091472238 36.4279250157997,79.84147586743347 27.631544925272465,80.44609603798017 19.952165481634438,87.24806089128833 19.393665157724172,88.9107600414427 21.906916612759233,88.30614232178777 21.62766645103693,92.99192507041153 22.88429217832163,86.03882431436796 21.348416288848966,82.56226525537204 29.86554621811956,82.86457496858202 36.846800258383155,73.94642003474291 41.59405300579965,71.67908643686678 40.616677440237254,73.19064244208857 42.57142857136205,73.79526453814469 36.846800258383155,80.14378597482573 20.23141564289108,85.73651506076567 18.276664511766285,89.66653194499668 20.091790562029928,80.14378597482573 24.28054298646748,77.1206829356961 31.680672268848866,77.72530389332678 37.68455074261874,74.55104191158898 38.9411764703691,79.99263092700858 31.820297349244356,84.98074173519854 28.32967032957822,80.14378597482573 31.401422107126564,83.92265862005297 19.393665157724172,88.15498786466196 22.605042016599327,85.28305109823123 21.906916612759233,79.99263092700858 28.19004524825141,76.21375117043499 32.79767291480675,77.42299343657214 39.77892695507035,74.24873099499382 40.33742727804929,76.06259583809879 34.8920491267927,80.44609603798017 29.167420814745128,80.44609603798017 29.44667097600177,78.02761430689134 24.140917905140668,82.4111103824107 21.208791208919138,81.0507160333218 16.60116354189813,90.4223035746254 20.51066580461338,79.08570040890481 23.442792501300573,77.1206829356961 37.963800905272365,73.34179798269179 42.29217841010541,79.23685552238021 19.812540400773287,87.09690635767765 13.948287006933242,79.53916571720038 11.714285714086145,82.2599554983899 12.831286360975355,87.24806089128833 15.06528765335679,87.85267891711555 16.880413703620434,75.60912977496628 23.163542340043932,73.94642003474291 26.095669036731124,76.21375117043499 38.10342598520219,69.86521778674796 38.52230122778565,73.19064244208857 34.75242404686287,74.85335278441198 28.748545572161674,84.22496813593898 37.26567550050095,76.51606180274393 40.756302520632744,77.27183819143102 37.963800905272365,78.6322350022383 39.2204266320914,79.84147586743347" stroke="#4dd2ff" stroke-linecap="round" stroke-linejoin="round" stroke-width="0.5"><title>2022-04-18 3.7km</title></polyline><polyline fill="none" points="58.28767123259604,84.28861026198138 56.174168297089636,83.48780269350391 55.645792562980205,84.97501642617863 69.06653620349243,78.22534286498558 72.23679060582072,79.82696292852052 75.72407044982538,77.31013067136519 78.47162426542491,78.22534286498558 70.12328767077997,82.11498877534177 68.74951076321304,81.7717851094203 74.24461839487776,77.31013067136519 59.34442270034924,84.51741234981455 53.426614481490105,81.5429826239124 64.20547945192084,80.85657496936619 63.88845401164144,82.34379117761273 69.48923678975552,78.33974435192067 72.13111545937136,81.6573838707991 73.82191780768335,79.7125615492696 78.99999999953434,84.97501642617863 57.23091976484284,84.86061541968957 57.970645792316645,86.11902603751514 56.913894324563444,86.23342695320025 56.279843444470316,83.83100598677993 55.223091976717114,84.74621440446936 56.913894324563444,87.03423313051462 63.25440313061699,78.5685473009944 70.44031311105937,80.85657496936619 75.51272015599534,79.7125615492696 75.82974559627473,81.08537755405996 67.4814090016298,83.37340157921426 67.27005870826542,81.7717851094203 65.15655577275902,81.5429826239124 57.01956947147846,83.37340157921426 57.23091976484284,81.19977883377578 48.1428571427241,85.43262037006207 66.53033268032596,76.85252437600866 69.80626223050058,78.5685473009944 72.87084148684517,77.65333530597854 75.19569471571594,79.7125615492696 74.13894324796274,77.76773683459032 75.61839530291036,80.0557656622259 60.929549902211875,80.74217366462108 61.8806262225844,82.91579703916796 57.65362035203725,85.66142229258548 57.33659491175786,83.83100598677993 55.43444226961583,83.94540706800763 56.49119373736903,82.00058756163344 68.00978473527357,76.3949179481715 68.43248532246798,79.14055452856701 68.64383561583236,77.76773683459032 69.80626223050058,79.94136429927312 71.28571428498253,79.02615309949033 72.76516633993015,82.00058756163344 70.44031311105937,80.0557656622259 65.68493150640279,81.7717851094203 66.4246575338766,76.96692596212961 64.52250489220023,76.16611468431074 55.85714285681024,83.83100598677993 57.33659491175786,81.8861863395432 56.174168297089636,78.5685473009944 64.94520547892898,75.82290972664487 63.57142857089639,79.14055452856701 69.48923678975552,81.8861863395432 76.04109588963911,76.16611468431074" stroke="#4dd2ff" stroke-linecap="round" stroke-linejoin="round" stroke-width="0.5"><title>2022-04-06 3.4km</title></polyline><polyline fill="none" points="97.19737610965967,72.32640333415475 94.09660074161366,72.58462340186816 100.17889088671654,75.94148087932263 96.95885492768139,80.33120804862119 85.15205641184002,85.108251811238 88.49135296186432,88.46508572052699 88.1335711888969,92.33834776643198 86.7024440956302,85.88290635100566 88.1335711888969,83.30072324327193 97.55515788309276,79.81477011879906 102.56410270789638,71.68085300154053 97.79367906507105,77.49079758417793 98.86702438490465,88.98152114602271 93.3810371956788,90.2726090552751 90.75730419252068,94.01675870793406 95.16994606144726,76.32881018170156 101.72927857050672,66.00000000011642 103.04114507231861,80.84764582884964 101.25223620608449,81.75141158455517 102.68336329888552,81.75141158455517 104.11449039215222,88.33597684057895 109.9582593543455,88.07775905355811 111.50864703813568,90.91815265920013 104.83005393855274,87.1739965028828 100.17889088671654,87.30310546676628 91.47286773845553,94.01675870793406 96.24329138128087,94.27497563546058 100.17889088671654,90.53082652494777 100.41741206916049,87.56132336636074 107.09600516827777,89.75617400370538 112.82051353948191,87.43221442110371 110.55456230975688,86.01201540813781 114.84794358769432,86.27023349481169 109.36195639893413,88.33597684057895 96.83959433622658,88.72330345166847 91.23434655647725,93.6294332460966 92.06917069340125,79.81477011879906 91.94991010334343,86.14112445584033 93.73881896864623,86.78666955570225 102.44484211690724,84.85003355634399 111.7471682196483,86.65756055433303 114.13238004175946,85.108251811238 111.15086526470259,85.88290635100566 111.8664288111031,87.56132336636074 99.34406674932688,88.46508572052699 101.13297561556101,92.08013055834454 101.0137150241062,90.78904395736754 100.41741206916049,92.5965649371501 95.16994606144726,92.5965649371501 91.94991010334343,96.08249308308586 98.86702438490465,87.81954122846946 102.80262389034033,90.01439154800028 109.12343521649018,87.69043230218813 96.24329138128087,92.5965649371501 88.25283177942038,93.11299916624557 89.0876559172757,95.43695134797599 95.40846724389121,96.85714285715949 98.9862849758938,93.37121622485574 106.73822339531034,95.43695134797599 111.38938644714653,93.11299916624557 111.8664288111031,90.14350030641071 101.25223620608449,88.07775905355811 99.9403697042726,91.69280467601493 89.80321946367621,93.88765022996813 97.91293965606019,88.46508572052699 111.98568940255791,89.62706521712244 111.50864703813568,88.07775905355811" stroke="#4dd2ff" stroke-linecap="round" stroke-linejoin="round" stroke-width="0.5"><title>2022-03-20 3.8km</title></polyline><polyline fill="none" points="136.75683890562505,69.77233220636845 125.59574468107894,71.47813269507606 121.0,75.60047775914427 121.65653495443985,79.7228141707601 127.04012158047408,84.55588722112589 142.14042553165928,76.31122603360564 151.06930091185495,76.02692675462458 151.8571428572759,79.58066478359979 145.42310030385852,81.85505374718923 144.63525835843757,84.55588722112589 147.78662613919005,87.39886581280734 151.06930091185495,87.39886581280734 143.84741641301662,85.55093019630294 141.61519756820053,86.83027042355388 147.3927051667124,85.693079151446 148.57446808507666,82.28150138480123 139.77689969586208,83.98729100869969 142.40303951362148,86.54597266728524 148.7057750755921,86.54597266728524 149.7562310025096,84.2715891355183 148.31185410311446,82.13935218274128 141.7465045596473,84.41373818344437 139.77689969586208,86.54597266728524 140.30212765932083,91.23688038380351 143.58480243152007,90.52613751054741 147.3927051667124,84.98233427235391 146.86747720325366,82.42365057673305 140.03951367735863,84.69803624844644 142.66565349511802,86.54597266728524 148.96838905708864,86.11952595575713 149.88753799395636,83.5608437419869 140.30212765932083,83.7029928410193 138.85775075946003,86.11952595575713 142.40303951362148,91.37902892753482 146.07963525829837,88.82035356550477 147.1300911847502,83.5608437419869 144.50395136745647,83.98729100869969 147.78662613919005,85.26663225458469 141.87781154969707,84.2715891355183 139.64559270488098,85.97737703146413 139.51428571389988,91.80547449702863 141.87781154969707,93.08481065079104 145.29179331287742,90.66828610550147 141.08996960427612,85.55093019630294 148.57446808507666,86.40382377395872 150.15015197498724,83.7029928410193 145.29179331287742,82.28150138480123 140.95866261422634,84.12944007734768 145.42310030385852,86.40382377395872 147.5240121576935,84.55588722112589 141.22127659572288,83.98729100869969 142.00911854114383,86.54597266728524 147.91793313017115,86.26167486992199 148.96838905708864,83.98729100869969" stroke="#4dd2ff" stroke-linecap="round" stroke-linejoin="round" stroke-width="0.5"><title>2022-03-13 2.2km</title></polyline><polyline fill="none" points="172.56043955963105,81.50888616545126 161.87912087887526,84.72092640260234 166.92307692207396,84.23912066360936 166.47802197746933,86.0057411956368 172.85714285634458,79.26045523304492 178.04945054929703,80.70587537949905 182.20329670235515,77.97563653427642 188.13736263662577,80.38467098399997 161.13736263662577,89.05717334744986 162.3241758234799,85.68453756719828 168.55494505446404,83.43611086544115 166.47802197746933,86.0057411956368 168.55494505446404,81.34828403173015 180.5714285708964,81.02707972901408 183.09340659249574,77.17262446985114 185.61538461502641,77.01202202192508 185.31868131831288,79.09985293610953 173.005494505167,81.34828403173015 162.62087912019342,88.09356364759151 159.20879120845348,88.09356364759151 167.36813186760992,86.16634299221914 169.29670329671353,76.85141956270672 173.45054944977164,80.22406876843888 183.24175824131817,77.17262446985114 188.2857142854482,80.22406876843888 175.23076923098415,82.15129458496813 159.80219780188054,89.21777492342517 173.74725274648517,80.70587537949905 172.85714285634458,76.85141956270672 175.8241758234799,75.24539432942402 177.45604395586997,78.13623891235329 185.31868131831288,79.09985293610953 176.41758241690695,86.16634299221914 165.58791208732873,82.15129458496813 157.4285714281723,87.77236032113433 158.31868131831288,84.72092640260234 181.7582417577505,78.93925062799826 184.4285714281723,73.6393679336179 185.17032966949046,77.33322690601926 176.8626373624429,78.61804597626906 181.16483516525477,83.59671284863725 185.17032966949046,77.65443174354732 184.28021977934986,74.76358653279021" stroke="#4dd2ff" stroke-linecap="round" stroke-linejoin="round" stroke-width="0.5"><title>2022-03-10 2.4km</title></polyline><polyline fill="none" points="27.266285714227706,117.05052598624025 26.40228571370244,114.37810483376961 23.686857142485678,114.37810483376961 16.89828571397811,117.31776788865682 13.195428571198136,120.791909100255 14.429714285768569,123.19707995583303 23.193142856936902,126.27034926635679 28.500571428332478,123.99880287784617 34.918857142329216,124.53328463237267 42.57142857089639,113.97724132728763 42.20114285685122,108.23152150213718 39.4857142851688,105.15822216204833 27.759999999776483,114.77896825328935 16.281142857391387,117.71863066987135 13.195428571198136,121.05915046122391 16.157714285422117,125.06776623253245 24.180571428034455,121.32639178354293 30.845714285504073,122.92983890429605 38.86857142811641,120.9255297856871 41.213714284822345,114.24448367487639 38.62171428510919,111.57205846044235 14.429714285768569,118.38673511170782 12.45485714264214,123.46432096837088 15.54057142790407,126.00310866010841 21.71199999982491,125.4686273309635 27.636571428272873,121.86087431199849 32.94399999966845,123.06345943501219 40.84342857077718,121.99449491966516 40.47314285673201,113.70999894139823 37.26399999950081,111.17119434464257 16.404571428429335,118.38673511170782 12.331428571138531,122.52897725452203 16.157714285422117,125.86948834208306 23.933714285492897,124.13242333114613 27.759999999776483,119.58932249771897 34.17828571377322,122.662597814342 41.09028571425006,122.26173610659316 41.707428571302444,112.77465028571896 38.374857142567635,111.17119434464257 30.598857142496854,115.0462104845792 25.414857142139226,114.6453471230343 22.329142856877297,117.4513888254296 15.54057142790407,118.38673511170782 12.45485714264214,121.86087431199849 12.825142857152969,124.39966420840938 15.417142856866121,125.06776623253245 24.550857143010944,120.791909100255 28.25371428532526,123.3307004669914 35.53599999984726,122.79621836415026 39.732571428176016,118.92121849092655 39.4857142851688,113.30913528974634 37.51085714250803,111.03757295326795 32.203428571112454,113.97724132728763 26.64914285717532,114.37810483376961 22.08228571387008,117.71863066987135 14.306285714264959,118.78759766090661 11.714285714086145,121.86087431199849 12.45485714264214,124.26604377455078 17.51542857149616,125.4686273309635 25.908571428619325,120.25742626260035 32.57371428562328,122.12811551790219 37.75771428504959,119.85656403261237 40.22628571372479,117.31776788865682 39.855999999213964,111.43843709805515 31.46285714255646,112.90827155124862" stroke="#4dd2ff" stroke-linecap="round" stroke-linejoin="round" stroke-width="0.5"><title>2022-03-06 3.6km</title></polyline><polyline fill="none" points="55.9531713090837,115.43707915826235 53.52045050356537,112.80347072181758 51.47184350900352,117.51624115509912 52.75222288072109,119.87262202298734 66.83639596914873,120.5656746677123 73.87848251312971,116.54596583754756 77.07943094242364,117.93207328370772 75.54297569673508,114.46680278691929 62.99525785399601,114.05096990626771 52.62418494326994,116.68457662709989 51.85595732042566,119.4567903156858 54.032602252438664,121.39733750990126 62.098992293700576,119.4567903156858 67.98873740341514,120.5656746677123 72.5981031418778,117.10040893638507 74.77474807342514,117.51624115509912 76.43924125656486,114.46680278691929 74.13455838756636,115.71430088824127 69.65323058702052,114.05096990626771 66.45228215772659,116.13013340812176 57.10551274381578,115.71430088824127 50.19146413682029,119.31817972671706 51.08772969758138,120.98150613391772 59.666271487250924,116.40735503786709 68.50088915228844,116.68457662709989 74.390634262003,113.21930387336761 76.56727919401601,113.7737479355419 75.28689982183278,115.99152257817332 67.09247184358537,110.58569238695782 60.17842323658988,112.94208178215194 51.59988144598901,120.98150613391772 54.41671606339514,122.22899999131914 62.99525785399601,118.34790532186162 68.50088915228844,119.1795691276202 73.11025488981977,116.96179817663506 75.15886188531294,114.46680278691929 74.5186721989885,111.97180414712057 72.21398933045566,112.80347072181758 68.24481327831745,110.0312474021921 52.496147006284446,114.88263557769824 52.75222288072109,121.95177920442075 53.00829875469208,120.28845363983419 60.30646117357537,117.51624115509912 70.16538233542815,119.4567903156858 72.98221695329994,118.20929465233348 73.49436870217323,112.94208178215194 63.89152341429144,110.0312474021921 51.343805571552366,118.4865159811452 53.77652637753636,121.25872706144582 63.89152341429144,117.10040893638507 68.62892708973959,120.14984311105218 75.54297569673508,116.54596583754756 75.92708950769156,111.69458187499549 55.05690574971959,120.5656746677123 56.465323058422655,123.33788273797836 60.56253704801202,119.59540089475922 63.37937166541815,120.14984311105218 63.12329579144716,116.68457662709989 66.06816834630445,118.90234789915849 75.67101363372058,115.99152257817332 77.59158269129694,112.2490263787331 74.64671013597399,109.6154135579709 71.57379964459687,111.69458187499549 63.251333727966994,112.2490263787331 60.050385299138725,115.99152257817332 54.28867812640965,115.99152257817332 51.21576763410121,119.1795691276202 53.00829875469208,122.64483109675348 57.233550681732595,122.64483109675348 63.12329579144716,117.23901968589053 71.57379964459687,120.70428516645916 77.46354475384578,117.10040893638507 78.23177237669006,111.14013721130323 75.79905157070607,110.44708115572575 63.5074096028693,112.11041526764166 60.17842323658988,115.15985738800373 53.13633669167757,113.63513693504501 54.544754000380635,116.54596583754756 48.1428571427241,117.79346258426085 51.98399525741115,121.67455837747548 59.41019561327994,118.62512663053349 60.69057498499751,119.87262202298734 62.35506816813722,117.3776304256171 67.86069946642965,120.14984311105218 75.92708950769156,119.59540089475922 79.0,113.7737479355419 76.05512744514272,108.09068869042676 75.67101363372058,110.58569238695782 72.7261410788633,112.11041526764166" stroke="#4dd2ff" stroke-linecap="round" stroke-linejoin="round" stroke-width="0.5"><title>2022-02-27 4.2km</title></polyline><polyline fill="none" points="97.33990147896111,119.25230783841107 92.01970443408936,124.02447620627936 87.00351864937693,123.36624668224249 85.78747361060232,119.74598089267965 94.7558057717979,119.74598089267965 95.05981703102589,121.55611450818833 105.70021111983806,111.35352439223789 114.82054890971631,114.15101333451457 109.65235749538988,122.87257441401016 115.42857142910361,106.91044664417859 110.5643912749365,109.21426581952255 103.72413793206215,108.06235652358737 100.68402533512563,116.12570933904499 97.33990147896111,116.12570933904499 97.18789584841579,118.59407693275716 90.19563687592745,120.73332667991053 86.54750176053494,124.84726284374483 101.59605911374092,114.64468749659136 99.771991555579,115.6320354990894 104.78817734122276,122.21434455621056 101.14004222489893,120.40421146526933 108.13230119738728,113.6573390654521 107.98029556684196,122.3789020384429 102.81210415251553,115.6320354990894 90.95566502492875,124.51814822433516 84.57142857182771,124.02447620627936 85.93947924114764,127.15106384351384 84.87543983198702,122.87257441401016 90.04363124631345,113.1636646889383 93.99577762186527,118.10040362842847 101.90007037296891,121.39155696623493 99.3159746658057,104.27750758489128 101.74806474428624,106.74588804226369 104.94018296990544,106.08765351586044 109.50035186577588,116.78394095960539 108.89232934638858,121.72067203803454 101.90007037296891,117.11305669834837 100.07600281573832,120.5687690784689 97.4919071085751,117.44217238947749 90.04363124631345,120.07509620301425 87.61154116876423,125.83460641501006 88.52357494831085,118.75863467727322 95.81984518002719,125.50549193902407 102.05207600351423,125.99916363530792 99.3159746658057,113.1636646889383 100.53201970551163,106.91044664417859 107.37227304838598,108.22691503004171 106.91625615861267,120.23965383984614 108.43631245661527,115.6320354990894 107.06826178822666,117.11305669834837 106.00422237999737,113.49278095201589 113.14848698209971,116.94849883462302" stroke="#4dd2ff" stroke-linecap="round" stroke-linejoin="round" stroke-width="0.5"><title>2022-02-13 2.6km</title></polyline><polyline fill="none" points="141.73377045616508,101.3571697929874 143.99045959487557,102.77148809510982 145.09900864516385,104.61438263411401 147.47447089641355,105.9001196147874 149.21647654729895,109.80017138499534 150.83970908564515,111.21446952933911 148.82056617201306,119.78590119408909 146.52428599609993,122.18587983760517 145.5741010955535,127.92864641395863 144.22800581995398,129.04290810792008 139.35830820491537,128.82862717559328 135.5179775657598,131.1428571428405 132.42987663927488,131.1000011144206 130.1731875007972,130.32859207398724 128.74791014986113,130.88572092616232 128.39159081224352,130.28573598666117 124.78880639793351,129.3857574381982 122.2153889592737,125.22869592672214 122.01743377163075,122.0573097995948 123.64066630997695,119.35733255610103 127.12467761174776,117.51448388013523 128.43118184967898,116.14305788942147 129.46054882532917,112.62876429711469 129.26259363791905,109.92874408315402 131.20255447621457,102.94292038714048 135.3596134155523,100.28571428568102 139.19994405517355,100.9714460336836" stroke="#4dd2ff" stroke-linecap="round" stroke-linejoin="round" stroke-width="0.5"><title>2022-02-12 2.4km</title></polyline><polyline fill="none" points="174.79613870568573,108.89219431264792 169.8516992921941,124.63562314887531 162.77436444582418,128.3090652830433 173.82664078148082,120.2274803040782 174.89308849768713,123.69102223881055 180.32227687397972,121.69686274114065 178.9649797794409,124.42571188870352 181.87347355205566,127.5743776006857 181.0009254203178,128.72888664866332 175.28088766802102,126.62977860483807 170.3364482545294,127.7842884050915 166.36150676524267,126.3149121364113 161.90181631408632,129.04375259322114 162.28961548395455,124.42571188870352 164.713360294234,122.8513764688978 174.4083395358175,126.1050011193147 179.4497287417762,121.4869510558201 177.995481855236,124.74057876761071 179.4497287417762,107.00297136546578 171.79069514060393,112.46071982989088 174.3113897438161,110.78141479799524 173.24494202667847,110.46654488798231 169.2700005378574,125.0554455780657 165.00420967163518,126.3149121364113 163.35606320062652,129.5685290156398 165.10115946410224,125.58022344345227 172.0815445180051,124.32075624715071 177.12293372349814,121.2770393397659 180.51617645844817,120.43739217193797 183.71551960799843,122.32659761561081 183.8124694004655,123.90093360538594 181.4856743826531,124.9504899821477 183.52162002306432,124.00588927720673 183.52162002306432,115.924280315754 175.8625864223577,100.28571428568102 174.60223912075162,104.69391775422264 178.38328102510422,106.58314370957669 168.78525157552212,131.1428571428405 171.2089963867329,126.94464500527829 166.1676071807742,124.84553437854629 162.28961548395455,130.09330524783581 171.40289597120136,122.32659761561081 170.72424742439762,123.69102223881055 172.6632432723418,124.00588927720673 171.1120465938002,125.16040116618387 175.8625864223577,121.2770393397659 174.3113897438161,116.55401769699529 180.80702583584934,126.62977860483807 182.64907189132646,125.4752678857185 182.74602168425918,126.83968954603188 179.83752791164443,125.0554455780657 175.95953621482477,124.9504899821477 174.02054036641493,130.09330524783581 170.62729763193056,127.5743776006857 175.1839378750883,122.32659761561081 168.10660302918404,110.57150153222028 181.7765237595886,121.80181857279968" stroke="#4dd2ff" stroke-linecap="round" stroke-linejoin="round" stroke-width="0.5"><title>2022-02-09 3.9km</title></polyline><polyline fill="none" points="30.671364509966224,144.75703282852191 17.802690582815558,147.9028213120764 11.714285714086145,152.99599252827466 16.695707879029214,156.29156722465996 21.123638692777604,154.34418281097896 31.501601537223905,154.7935793766519 35.37604099884629,152.8461935535306 36.344650864601135,149.55061337118968 41.87956438167021,148.05262064444833 42.57142857136205,151.3482032122556 39.66559897456318,152.39679656527005 30.117873157840222,147.30362387408968 16.280589365400374,148.50201857613865 12.959641255903989,152.09719851845875 14.758488148916513,155.99196974211372 25.966688020620495,152.39679656527005 27.488789237570018,155.24297584511805 32.055092888418585,155.39277464640327 39.25048046093434,149.70041258411948 38.420243433211,147.15382448770106 35.23766816081479,146.40482739254367 16.557335041463375,148.35221927659586 12.406149903312325,152.6963945684256 14.481742472853512,156.74096336774528 21.815502882003784,155.99196974211372 26.658552209846675,152.2469975472195 27.765534913167357,154.94337821064983 33.85393978189677,155.09317703323904 38.83536194683984,150.74900677183177 39.94234465062618,152.09719851845875 42.43305573286489,146.55462683329824 31.916720051318407,147.9028213120764 24.44458680273965,145.05663193797227 21.262011530343443,149.1012156669749 15.588725175708532,148.65181786532048 11.991031389683485,152.2469975472195 15.311979500111192,156.44136594992597 26.520179371815175,151.9473994789878 28.59577194042504,155.09317703323904 32.74695707904175,155.39277464640327 39.38885329896584,147.9028213120764 26.796925047878176,149.1012156669749 28.4573991028592,155.24297584511805 36.344650864601135,155.5425734365126 38.83536194683984,152.8461935535306 38.696989109274,146.70442626299337 35.65278667444363,143.25903663225472 30.532991671469063,143.85823524126317" stroke="#4dd2ff" stroke-linecap="round" stroke-linejoin="round" stroke-width="0.5"><title>2022-02-07 2.3km</title></polyline><polyline fill="none" points="68.27967806812376,148.98062887007836 66.39637826941907,147.5691402037628 63.20925553236157,147.7259723233292 63.93360160943121,149.13746088708285 65.38229376170784,148.03963652811944 66.8309859149158,151.9604352567112 71.75653923489153,153.9992477920605 64.65794768556952,154.62657433992717 64.80281690135598,152.43093062739354 61.76056338008493,151.9604352567112 54.66197183076292,155.56756382156163 49.446680079214275,153.68558444979135 48.432595572434366,150.39211661648005 54.80684104561806,149.4511248874478 60.601609657518566,143.96199832425918 68.1348088523373,144.90299243689515 75.66800804808736,146.9418116126908 76.10261569358408,150.39211661648005 73.63983903359622,154.31291108881123 70.30784708168358,152.90142589609604 66.54124748427421,155.25390070630237 63.78873239364475,152.2740988485748 54.517102614976466,155.25390070630237 48.57746478822082,153.9992477920605 51.185110663063824,155.56756382156163 59.29778671916574,151.9604352567112 60.311871226876974,144.58932777808513 67.26559356134385,145.21665705018677 69.58350100554526,149.92162080307025 76.8269617697224,146.78497943631373 77.84104627743363,151.17627607868053 73.92957746423781,157.13587871589698 70.30784708168358,157.44954155827872 67.98993963748217,152.43093062739354 62.62977867200971,151.0194442087086 59.4426559349522,158.8610237883404 54.66197183076292,162.62497190700378 48.1428571427241,158.23369846655987 50.02615694142878,154.15607944584917 54.517102614976466,154.94023754599039 56.54527162946761,157.9200357372174 58.863179073669016,149.13746088708285 64.80281690135598,145.05982474947814 69.7283702204004,146.62814724899363 72.19114688038826,145.05982474947814 78.71026156935841,148.66696480137762 67.12072434555739,153.84241612674668 63.06438631750643,152.11726705811452 55.38631790690124,156.9790472772438 49.73641851078719,154.31291108881123 49.59154929500073,150.54894853185397 50.89537223242223,148.98062887007836 57.559356136247516,149.76478884287644 62.340040241368115,144.74616011290345 67.41046277619898,146.31448283954524 74.50905432552099,143.49150111468043 77.98591549228877,144.43249543197453 79.0,150.2352846902795 62.19517102558166,142.86417134315707 63.354124748148024,141.76634380535688 61.181086517870426,145.21665705018677 66.39637826941907,145.68715388537385 66.54124748427421,143.17783625144511 74.79879275616258,142.23684138967656 70.01810865197331,137.3750280928798 66.97585512977093,137.6886937962845 60.7464788723737,147.41230807325337 63.49899396300316,148.3533006872749 65.09255533199757,145.8439861406805 73.63983903359622,143.17783625144511 75.81287726387382,141.13901353429537 74.50905432552099,140.19801778683905 76.8269617697224,142.08000887278467 76.39235412422568,145.05982474947814 66.10663983784616,151.8036034438992" stroke="#4dd2ff" stroke-linecap="round" stroke-linejoin="round" stroke-width="0.5"><title>2022-02-06 3.0km</title></polyline><polyline fill="none" points="108.3299798797816,141.0606068619527 86.4547283705324,148.58854341774713 86.59959758631885,151.72517593065277 88.33802816923708,149.21587028331123 102.39034205209464,144.51091436296701 106.44668008107692,148.58854341774713 114.26961770653725,147.0202254585456 101.66599597595632,145.76557027420495 91.23541247565299,152.50933334918227 87.4688128773123,149.05903858412057 84.57142857182771,150.00002861046232 88.91750503052026,155.33229770697653 88.7726358147338,160.19406103610527 97.31991951726377,161.13504622667097 98.18913480918854,157.84159627137706 107.17102615721524,157.68476519617252 108.76458752527833,159.56673734879587 115.42857142910361,155.48912895249669 106.88128772657365,142.78576129931025 103.40442655980587,143.4130898450967 100.941649899818,141.0606068619527 94.27766599599272,142.78576129931025 96.1609657946974,149.21587028331123 93.26358148921281,149.84319696738385 92.97384305950254,152.82299623743165 96.1609657946974,152.50933334918227 104.85311871301383,142.6289291344583 107.46076458785683,144.51091436296701 111.2273641852662,141.6879359073937 103.25955734401941,147.6475527783623 98.62374245468527,144.0404182090424 88.91750503052026,149.37270197144244 89.06237424630672,151.41151288338006 97.60965794790536,147.96121637022588 100.79678068403155,149.21587028331123 108.61971830949187,139.8059482264798 106.0120724355802,152.82299623743165 103.11468812916428,150.94101822783705 102.68008048366755,152.66616479877848 103.8390342053026,151.41151288338006 109.48893360141665,155.0186351822922 115.13883299846202,151.72517593065277 109.05432595591992,138.86495377321262 112.2414486920461,139.33545105077792 110.64788732398301,139.17861863656435 110.9376257546246,141.0606068619527" stroke="#4dd2ff" stroke-linecap="round" stroke-linejoin="round" stroke-width="0.5"><title>2022-02-05 2.4km</title></polyline><polyline fill="none" points="134.60519480518997,152.65681771590607 135.16623376612552,156.67989255132852 136.21818181825802,157.5907752799103 151.4363636362832,158.04621634777868 151.8571428572759,155.76900903275236 150.66493506496772,153.64361108344747 148.91168831195682,153.1122609236627 145.4753246754408,154.32677517912816 144.63376623392105,153.1122609236627 141.75844155834056,153.26407528232085 140.00519480509683,147.34329902747413 132.50129870162345,143.0924647169304 131.87012987025082,138.61388852319214 122.68311688350514,139.37297057855176 121.49090909119695,141.42248938675039 121.0,150.0759691396379 122.40259740268812,154.40268227341585 124.36623376654461,155.00993883033516 125.48831168864854,160.77885860722745 128.43376623396762,161.31020488741342 134.60519480518997,155.9967299864511 135.8675324677024,156.90761330758687 150.5246753245592,157.81849583837902 151.7168831168674,156.3762647997355 149.12207792210393,153.56770393409533 145.40519480523653,154.4785893621738 144.4233766233083,153.33998245361727 141.19740259740502,153.03635373612633 139.864935065154,147.34329902747413 133.76363636390306,144.4588061933755 132.0805194808636,141.87793746741954 131.94025974045508,138.68979675340233 126.04935064958408,138.7657049780828 123.103896104265,139.52478692366276 121.77142857131548,141.346581354097 121.35064935078844,150.53141346701887 122.47272727289237,154.70631059579318 124.57662337669171,155.1617529146606 125.13766233786009,160.39932538528228 127.0311688312795,161.38611147680786 128.01298701297492,160.62704533484066" stroke="#4dd2ff" stroke-linecap="round" stroke-linejoin="round" stroke-width="0.5"><title>2022-02-02 2.7km</title></polyline><polyline fill="none" points="178.12698412733153,146.97567253140733 167.2063492066227,146.42579155636486 168.22222222248092,152.3370036961278 164.5396825405769,149.86254503880627 162.00000000093132,151.0997747705551 164.03174603218213,153.71170155715663 170.00000000046566,155.77374648291152 174.82539682555944,152.3370036961278 179.65079365111887,155.49880728882272 186.12698412733153,154.12411072151735 186.12698412733153,151.3747146014357 182.5714285718277,147.38808315829374 178.12698412733153,148.4878443919588 174.19047619076446,147.11314274999313 165.68253968283534,149.31266489962582 162.00000000093132,153.02435275097378 165.42857142863795,154.948928781203 171.0158730163239,153.71170155715663 174.69841269915923,150.00001504912507 177.36507936520502,150.96230484021362 178.6349206357263,154.948928781203 185.1111111114733,152.749413158861 185.8730158735998,150.41242501942907 183.71428571501747,147.93796385463793 177.1111111114733,148.21290414338 168.73015873041004,145.6009697949048 163.14285714318976,149.45013494952582 164.41269841324538,153.43676206446253 168.3492063493468,154.39905011444353 175.2063492066227,150.2749550389126 177.61904761986807,155.0863984231837 182.82539682555944,153.98664100968745 188.28571428591385,149.58760498918127 183.58730158768594,142.43914972536732 172.9206349211745,147.52555334719364 167.71428571501747,147.80049369577318 165.42857142863795,153.02435275097378 157.42857142863795,154.39905011444353 158.95238095289096,155.49880728882272 169.61904761986807,152.61194334784523 180.6666666669771,156.73603334883228 186.7619047621265,149.58760498918127 182.95238095289096,145.6009697949048 172.28571428591385,149.45013494952582 178.76190476259217,155.77374648291152 185.6190476194024,150.82483489997685 186.12698412733153,147.38808315829374 178.25396825466305,146.70073206338566 170.7619047621265,150.00001504912507 180.6666666669771,157.5608502747491 186.25396825466305,154.39905011444353 184.47619047714397,148.4878443919588" stroke="#4dd2ff" stroke-linecap="round" stroke-linejoin="round" stroke-width="0.5"><title>2022-01-28 2.6km</title></polyline><polyline fill="none" points="28.52040816284716,186.29902629985008 29.484693876933306,184.06206525326706 30.99999999953434,188.38685441832058 28.244897958356887,186.89554883516394 25.35204081609845,196.7381457366282 26.316326530184597,190.92207143234555 24.801020408049226,190.02728931279853 11.714285714086145,193.60641545895487 23.285714285448194,191.36946234630886 21.494897958356887,192.4133741010446 20.392857142258435,188.23772390850354 21.90816326532513,186.89554883516394 15.020408163312823,184.95684996328782 17.775510204024613,188.68511540535837 23.147959182970226,186.29902629985008 28.93367346888408,188.53598491707817 26.729591836221516,195.09771618491504 40.91836734628305,170.3419843754964 40.09183673420921,180.03552925027907 42.57142857089639,183.31641103199217 33.0663265301846,183.61467275267933 29.484693876933306,189.57989810733125 25.214285714086145,187.49207119771745 25.903061224147677,189.2816372498637 18.464285714086145,188.53598491707817 13.367346938699484,191.07120174763259 15.295918366871774,189.13250680512283 23.285714285448194,190.02728931279853 26.729591836221516,185.55337288731243 31.137755101546645,185.25511144695338 40.642857142258435,194.35206595691852 35.68367346841842,193.60641545895487 29.897959183435887,183.76380359730683 34.58163265231997,184.658588436665 32.65306122414768,184.50945765699726 30.724489795509726,193.60641545895487 23.147959182970226,190.17641969327815 33.61734693823382,193.90467569057364 37.88775510201231,198.22944419586565 33.479591836221516,194.05380578991026 35.95918367290869,192.11511365347542 35.2704081623815,189.2816372498637 38.85204081563279,190.02728931279853 33.61734693823382,183.61467275267933 37.06122448947281,191.8168531631818 36.78571428451687,197.18553538783453 32.10204081563279,189.57989810733125 30.99999999953434,191.07120174763259 31.137755101546645,188.38685441832058 29.209183673374355,190.3255500626983 26.729591836221516,189.2816372498637" stroke="#4dd2ff" stroke-linecap="round" stroke-linejoin="round" stroke-width="0.5"><title>2022-01-26 2.5km</title></polyline><polyline fill="none" points="65.70581592293456,183.36147553741466 57.41219649882987,181.24889132822864 56.80237154150382,179.53241485671606 58.6318464144133,182.96536618459504 49.11857707519084,187.85070885904133 54.363071711268276,187.05849201674573 60.94918125355616,178.4761208408745 64.60813099890947,180.5887082607951 71.80406549945474,180.32463496748824 71.92603049101308,182.04111069336068 53.50931676989421,187.58663661638275 62.5347261428833,177.28778934187721 68.87690570298582,178.4761208408745 72.77978543192148,176.62760484125465 72.90175042347983,180.19259830622468 58.753811405505985,186.26627483044285 56.55844155838713,183.88962120760698 51.43591191386804,186.5303472642554 52.65556182991713,187.4546004809672 56.80237154150382,185.60609357920475 57.65612648194656,181.1168547339039 60.09542631311342,179.66445156547707 63.99830604158342,180.98481812980026 71.07227555057034,179.53241485671606 66.1936758896336,180.5887082607951 62.90062111755833,184.285730359843 59.72953133797273,179.26834141020663 57.65612648194656,181.7770376097178 65.21795595670119,181.7770376097178 51.557876905892044,191.9438237301074 51.43591191386804,189.4351415114943 48.1428571427241,189.96328542300034 49.48447204986587,187.85070885904133 60.58328627888113,178.7401944019366 65.70581592293456,181.9090741565451 71.80406549945474,180.72074489388615 62.41276115225628,185.73812984849792 62.5347261428833,183.88962120760698 62.90062111755833,186.92645584302954 68.63297571986914,184.54980308015365 73.51157538127154,178.08001042739488 72.16996047412977,182.5692567457445 79.0,180.19259830622468" stroke="#4dd2ff" stroke-linecap="round" stroke-linejoin="round" stroke-width="0.5"><title>2022-01-24 2.3km</title></polyline><polyline fill="none" points="104.73142857151106,179.16359424381517 103.77142857154831,180.351337064174 104.73142857151106,178.866658431245 101.30285714287311,177.9758507356746 91.29142857110128,181.68754691502545 84.70857142843306,185.69617124507204 84.84571428596973,189.85325486876536 91.83999999985099,190.89252445835155 101.16571428533643,185.84463866229635 115.01714285742491,187.03237761417404 113.64571428531781,179.01512634265237 109.39428571425378,176.63963846722618 103.2228571427986,178.56972257536836 98.97142857173458,176.93657460191753 94.58285714266822,177.3819787238026 93.8971428568475,181.98448231909424 84.98285714350641,187.18084493500646 86.21714285714552,189.85325486876536 92.11428571399301,191.04099149955437 100.3428571424447,189.25938629568554 100.7542857141234,187.62624683254398 105.41714285686612,189.7047877414152 114.19428571453318,188.36858311318792 114.60571428621188,180.20286924915854 108.43428571429104,176.93657460191753 95.54285714263096,178.7181905087782 94.71999999973923,181.5390791965183 88.4114285716787,182.13295000523794 84.57142857136205,187.03237761417404 85.25714285718277,190.44712327013258 93.34857142856345,192.37719438725617 100.89142857166007,187.47777954372577 110.21714285714552,190.00172198517248 113.50857142871246,188.9624519442441 115.29142857156694,178.866658431245 107.47428571432829,176.3427022891119 95.54285714263096,178.866658431245 94.0342857139185,183.17222350626253 86.90285714250058,184.9538339972496 85.66857142886147,189.11091912526172 95.67999999970198,190.59559034358244 100.20571428537369,185.84463866229635 105.00571428518742,188.8139847527491 112.82285714242607,186.14157346484717 115.42857142863795,182.7268206415465 115.01714285742491,180.05440142331645 111.17714285710827,176.19423418410588 106.51428571436554,177.08504265313968" stroke="#4dd2ff" stroke-linecap="round" stroke-linejoin="round" stroke-width="0.5"><title>2022-01-23 2.3km</title></polyline><polyline fill="none" points="140.9183673467487,181.1042899559252 128.83673469349742,184.99272892833687 123.2857142854482,191.17886907909997 123.2857142854482,188.1741743918974 129.16326530650258,182.5182684804313 135.53061224520206,181.45778466342017 143.69387755077332,181.28103731619194 142.7142857145518,185.5229701269418 137.32653061207384,185.5229701269418 143.8571428572759,172.9738975504879 136.83673469349742,183.932246186072 125.89795918297023,186.76019914192148 125.89795918297023,189.76489556906745 124.26530612166971,188.5276680761017 128.67346938699484,188.35092124040239 132.9183673467487,181.8112793203909 147.28571428637952,180.22055296204053 143.36734693869948,185.69971716729924 133.08163265231997,183.57875183643773 128.67346938699484,191.00212243502028 132.59183673374355,188.8811617095489 121.0,188.8811617095489 139.61224489752203,178.62982556712814 142.38775510154665,181.98802662966773 138.14285714179277,186.93694609263912 127.69387755077332,183.4020046426449 123.12244897894561,192.06260210694745 131.2857142854482,187.4671868691221 129.16326530650258,186.40670520160347 122.63265306130052,191.8858555268962 126.38775510154665,191.00212243502028 131.12244897987694,184.2857404849492 139.2857142854482,184.81598183698952 141.4081632643938,182.16477392567322 148.4285714281723,188.35092124040239 151.8571428572759,187.64393376884982 149.89795918390155,177.03909713681787 144.346938774921,174.03438505157828 146.95918367244303,179.33681564871222 142.2244897959754,184.81598183698952 137.48979591857642,185.5229701269418 130.95918367337435,195.59753102087416 138.30612244922668,189.41140206390992 140.26530612260103,192.94633481511846 146.30612244922668,189.41140206390992 142.2244897959754,182.16477392567322 150.55102040804923,176.86234946921468 148.9183673467487,173.32739343540743 137.81632653065026,185.5229701269418" stroke="#4dd2ff" stroke-linecap="round" stroke-linejoin="round" stroke-width="0.5"><title>2022-01-14 2.4km</title></polyline><polyline fill="none" points="167.84962406009436,179.81704637757502 159.72932330844924,181.868245636113 157.83458646666259,185.38458238588646 159.18796992488205,189.7799947335152 165.00751879718155,190.65907605795655 173.53383458638564,185.67761017254088 178.67669172910973,188.75439937284682 183.00751879625022,188.90091302781366 185.84962406009436,187.28926224180032 188.01503759343177,180.11007497052196 183.81954887183383,177.17978713475168 180.97744360892102,179.08447471063118 170.82706766948104,178.0588739310624 158.10526315821335,185.38458238588646 159.18796992488205,191.68467045377474 163.65413533803076,191.09861657686997 173.53383458638564,185.09155455662403 178.94736842112616,187.58228975266684 187.06766917277128,182.1612739317352 188.28571428591385,179.08447471063118 183.81954887183383,177.17978713475168 173.26315789483488,180.2565892508719 169.744360901881,179.5240177429514 159.8646616539918,183.7729288005503 158.78195488732308,188.31485834496561 162.03007518779486,191.09861657686997 169.0676691723056,188.90091302781366 171.90977443614975,185.67761017254088 175.96992481173947,187.87531722150743 187.47368421033025,179.9635606794618 176.2406015037559,177.76584504113998 160.00000000046566,182.30778806388844 157.42857142863795,186.84972089563962 161.35338345821947,191.39164353674278 171.23308270704,185.67761017254088 176.2406015037559,188.46137203159742 185.3082706760615,187.1427484700689 185.3082706760615,178.0588739310624 182.4661654131487,176.88675811770372" stroke="#4dd2ff" stroke-linecap="round" stroke-linejoin="round" stroke-width="0.5"><title>2022-01-11 2.1km</title></polyline><polyline fill="none" points="31.57939914148301,211.33125802013092 31.976701410487294,216.2058480756823 29.990190067794174,215.9191078164149 32.37400367856026,214.48540589679033 21.646842428017408,215.48899734951556 17.673819742631167,213.3384436131455 13.435928878374398,225.23814500216395 23.63335377117619,220.22020734997932 27.60637645609677,224.9514060501242 33.96321275271475,220.22020734997932 36.3470263639465,220.7936865822412 38.06866952730343,217.06606860505417 36.214592274744064,212.04811025131494 36.74432863295078,213.3384436131455 30.652360514737666,212.621591849369 30.519926425535232,214.05529511836357 21.779276517685503,216.0624779514037 21.911710606887937,213.05170293920673 14.230533414985985,222.08401424763724 12.11158798262477,221.65390511916485 12.37645616242662,224.66466705687344 13.568362968042493,225.66825335251633 22.57388105476275,222.08401424763724 38.73083997517824,222.8008625874063 38.73083997517824,210.90114655683283 29.857755977660418,209.324070392875 22.30901287542656,215.77573767129797 16.3494788473472,215.0588867890183 12.244022072758526,218.6431386055192 13.83323114644736,224.66466705687344 11.714285714086145,228.53563996683806 17.673819742631167,225.95499220036436 18.203556100372225,227.10194717836566 27.473942366894335,220.36357717344072 31.04966278374195,222.2273839362897 42.30656039202586,220.22020734997932 39.657878601923585,214.772146363277 40.45248313900083,208.7505878400989 35.28755364846438,211.47462848725263 25.222562844865024,211.90473982563708 17.408951563294977,218.35639869887382 12.906192520167679,217.63954875036143 12.11158798262477,224.37792802159674 16.746781115885824,225.66825335251633 27.209074187558144,220.0768375158077 29.59288779925555,222.2273839362897 41.37952176621184,220.22020734997932 42.57142857136205,208.60721717600245 31.8442673208192,210.47103500040248 24.427958307787776,216.2058480756823 28.268546903971583,222.51412328274455 30.784794604871422,219.93346767162438 31.711833230685443,222.8008625874063 35.94972409540787,225.23814500216395 39.52544451225549,219.21661829412915 36.74432863295078,215.3456271730829" stroke="#4dd2ff" stroke-linecap="round" stroke-linejoin="round" stroke-width="0.5"><title>2022-01-09 2.9km</title></polyline><polyline fill="none" points="69.00578368967399,212.28262054058723 66.75708501972258,213.90554895286914 60.76055523380637,213.0940849230392 56.138230190612376,216.61042650823947 49.39213418122381,217.9628638176946 48.1428571427241,221.208709366736 49.39213418122381,224.99552204750944 54.01445922488347,228.64708415057976 59.38635049154982,229.4585414264584 64.38345864648,221.61443966371007 75.1272411798127,220.8029789814027 76.75130132958293,218.09810749499593 73.75303643662483,213.22932895249687 64.00867553474382,212.68835277564358 62.134759976528585,210.38920227752533 57.13765182113275,212.1473764424445 55.8883747830987,217.15140154981054 52.265471370425075,215.6637198093813 49.51706188544631,216.8809140487574 49.14227877371013,223.778333093971 60.38577212207019,221.88492647965904 63.63389242300764,219.18005655927118 68.25621746620163,222.56114334787708 74.87738577183336,222.29065663006622 76.87622903380543,219.18005655927118 75.50202429154888,215.1227443376556 68.1312897624448,212.1473764424445 61.01041064178571,212.41786462860182 58.386928860563785,213.90554895286914 57.13765182113275,217.82762013096362 51.64083285164088,218.09810749499593 48.517640254460275,220.53249200887512 50.14170040469617,224.04881959652994 57.01272411784157,224.99552204750944 61.51012145727873,223.23735997150652 65.13302486995235,218.36859481979627 71.0046269511804,220.93822245288175 76.75130132958293,217.15140154981054 76.75130132958293,214.31128083576914 76.00173510657623,217.55713272781577 72.37883169436827,213.63506098242942 68.38114517042413,214.98750044498593 64.2585309422575,211.7416440898087 56.138230190612376,216.33993892895523 50.76633892394602,217.01615780382417 48.642567958217114,220.39724850805942 49.64198958873749,223.37260326673277 58.76171197229996,223.50784655218013 62.634470792487264,218.09810749499593 72.87854250986129,221.0734659145819 75.37709658732638,219.99151794658974 78.62521688826382,217.28664528555237 79.0,214.31128083576914 78.8750722957775,210.11871379753575 77.50086755305529,207.68431571638212 75.37709658732638,207.95480454864446" stroke="#4dd2ff" stroke-linecap="round" stroke-linejoin="round" stroke-width="0.5"><title>2022-01-08 2.5km</title></polyline><polyline fill="none" points="100.91473743645474,214.14823678822722 104.20779220806435,214.41230990970507 102.74421230982989,215.73267494502943 95.67024280084297,217.31711172591895 92.01129305548966,212.43176056514494 86.5228684367612,217.58118438883685 87.25465838471428,220.35394504282158 91.2795031061396,221.67430577753112 99.08526256401092,218.5054384083487 101.89045736892149,221.54226974688936 107.01298701344058,220.485981159145 112.74534161528572,215.86471139616333 112.86730660730973,211.77157697244547 105.30547713208944,210.4512090702774 95.91417278395966,212.69583393528592 94.32862789416686,216.78896628541406 85.42518351273611,217.053039024584 84.57142857136205,219.95783663599286 87.13269339408726,223.7868809653446 93.96273291949183,222.99466555658728 101.7684923778288,217.58118438883685 108.96442687790841,220.6180172660388 114.94071146287024,212.16768715670332 107.50084697920829,208.47065542498603 98.23150762310252,213.4880538166035 93.47487295325845,212.29972386546433 92.37718802923337,216.39285710442346 85.79107848694548,219.16561956435908 86.88876341097057,222.99466555658728 96.64596273284405,220.22190891648643 98.84133258089423,221.1461615981534 99.57312252977863,218.7695108994376 104.69565217383206,220.75005336361937 107.01298701344058,218.3734021486016 111.52569169970229,219.29765576682985 115.42857142863795,217.31711172591895 114.94071146287024,214.01620021276176 109.81818181835115,209.13084021233954 100.67080745380372,212.43176056514494 94.93845285149291,211.77157697244547 93.23094297014177,216.78896628541406 85.91304347803816,219.03358335222583 87.25465838471428,227.48388165782671 90.30378317367285,228.67220171785448 95.91417278395966,227.35184604779352 99.2072275551036,220.08987278107088 105.30547713208944,221.1461615981534 114.94071146287024,218.5054384083487 115.18464144598693,214.14823678822722 112.74534161528572,211.6395402252674 105.54940711520612,210.8473195412662 101.89045736892149,212.43176056514494" stroke="#4dd2ff" stroke-linecap="round" stroke-linejoin="round" stroke-width="0.5"><title>2022-01-03 2.6km</title></polyline><polyline fill="none" points="140.4142857142724,213.7694480684586 132.18571428582072,214.1870138887316 121.89999999990687,218.22347880958114 122.41428571473807,224.76531775773037 131.54285714309663,223.9301906202454 136.5571428569965,218.64104366267566 145.55714285746217,221.14643087680452 149.8000000002794,217.3883488313295 144.6571428575553,210.42891824326944 131.02857142826542,214.46539105207194 130.2571428567171,217.3883488313295 124.34285714291036,217.24916046659928 121.0,221.14643087680452 125.24285714281723,222.81668720662128 135.7857142854482,218.50185538840014 139.385714286007,221.8423711906653 143.75714285718277,222.25993525795639 151.728571429383,219.47617309668567 148.90000000037253,213.7694480684586 143.885714286007,210.98567361745518 137.5857142857276,211.54242882994004 129.10000000009313,217.66672553122044 121.89999999990687,218.22347880958114 122.54285714263096,223.51262691558804 125.49999999953434,226.29638323385734 131.02857142826542,227.5490722624818 136.04285714309663,220.7288665678352 141.31428571417928,224.0693785016192 143.75714285718277,223.09506312047597 150.18571428628638,217.80591386579908 149.9285714291036,212.51675006456207 144.6571428575553,209.59378488035873 136.68571428628638,214.74376817489974 130.385714286007,213.3518821579637 128.97142857173458,217.1099720915081 121.12857142835855,219.47617309668567 122.8000000002794,224.76531775773037 130.0,226.4355709439842 136.68571428628638,219.6153613004135 138.61428571445867,221.56399509531911 151.8571428572759,218.36266710388009 150.82857142854482,214.46539105207194 143.885714286007,211.54242882994004 139.77142857201397,210.98567361745518 138.10000000009313,212.93431615631562 137.97142857126892,211.54242882994004 133.72857142891735,216.69240690593142 136.81428571464494,222.67749923444353 139.90000000037253,222.67749923444353" stroke="#4dd2ff" stroke-linecap="round" stroke-linejoin="round" stroke-width="0.5"><title>2022-01-02 2.6km</title></polyline><polyline fill="none" points="177.66276346566156,214.46424872835632 175.13348946115002,214.7380623910576 174.121779859066,212.82136592140887 174.3747072601691,215.69640989752952 172.47775175608695,213.50590059754904 161.09601873485371,218.0238232491538 157.93442622898147,220.76195293781348 158.4402810302563,224.32151560753118 168.17798594851047,224.7322339459788 173.9953161594458,218.5714495042339 175.76580796251073,221.7202973922249 182.341920374427,222.4048288485501 186.00936768110842,218.4345429551322 187.27400468382984,212.2737380019389 184.4918032786809,210.90466750937048 174.75409836042672,211.45229582535103 168.81030444940552,214.1904350266559 167.5456674466841,216.9285702641355 157.42857142863795,219.529795068549 158.060889929533,225.00604612205643 163.7517564399168,226.6489183466183 170.0749414516613,225.82748241256922 173.6159250587225,219.94051444728393 181.20374707272276,223.6369848450413 186.768149882555,215.42259637406096 176.65105386357754,213.36899368232116 160.71662763413042,218.70835604297463 157.93442622898147,221.58339107153006 158.18735362961888,225.6905763890827 162.61358313728124,227.47035392397083 173.9953161594458,220.6250465476187 178.92740046838298,223.22626626864076 185.5035128807649,220.89885931834579 185.8829039814882,222.4048288485501 188.2857142854482,214.46424872835632 183.22716627595946,209.94631757517345 173.74238875880837,211.45229582535103 167.16627634642646,216.38094353373162 160.0843091327697,218.5714495042339 157.5550351277925,222.4048288485501 158.56674473080784,225.14295219513588 166.66042154515162,225.55367035523523 173.74238875880837,219.529795068549 179.18032786855474,223.3631724708248 186.51522248238325,217.75001006247476 185.1241217800416,209.6725032189861 178.29508196702227,212.82136592140887 170.58079625247046,212.54755198128987 166.02810304425657,217.61310345400125 160.84309133468196,218.0238232491538 158.18735362961888,222.54173510998953 159.5784543324262,224.86914003884885 168.81030444940552,219.39288858906366 169.9484777515754,222.4048288485501 172.98360655689612,220.21432731719688" stroke="#4dd2ff" stroke-linecap="round" stroke-linejoin="round" stroke-width="0.5"><title>2021-12-29 2.9km</title></polyline><polyline fill="none" points="27.205320994835347,256.0353863061173 25.831116252578795,255.90014272683766 26.83053788309917,250.2199035611702 21.208791208453476,249.81417153123766 19.459803354460746,252.3838062316645 15.587044534739107,252.92478150769603 12.96356275351718,256.3058734352235 13.838056679815054,260.3631756725954 23.832272990141064,259.14598592650145 25.831116252578795,255.0886810461525 33.32677848497406,258.4697690582834 39.69809138216078,257.3878215600271 40.947368420194834,251.57234302372672 34.82591093098745,248.46173079579603 28.329670330043882,250.08465956046712 20.334297281689942,248.5969749132637 11.714285714086145,253.60100038256496 13.338345865253359,259.9574458452407 23.332562174648046,259.6869592446601 27.705031810328364,255.0886810461525 30.45344129577279,257.5230650315061 38.19895893568173,256.84684757573996 41.94679005164653,254.2772190128453 42.57142857136205,251.70758691627998 39.073452862445265,244.9453803023789 31.577790630515665,248.5969749132637 21.583574320655316,248.7322190211853 18.83516483474523,254.00673159002326 12.089068825822324,254.412462709588 11.839213418308645,257.2525780784199 13.338345865253359,260.76890541194007 16.33661075728014,260.6336621751543 28.079814922064543,255.0886810461525 37.82417582394555,259.6869592446601 41.44707923615351,251.57234302372672 34.95083863474429,249.54368346219417 29.953730479814112,250.49039153149351 21.333718912210315,248.86746311944444 20.084441874176264,253.06002530246042 14.087912088260055,251.57234302372672 12.83863504929468,253.73624412843492 14.83747831126675,257.7935519453604 17.585887796711177,258.7402558347676 25.206477732863277,258.7402558347676 26.33082706714049,256.84684757573996 36.69982648873702,258.3345256552566 41.072296124417335,252.92478150769603 39.323308270424604,248.5969749132637 35.07576633896679,246.70355637627654 14.58762290328741,254.2772190128453" stroke="#4dd2ff" stroke-linecap="round" stroke-linejoin="round" stroke-width="0.5"><title>2021-12-28 2.6km</title></polyline><polyline fill="none" points="63.00834202254191,245.96884926897474 61.76955161616206,249.50444742513355 57.15224191825837,250.11403256410267 52.534932221286,254.50303905212786 51.97184567293152,257.79478641366586 53.548488007858396,259.98928108089603 56.58915536990389,255.2345390218543 63.00834202254191,254.0153722295072 65.48592283623293,257.063287556055 70.32846715301275,257.6728699593805 76.07194994809106,253.40578850230668 76.63503649644554,248.8948620655574 67.40041710110381,247.797607862507 62.33263816451654,249.138696235721 54.8998957243748,251.94278665725142 52.19708029180765,254.62495573598426 53.098018769174814,258.64820134604815 55.23774765338749,260.35502991394605 60.8686131387949,259.7454484810587 64.69760166853666,254.74687241076026 68.07612095912918,257.1852040543454 73.81960375374183,255.47837227454875 79.0,245.35926262987778 70.5537017728202,248.4071936191758 64.5849843584001,246.2126838627737 64.35974973905832,247.797607862507 53.43587069865316,250.96745138801634 51.859228362794966,256.81945453281514 48.1428571427241,259.7454484810587 63.00834202254191,257.42903702449985 64.13451512018219,253.64962201961316 67.62565172091126,257.6728699593805 75.39624608960003,254.0153722295072 77.31074035493657,248.04144219181035 75.50886339927092,245.48117997508962 58.728884253650904,246.45651842129882 57.82794577628374,250.23594956542365 50.28258602693677,255.8441220872337 50.845672575291246,259.7454484810587 53.21063607884571,261.086527342326 53.21063607884571,258.2824521420989 57.9405630864203,257.55095349648036 56.13868613122031,260.35502991394605 62.78310740366578,255.2345390218543 66.1616266942583,256.6975380079821 74.83315954077989,255.6002888873918 77.4233576641418,246.94418743264396 75.05839416058734,244.62775837176014 70.21584984380752,245.23734527558554 69.99061522400007,246.57843568746466" stroke="#4dd2ff" stroke-linecap="round" stroke-linejoin="round" stroke-width="0.5"><title>2021-12-27 2.6km</title></polyline></svg>