<?xml version="1.0" encoding="utf-8" ?>
<svg baseProfile="full" height="300mm" version="1.1" viewBox="0,0,200,300" width="200mm" xmlns="http://www.w3.org/2000/svg" xmlns:ev="http://www.w3.org/2001/xml-events" xmlns:xlink="http://www.w3.org/1999/xlink"><defs /><rect fill="#222222" height="300" width="200" x="0" y="0" /><text fill="#FFFFFF" style="font-size:12px; font-family:Arial; font-weight:bold;" x="10" y="20">Over 1km Runs</text><text fill="#FFFFFF" style="font-size:4px; font-family:Arial" x="10" y="280">ATHLETE</text><text fill="#FFFFFF" style="font-size:9px; font-family:Arial" x="10" y="290">Kris</text><text fill="#FFFFFF" style="font-size:4px; font-family:Arial" x="120" y="280">STATISTICS</text><text fill="#FFFFFF" style="font-size:3px; font-family:Arial" x="120" y="285">Number: 7</text><text fill="#FFFFFF" style="font-size:3px; font-family:Arial" x="120" y="290">Weekly: 1.4</text><text fill="#FFFFFF" style="font-size:3px; font-family:Arial" x="141" y="285">Total: 23.1 km</text><text fill="#FFFFFF" style="font-size:3px; font-family:Arial" x="141" y="290">Avg: 3.3 km</text><text fill="#FFFFFF" style="font-size:3px; font-family:Arial" x="167" y="285">Min: 1.3 km</text><text fill="#FFFFFF" style="font-size:3px; font-family:Arial" x="167" y="290">Max: 4.7 km</text><polyline fill="none" points="44.34117647167295,51.747156077763066 44.12941176537424,51.97640288970433 44.12941176537424,51.97640288970433 44.55294117704034,52.4348964644596 44.55294117704034,52.4348964644596 46.24705882370472,51.28866240312345 42.85882353037596,49.91318098292686 35.87058823555708,49.68393402104266 25.282352942042053,66.87741009751335 48.15294117666781,67.3359015150927 64.88235294166952,52.66414322680794 61.28235294111073,49.91318098292686 60.64705882407725,50.600921767996624 61.28235294111073,50.600921767996624 60.011764706112444,50.37167485570535 56.411764707416296,50.37167485570535 32.694117648527026,48.07920482615009 24.223529413342476,65.96042706188746 24.223529413342476,66.18967284611426 31.635294117964804,61.60475402115844 38.20000000111759,61.146261773770675 45.40000000130385,64.81419789558277 46.882352941669524,64.81419789558277 49.63529411889613,65.04344376176596 51.1176470592618,65.04344376176596 53.02352941222489,65.27268961211666 55.352941176854074,64.81419789558277 61.28235294111073,65.50193544547074 63.82352941296995,61.37550790607929 58.52941176481545,48.76694600912742 57.89411764778197,48.76694600912742 57.258823529817164,48.537698964821175 42.85882353037596,49.91318098292686 37.56470588315278,48.537698964821175 36.71764705888927,47.62071062112227 34.1764705888927,46.01598038105294 29.517647059634328,46.93296918924898 27.40000000037253,48.537698964821175 25.705882352776825,52.4348964644596 26.129411766305566,65.27268961211666 26.129411766305566,66.87741009751335 25.282352942042053,68.25288415164687 25.917647060006857,65.27268961211666 33.54117647185922,62.29249226814136 38.20000000111759,60.45852327812463 45.40000000130385,64.58495201240294 47.94117647130042,66.18967284611426 49.00000000093132,66.18967284611426 49.63529411889613,66.4189186131116 52.1764705888927,66.4189186131116 52.81176470592618,66.4189186131116 55.352941176854074,67.3359015150927 56.62352941185236,67.79439286701381 58.10588235408068,57.01982856099494 57.89411764778197,52.89338997239247 58.74117647111416,52.89338997239247 58.74117647111416,52.4348964644596 52.60000000055879,50.142427927814424 44.76470588333905,50.37167485570535 37.14117647148669,51.05941554158926 36.71764705888927,49.68393402104266 35.2352941185236,48.76694600912742 33.7529411772266,48.30845190351829 31.000000001862645,48.537698964821175 29.9411764703691,49.68393402104266 24.011764706112444,54.72736334241927 23.800000000745058,65.50193544547074 23.800000000745058,66.4189186131116 28.45882353093475,63.20947636477649 28.882352941669524,62.29249226814136 34.81176470592618,60.687769460259005 36.2941176481545,60.000030865194276 44.55294117704034,65.27268961211666 46.670588235370815,65.50193544547074 49.21176470629871,65.50193544547074 52.1764705888927,64.81419789558277 53.02352941222489,63.897214263211936 54.505882354453206,63.20947636477649 60.858823529444635,58.85379954148084 63.18823529407382,53.3518834146671 62.12941176537424,51.97640288970433 59.58823529444635,49.454687043093145 58.952941176481545,49.225440048612654 58.52941176481545,49.68393402104266 56.62352941185236,49.225440048612654 56.20000000111759,48.76694600912742 49.00000000093132,50.142427927814424 47.517647058703005,50.37167485570535 50.0588235296309,64.81419789558277 50.482352941296995,65.27268961211666 51.541176470927894,65.73118126229383 52.388235294260085,65.96042706188746 52.81176470592618,65.96042706188746 54.082352940924466,64.81419789558277 65.30588235333562,55.18585651833564 66.36470588296652,53.3518834146671 66.5764705883339,52.89338997239247 65.72941176500171,51.05941554158926 59.58823529444635,49.225440048612654 58.52941176481545,49.225440048612654 58.10588235408068,48.996193036902696 56.83529411815107,49.454687043093145 56.20000000111759,49.225440048612654 56.20000000111759,49.225440048612654 54.294117647223175,49.225440048612654 46.882352941669524,49.68393402104266 43.070588235743344,50.600921767996624 33.96470588259399,49.91318098292686 32.482352941296995,51.97640288970433 23.58823529537767,53.581130110425875 24.64705882407725,56.33208916964941 19.9882352957502,68.02363851759583 18.505882353521883,68.71137537108734 16.600000001490116,69.39911207510158 13.847058824263513,69.62835760950111 13.42352941352874,69.85760312783532 13.0,71.69156667566858 13.42352941352874,73.98401961917989 38.20000000111759,55.18585651833564 38.62352941278368,55.18585651833564 40.95294117741287,54.72736334241927 47.09411764796823,64.12646019598469 48.36470588296652,63.897214263211936 49.63529411889613,63.438722347375005 52.60000000055879,62.52173831732944 53.87058823555708,61.60475402115844 54.505882354453206,62.063246202189475 54.505882354453206,62.063246202189475 62.12941176537424,58.85379954148084 65.72941176500171,53.810376790352166 65.09411764703691,53.12263670214452 64.03529411833733,51.747156077763066 62.552941176109016,49.91318098292686 62.764705882407725,49.91318098292686 61.070588235743344,50.83016866305843 60.64705882407725,50.83016866305843 56.411764707416296,50.37167485570535 51.1176470592618,50.83016866305843 45.40000000130385,62.29249226814136 47.09411764796823,64.58495201240294 53.02352941222489,65.27268961211666 61.28235294111073,62.980230365647 65.94117647130042,56.561335649574175 67.0,53.581130110425875 66.36470588296652,54.03962345328182 65.517647058703,53.12263670214452 63.40000000037253,51.97640288970433 61.28235294111073,48.76694600912742 59.80000000074506,48.996193036902696 59.37647058814764,48.30845190351829 57.258823529817164,49.91318098292686 54.294117647223175,50.37167485570535 53.65882353018969,50.83016866305843" stroke="#4dd2ff" stroke-linecap="round" stroke-linejoin="round" stroke-width="0.5"><title>2022-07-20 3.6km</title></polyline><polyline fill="none" points="158.38461538404226,53.0050664038863 157.92307692300528,53.50470680114813 157.46153846289963,53.50470680114813 156.76923076901585,53.50470680114813 156.76923076901585,53.75452697277069 154.23076923098415,48.25847901799716 156.07692307699472,48.75812010257505 141.53846153896302,58.25128697324544 134.61538461502641,65.24623533058912 133.69230769202113,68.99352326337248 133.92307692207396,69.24334231438115 133.69230769202113,69.49316134676337 142.92307692300528,64.99641599040478 152.38461538404226,64.49677725578658 169.46153846103698,60.249845092883334 170.84615384601057,59.75020567141473 171.5384615380317,60.749484442174435 178.4615384619683,62.49822159530595 182.8461538469419,55.75308769661933 178.4615384619683,49.50758159416728 177.07692307792604,47.509017255855724 168.5384615380317,51.506144776707515 166.92307692300528,51.755965092917904 162.53846153896302,51.506144776707515 161.8461538469419,51.755965092917904 161.61538461502641,51.506144776707515 145.6923076910898,59.00074640358798 142.92307692300528,58.75092661124654 133.0,68.24406600208022 133.23076923005283,69.49316134676337 133.92307692207396,69.49316134676337 141.76923076808453,61.9985824986361 141.53846153896302,60.499664776958525 143.1538461530581,61.748762923525646 157.23076923098415,61.498943330487236 159.07692307699472,64.7465966322925 161.15384615398943,65.49605465307832 164.38461538497359,64.24695786181837 166.92307692300528,63.99713844922371 178.69230769202113,68.24406600208022 181.92307692300528,53.25488661159761 181.69230769295245,51.256324442336336 157.92307692300528,58.25128697324544 156.76923076901585,64.24695786181837 158.84615384601057,66.74515099194832 162.76923076901585,67.494608578505 167.61538461502641,62.49822159530595 169.46153846103698,62.99786061886698 179.61538461595774,61.9985824986361 180.07692307699472,60.000025391345844 182.38461538497359,54.50398737960495 182.8461538469419,54.25416726246476 179.15384615398943,46.759555330034345 169.23076923191547,48.75812010257505 166.0,47.259196631843224 153.76923076901585,49.00794061808847 147.0769230760634,51.256324442336336 145.6923076910898,50.756683718878776 144.5384615380317,52.00578539073467 137.61538461502641,55.25344762369059 136.23076923098415,59.25056617776863 135.99999999906868,67.74442773777992 136.92307692300528,68.24406600208022 136.92307692300528,69.24334231438115 139.69230769202113,63.49749957001768 142.0,60.499664776958525 147.0769230760634,63.74731901823543 152.15384615398943,62.99786061886698 159.5384615380317,71.99135068058968 160.92307692300528,72.74080712813884 164.38461538497359,73.24044466973282 165.76923076994717,68.74370419397019 176.38461538497359,62.99786061886698 180.76923076901585,61.249123718589544 184.69230769295245,54.50398737960495 184.4615384619683,54.25416726246476 176.15384615398943,50.257042923010886 176.15384615398943,50.756683718878776 174.76923076901585,50.257042923010886 168.30769230797887,51.755965092917904 163.23076923098415,52.255605671554804 154.46153846103698,54.75380747951567 154.23076923098415,54.00434712693095 154.23076923098415,54.25416726246476 153.07692307699472,54.75380747951567 142.92307692300528,57.25200747954659 140.15384615398943,57.00218756031245 139.69230769202113,57.00218756031245 137.38461538404226,59.00074640358798 138.30769230797887,69.49316134676337 153.76923076901585,64.24695786181837 159.76923076901585,65.9956932424102 161.3846153859049,65.74587395670824 165.07692307699472,64.7465966322925 166.0,64.49677725578658 166.92307692300528,63.99713844922371 168.30769230797887,65.49605465307832 178.9230769239366,64.49677725578658 180.53846153896302,64.49677725578658 184.4615384619683,57.00218756031245 187.0,52.00578539073467 178.0,51.256324442336336 178.23076923098415,51.506144776707515 178.23076923098415,51.506144776707515 170.38461538497359,51.256324442336336 157.23076923098415,51.506144776707515 155.15384615398943,51.755965092917904 155.61538461502641,51.755965092917904 153.30769230797887,52.50542593351565 139.0,56.00290770549327 137.84615384507924,57.00218756031245 135.30769230704755,60.749484442174435 135.07692307699472,61.498943330487236 135.5384615380317,69.49316134676337 135.76923076901585,68.99352326337248 136.46153846010566,67.99424687842838 136.92307692300528,67.24478940106928 146.61538461502641,60.999304089695215 151.69230769202113,60.000025391345844 157.69230769202113,68.4938851071056 157.92307692300528,68.24406600208022 157.92307692300528,67.99424687842838 159.07692307699472,66.99497020523995 161.8461538469419,65.24623533058912 164.15384615398943,65.49605465307832 177.30769230797887,62.74804111546837 179.8461538469419,64.24695786181837 179.61538461595774,63.24768010317348 181.92307692300528,58.50110680120997 184.23076923191547,57.50182738015428 183.53846153896302,57.50182738015428 178.4615384619683,54.25416726246476 177.07692307792604,53.75452697277069 171.5384615380317,53.25488661159761 160.69230769202113,65.24623533058912 162.07692307699472,68.74370419397019 165.5384615380317,70.49243729701266 169.46153846103698,65.24623533058912 169.46153846103698,64.7465966322925 179.61538461595774,62.49822159530595 181.69230769295245,61.748762923525646 184.9230769239366,54.00434712693095 182.15384615398943,62.24840205605142 176.38461538497359,53.75452697277069 175.23076923098415,53.50470680114813 169.46153846103698,53.0050664038863 169.0,53.50470680114813 155.61538461502641,51.256324442336336 150.99999999906868,55.00362756103277 145.4615384619683,58.25128697324544 141.53846153896302,57.50182738015428 141.76923076808453,57.50182738015428 141.30769230704755,58.00146712688729 134.15384615398943,66.24551250995137 135.30769230704755,66.74515099194832 135.07692307699472,70.24261833680794 135.07692307699472,70.74225623975508 135.99999999906868,70.24261833680794 135.5384615380317,70.74225623975508 145.23076923005283,64.24695786181837 148.69230769295245,65.74587395670824 151.23076923098415,65.49605465307832 152.84615384601057,61.249123718589544 157.69230769202113,61.748762923525646 158.61538461595774,66.99497020523995 159.5384615380317,66.99497020523995 166.23076923098415,64.49677725578658 167.61538461502641,64.24695786181837 172.23076923098415,64.49677725578658 177.53846153896302,62.24840205605142 184.9230769239366,55.25344762369059 180.76923076901585,56.00290770549327 179.8461538469419,50.50686333025806 179.8461538469419,51.006504089105874 159.76923076901585,52.00578539073467 159.30769230797887,51.506144776707515 151.4615384619683,54.25416726246476 149.84615384601057,52.255605671554804 147.76923076901585,52.00578539073467 139.0,62.49822159530595 138.07692307699472,63.24768010317348 135.99999999906868,68.99352326337248 139.69230769202113,67.74442773777992 142.69230769202113,67.24478940106928 144.30769230797887,67.494608578505 145.23076923005283,67.24478940106928" stroke="#4dd2ff" stroke-linecap="round" stroke-linejoin="round" stroke-width="0.5"><title>2022-07-16 4.7km</title></polyline><polyline fill="none" points="40.723214286379516,117.12931624846533 41.68749999906868,115.04153436701745 38.07142857089639,114.25861584953964 38.07142857089639,110.6049938548822 38.31249999906868,110.86596697708592 38.55357142910361,111.38791316561401 38.794642858207226,110.34402071381919 37.8303571427241,111.38791316561401 31.80357142817229,113.21472422895022 24.089285714551806,115.56347995088436 20.473214285448194,120.00001436262392 27.705357142724097,124.6975154383108 37.34821428544819,124.17557117668912 36.38392857089639,124.17557117668912 40.964285713620484,128.3511231553275 44.098214286379516,128.09015129879117 47.23214285634458,120.52195922867395 59.285714286379516,117.12931624846533 60.7321428572759,116.08542545884848 61.69642857182771,110.6049938548822 59.285714286379516,112.17083230614662 51.8125,113.99764297297224 46.75,112.95375127671286 40.0,111.38791316561401 39.5178571427241,111.90985927847214 29.875,116.86834358004853 26.982142857275903,117.12931624846533 22.88392857182771,117.12931624846533 22.642857142724097,117.65126153058372 21.196428570896387,119.21709692222066 17.098214285448194,123.91459901700728 17.339285714551806,125.21945962449536 15.169642857275903,129.6559821574483 15.892857142724097,129.13403861341067 15.410714285448194,129.6559821574483 19.267857142724097,127.82917942269705 35.17857142910361,125.21945962449536 39.27678571455181,122.08779337420128 40.4821428572759,123.91459901700728 45.30357142817229,125.21945962449536 46.99107142817229,121.82682106364518 51.8125,119.73904190096073 63.1428571427241,112.69277830491774 61.21428571455181,112.17083230614662 57.83928571455181,112.17083230614662 40.964285713620484,112.69277830491774 42.1696428572759,113.99764297297224 41.2053571427241,113.73667007731274 39.03571428544819,111.38791316561401 37.1071428572759,112.17083230614662 34.214285713620484,112.43180531519465 33.00892857182771,112.43180531519465 28.1875,114.51958870724775 24.8125,118.17320673679933 18.544642857275903,123.39265464246273 17.580357142724097,130.177925625816 23.607142857275903,128.87306681321934 26.499999999068677,128.6120949939359 31.80357142817229,124.43654331658036 34.69642857182771,123.13168242620304 33.25,123.13168242620304 36.38392857089639,122.60973793803714 39.27678571455181,122.87071019178256 41.44642857182771,124.95848754048347 42.41071428544819,124.17557117668912 43.13392857089639,124.17557117668912 44.5803571427241,123.39265464246273 48.19642857182771,121.5658487349283 50.125,120.78293163352646 51.57142857182771,121.3048763864208 59.0446428572759,122.60973793803714 61.21428571455181,120.78293163352646 66.75892857182771,114.25861584953964 67.0,114.25861584953964 66.75892857182771,113.99764297297224 60.00892857089639,110.6049938548822 60.24999999906868,112.69277830491774 53.5,116.08542545884848 49.88392857182771,113.73667007731274 44.098214286379516,109.82207437418401 35.66071428544819,113.21472422895022 17.339285714551806,124.17557117668912 13.241071429103613,130.177925625816 15.892857142724097,129.91695390129462 22.88392857182771,126.00237576221116 30.11607142817229,121.04390401975252 30.839285713620484,119.73904190096073 26.982142857275903,124.95848754048347 36.142857141792774,122.34876566496678 43.85714285634458,124.95848754048347 51.8125,122.34876566496678 51.57142857182771,122.34876566496678 63.62499999906868,120.00001436262392 64.1071428572759,113.47569716232829 59.0446428572759,110.34402071381919 55.91071428544819,111.38791316561401 54.464285713620484,112.17083230614662 48.4375,113.73667007731274 46.50892857089639,113.21472422895022 40.4821428572759,114.25861584953964 33.7321428572759,115.30250716814771 28.428571429103613,115.56347995088436 26.74107142817229,115.56347995088436 24.571428570896387,117.65126153058372 23.124999999068677,119.47806942113675 18.785714286379516,121.5658487349283 18.30357142817229,122.34876566496678 16.375,126.26334777008742 20.714285714551806,127.30723561393097 20.473214285448194,127.56820752727799 26.017857142724097,124.6975154383108 25.776785714551806,124.6975154383108 29.151785714551806,124.17557117668912 37.8303571427241,124.6975154383108 39.75892857089639,127.56820752727799 47.71428571455181,122.08779337420128 47.23214285634458,122.08779337420128 47.47321428544819,121.5658487349283 46.75,122.08779337420128 47.71428571455181,122.08779337420128 47.9553571427241,122.34876566496678 57.11607142910361,123.91459901700728 58.5625,121.04390401975252 60.00892857089639,119.21709692222066 63.1428571427241,114.25861584953964 60.7321428572759,110.86596697708592 61.21428571455181,110.86596697708592 58.32142857089639,111.64888623077422 58.32142857089639,112.43180531519465 46.2678571427241,116.86834358004853 41.44642857182771,117.12931624846533 40.4821428572759,117.65126153058372 27.464285714551806,119.21709692222066 21.4375,121.82682106364518 16.85714285634458,124.17557117668912 13.0,129.39501039450988 17.339285714551806,127.04626368149184 20.955357142724097,126.78529173019342 30.839285713620484,121.3048763864208 38.794642858207226,126.00237576221116 42.41071428544819,130.177925625816 50.60714285634458,123.39265464246273 52.05357142817229,122.08779337420128 52.53571428544819,121.5658487349283 54.705357141792774,121.04390401975252 54.94642857089639,120.26098680542782 61.21428571455181,112.95375127671286 60.7321428572759,112.43180531519465 59.285714286379516,111.12694008089602 56.87499999906868,112.17083230614662 54.94642857089639,113.47569716232829 50.36607142817229,117.12931624846533 47.71428571455181,118.17320673679933 45.0625,117.65126153058372 44.098214286379516,117.39028889941983 40.964285713620484,117.9122341426555 35.90178571455181,117.12931624846533 34.69642857182771,117.39028889941983 29.151785714551806,116.60737089207396 24.571428570896387,116.60737089207396 21.4375,119.73904190096073 15.892857142724097,123.39265464246273 16.13392857182771,123.39265464246273 14.44642857182771,129.39501039450988 17.580357142724097,126.52431975957006 17.580357142724097,126.78529173019342 24.8125,121.3048763864208 27.464285714551806,123.13168242620304 29.151785714551806,122.60973793803714 37.1071428572759,123.6536268396303 40.964285713620484,128.09015129879117 48.4375,123.6536268396303 52.2946428572759,122.08779337420128 51.8125,122.60973793803714 51.8125,122.08779337420128 62.17857142817229,119.73904190096073 67.0,112.17083230614662 62.660714286379516,114.7805615470279 43.85714285634458,114.25861584953964 42.41071428544819,114.25861584953964 42.41071428544819,113.99764297297224 40.723214286379516,113.73667007731274" stroke="#4dd2ff" stroke-linecap="round" stroke-linejoin="round" stroke-width="0.5"><title>2022-07-13 4.3km</title></polyline><polyline fill="none" points="162.50000000093132,112.96342052868567 162.0,112.69278198992833 159.75000000093132,110.52767297322862 157.25000000093132,109.71575676859356 136.00000000093132,122.7063948889263 140.75,129.74297169595957 149.50000000093132,127.57787254964933 163.75000000093132,126.22468494717032 182.75,115.66980484151281 181.25,114.04597448860295 177.75,111.88086625537835 171.75,109.44511799421161 165.75000000093132,112.96342052868567 160.25000000093132,115.94044316466898 142.25,121.6238434354309 137.50000000093132,121.6238434354309 161.50000000093132,124.33022148045711 170.25,111.33958900067955 149.50000000093132,114.85788975306787 145.25000000093132,117.56427269475535 138.5,130.55488355224952 143.75000000093132,129.74297169595957 173.25000000186265,127.03659756761044 178.75000000093132,125.95404736814089 184.75,119.72937763808295 163.5,114.5872513516806 155.75,113.50469754822552 149.50000000093132,118.10554904839955 146.25000000093132,120.54129166901112 143.75000000093132,120.54129166901112 135.49999999906868,122.43575705471449 134.50000000093132,123.78894602810033 133.0,130.82552079902962 150.50000000093132,127.03659756761044 152.75,125.95404736814089 166.50000000093132,126.49532250640914 172.75,109.98639552295208 141.75000000093132,118.91746343113482 139.50000000093132,119.4587395885028 133.0,124.05958376382478 137.75,129.47233437071554 145.75,127.84851001179777 147.75,126.76596004632302 155.0,124.60085917753167 181.75000000093132,124.33022148045711 182.50000000093132,122.7063948889263 179.25000000093132,112.96342052868567 177.0,112.15150485304184 161.25,112.96342052868567 158.75000000093132,112.42214343161322 153.25,112.96342052868567 150.75,115.66980484151281 133.5,124.60085917753167 147.25,128.38978487649 150.0,127.57787254964933 170.25,126.22468494717032 180.00000000093132,126.76596004632302 187.0,113.77533602830954 171.25,111.88086625537835 157.0,115.94044316466898 161.00000000093132,123.24767049774528 162.75,124.87149685434997 184.25000000093132,118.64682532288134 177.50000000093132,111.33958900067955 171.25,109.17447920073755 159.00000000093132,113.50469754822552 158.5,122.43575705471449 163.75000000093132,127.03659756761044 166.25,128.11914745392278 170.75000000093132,128.93105966295116 172.50000000093132,128.6604222790338 181.25,122.7063948889263 180.25,112.69278198992833 179.50000000093132,111.33958900067955 177.75,111.88086625537835 176.0,110.79831166868098 173.5,109.98639552295208" stroke="#4dd2ff" stroke-linecap="round" stroke-linejoin="round" stroke-width="0.5"><title>2022-07-11 4.0km</title></polyline><polyline fill="none" points="60.00000000093132,185.68341018026695 47.5,170.52767228730954 45.50000000093132,171.88086566817947 37.5,169.98639479861595 27.25,174.58725096005946 25.5,177.02299604774453 25.0,188.9310603090562 33.75000000093132,185.95404779864475 51.25,188.11914804182015 54.000000001862645,188.6604229065124 58.5,190.5548843163997 62.75000000093132,174.857889381703 55.5,171.06894969870336 41.25,172.15150428540073 37.0,170.52767228730954 29.75,176.48171949922107 21.750000000931323,180.27065369812772 16.249999999068677,189.20169769297354 22.75,188.11914804182015 27.5,188.11914804182015 42.75,185.14213488437235 49.75,188.9310603090562 60.50000000093132,189.47233505686745 64.25000000093132,177.02299604774453 36.5,171.88086566817947 32.25,173.50469707790762 19.25,180.8119296990335 29.25,190.5548843163997 36.25,186.4953229771927 49.50000000093132,188.38978548394516 55.25,189.20169769297354 58.00000000093132,188.9310603090562 63.00000000093132,175.39916616561823 44.75000000093132,172.15150428540073 28.0,178.37618707842194 19.25,180.8119296990335 13.0,188.38978548394516 13.75,190.8255215822719 18.5,190.01360972598195 22.0,189.74297240073793 27.000000000931323,188.38978548394516 34.50000000093132,189.47233505686745 37.75,187.30723559763283 39.25,184.87149720755406 39.25,185.41277254233137 41.25,185.14213488437235 43.5,186.76596053643152 45.75,188.38978548394516 47.75,190.28424703120254 52.75,182.97703291894868 53.25000000093132,180.54129170812666 56.25000000093132,178.37618707842194 58.75000000093132,179.4587395498529 65.5,177.56427251920104 67.0,173.50469707790762 51.50000000093132,169.17447841796093" stroke="#4dd2ff" stroke-linecap="round" stroke-linejoin="round" stroke-width="0.5"><title>2022-07-08 2.5km</title></polyline><polyline fill="none" points="146.10679611749947,182.69588225055486 145.05825242772698,182.4121066981461 144.00970873981714,182.4121066981461 140.864077671431,181.27700428618118 138.2427184469998,181.84455553349108 133.26213592290878,187.23628828534856 136.40776699129492,190.35781438532285 145.8446601945907,190.07403938798234 177.30097087379545,185.24986129184254 158.16504854429513,170.77729139477015 156.33009708765894,171.34484416199848 154.2330097099766,172.479949449189 150.30097087379545,177.58791917632334 133.52427184488624,184.96608592476696 134.31067961268127,188.65516409371048 146.89320388436317,188.65516409371048 173.89320388343185,185.81741196429357 185.4271844662726,182.97965778107755 187.0,178.72302265651524 183.85436893161386,173.89883059589192 178.08737864159048,169.64218561444432 158.95145631115884,170.49351498065516 138.76699029188603,180.42567726108246 145.8446601945907,188.65516409371048 157.64077669847757,185.53363663866185 160.0,184.3985351291485 186.47572815604508,182.69588225055486 185.4271844662726,176.45281536784023 180.70873786415905,171.62862051441334 171.27184466086328,171.62862051441334 166.55339805874974,173.04750196938403 156.59223301056772,173.33127819909714 146.6310679614544,180.9932286317926 134.0485436907038,184.3985351291485 139.29126213677227,189.22271427256055 139.55339805874974,188.65516409371048 139.8155339807272,188.65516409371048 147.67961165122688,188.37138897250406 149.25242718495429,188.37138897250406 150.30097087379545,188.37138897250406 153.1844660192728,186.952513062628 160.26213592290878,184.3985351291485 162.62135922443122,182.97965778107755 164.98058252502233,186.1011872694362 171.00970873702317,187.52006348851137 172.8446601945907,187.23628828534856 173.89320388343185,187.23628828534856 177.03883495088667,187.52006348851137 178.6116504855454,187.80383867071941 180.1844660192728,187.80383867071941 183.06796116475016,187.80383867071941 186.47572815604508,179.57435005134903 181.75728155393153,175.60148729546927 155.01941747684032,169.64218561444432 137.71844660304487,190.07403938798234 140.864077671431,189.22271427256055 153.1844660192728,189.22271427256055 156.59223301056772,187.23628828534856 157.37864077836275,186.3849625538569 157.90291262231767,183.26343329204246 153.4466019421816,179.29057427379303 147.94174757320434,180.14190154499374 146.3689320385456,180.7094529562164 145.05825242772698,180.7094529562164 143.74757281690836,180.7094529562164 141.6504854382947,180.42567726108246 140.33980582561344,180.14190154499374 140.33980582561344,180.42567726108246 133.0,187.52006348851137 138.76699029188603,186.952513062628 139.29126213677227,187.23628828534856 147.41747572924942,189.50648933183402 148.72815534006804,186.66873781871982" stroke="#4dd2ff" stroke-linecap="round" stroke-linejoin="round" stroke-width="0.5"><title>2022-06-28 2.7km</title></polyline><polyline fill="none" points="42.31428571417928,230.14568485016935 40.77142857015133,230.81377539015375 36.14285714365542,233.48613658663817 33.98285714350641,236.4925410822034 32.440000001341105,239.16489898995496 26.885714285075665,249.85431514983065 52.805714286863804,243.50747729022987 61.44571428745985,246.51387525955215 35.52571428567171,233.15209152153693 13.0,240.83512189611793 20.097142858430743,247.8500515059568 27.19428571499884,246.51387525955215 67.0,248.8521834372077 13.308571428060532,245.84578699059784 30.8971428591758,247.5160074797459 33.05714285746217,248.5181394838728 35.21714285761118,246.17983113694936 35.83428571559489,244.1755658967886" stroke="#4dd2ff" stroke-linecap="round" stroke-linejoin="round" stroke-width="0.5"><title>2022-06-21 1.3km</title></polyline></svg>