<?xml version="1.0" encoding="utf-8" ?>
<svg baseProfile="full" height="300mm" version="1.1" viewBox="0,0,200,300" width="200mm" xmlns="http://www.w3.org/2000/svg" xmlns:ev="http://www.w3.org/2001/xml-events" xmlns:xlink="http://www.w3.org/1999/xlink"><defs /><rect fill="#222222" height="300" width="200" x="0" y="0" /><text fill="#FFFFFF" style="font-size:12px; font-family:Arial; font-weight:bold;" x="10" y="20">Over 2km Runs</text><text fill="#FFFFFF" style="font-size:4px; font-family:Arial" x="10" y="280">ATHLETE</text><text fill="#FFFFFF" style="font-size:9px; font-family:Arial" x="10" y="290">Kris</text><text fill="#FFFFFF" style="font-size:4px; font-family:Arial" x="120" y="280">STATISTICS</text><text fill="#FFFFFF" style="font-size:3px; font-family:Arial" x="120" y="285">Number: 33</text><text fill="#FFFFFF" style="font-size:3px; font-family:Arial" x="120" y="290">Weekly: 1.7</text><text fill="#FFFFFF" style="font-size:3px; font-family:Arial" x="141" y="285">Total: 94.8 km</text><text fill="#FFFFFF" style="font-size:3px; font-family:Arial" x="141" y="290">Avg: 2.9 km</text><text fill="#FFFFFF" style="font-size:3px; font-family:Arial" x="167" y="285">Min: 2.1 km</text><text fill="#FFFFFF" style="font-size:3px; font-family:Arial" x="167" y="290">Max: 5.1 km</text><polyline fill="none" points="38.57142857182771,50.390520102810115 31.428571429103613,41.73009844974149 30.285714286379516,42.50335181027185 25.714285714551806,41.42079702753108 19.857142858207226,44.04985769127961 18.857142858207226,45.44171202706639 18.57142857182771,52.24632017640397 23.571428572759032,50.545170170487836 33.57142857182771,51.78237030946184 35.14285714458674,52.09167023212649 37.71428571455181,53.17421960912179 40.14285714365542,44.20450821798295 36.0,42.03939982771408 27.857142857275903,42.65800244861748 25.428571429103613,41.73009844974149 21.285714286379516,45.1324111422291 16.71428571548313,47.297516398713924 13.57142857182771,52.400970110087655 17.285714286379516,51.78237030946184 20.000000000931323,51.78237030946184 28.714285714551806,50.08121993369423 32.71428571455181,52.24632017640397 38.857142858207226,52.555620032246225 41.00000000093132,45.44171202706639 25.14285714365542,42.50335181027185 22.71428571548313,43.43125547282398 15.285714286379516,47.60681697074324 21.000000000931323,53.17421960912179 25.0,50.85447027243208 32.57142857275903,51.93702027644031 35.857142858207226,52.400970110087655 37.428571430034935,52.24632017640397 40.285714286379516,44.513809237396345 29.857142858207226,42.65800244861748 20.285714286379516,46.214964044629596 15.285714286379516,47.60681697074324 11.714285714551806,51.93702027644031 12.14285714365542,53.32886947551742 14.857142857275903,52.864919843152165 16.857142857275903,52.71026994311251 19.71428571548313,51.93702027644031 24.000000000931323,52.555620032246225 25.857142857275903,51.31842034123838 26.714285714551806,49.926569832721725 26.714285714551806,50.23587002407294 27.857142857275903,50.08121993369423 29.14285714365542,51.00912030634936 30.428571429103613,51.93702027644031 31.57142857182771,53.01956973189954 34.42857142910361,48.844018810545094 34.71428571548313,47.452166690141894 36.428571430034935,46.214964044629596 37.857142858207226,46.83356545690913 41.71428571455181,45.75101286789868 42.57142857182771,43.43125547282398 33.71428571548313,40.95684481004719" stroke="#4dd2ff" stroke-linecap="round" stroke-linejoin="round" stroke-width="0.5"><title>2022-07-08 2.5km</title></polyline><polyline fill="none" points="55.63245492428541,48.68336128606461 55.03328710142523,48.521203827578574 54.43411927949637,48.521203827578574 52.63661581184715,47.87257387780119 51.13869625516236,48.1968888763804 48.29264909867197,51.277879020315595 50.090152566321194,53.06160822021775 55.482662968337536,52.89945107884705 73.45769764203578,50.1427778811194 62.52288488205522,41.87273793993518 61.474341192282736,42.197053806856275 60.276005547493696,42.8456853996031 58.02912621293217,45.76452524366323 48.442441053688526,49.98062052857131 48.89181692060083,52.08866519643925 56.08183079119772,52.08866519643925 71.51040221843868,50.467092551174574 78.10124826617539,48.84551873221062 79.0,46.41315580380615 77.20249653235078,43.65647462639026 73.90707350894809,41.224106065463275 62.97226074896753,41.71057998901233 51.43828016612679,47.386101292213425 55.482662968337536,52.08866519643925 62.22330097015947,50.30493522225879 63.57142857089639,49.65630578820128 78.70041608903557,48.68336128606461 78.10124826617539,45.115894495975226 75.40499306470156,42.35921172250528 70.01248266268522,42.35921172250528 67.3162274621427,43.170001125428826 61.62413314823061,43.332158970995806 55.93203883524984,47.71041636110749 48.74202496558428,49.65630578820128 51.73786407802254,52.4129795844201 51.88765603303909,52.08866519643925 52.03744798898697,52.08866519643925 56.5312066571787,51.92650798440445 57.42995839100331,51.92650798440445 58.02912621293217,51.92650798440445 59.676837724633515,51.11572175018955 63.72122052684426,49.65630578820128 65.06934812758118,48.84551873221062 66.4174757283181,50.62924986833241 69.86269070673734,51.44003627926577 70.91123439650983,51.277879020315595 71.51040221843868,51.277879020315595 73.3079056860879,51.44003627926577 74.20665741991252,51.60219352610875 75.10540915373713,51.60219352610875 76.75312066543847,51.60219352610875 78.70041608903557,46.899628600804135 76.00416088756174,44.62942131177988 60.725381414406,41.224106065463275 50.83911234419793,52.89945107884705 52.63661581184715,52.4129795844201 59.676837724633515,52.4129795844201 61.62413314823061,51.277879020315595 62.07350901514292,50.791407173732296 62.37309292610735,49.00767616694793 59.82662968058139,46.73747101367917 56.68099861219525,47.223943740013056 55.78224687837064,47.548258832190186 55.03328710142523,47.548258832190186 54.284327323548496,47.548258832190186 53.085991678759456,47.386101292213425 52.3370318999514,47.223943740013056 52.3370318999514,47.386101292213425 48.1428571427241,51.44003627926577 51.43828016612679,51.11572175018955 51.73786407802254,51.277879020315595 56.38141470216215,52.57513676118106 57.13037447910756,50.95356446795631" stroke="#4dd2ff" stroke-linecap="round" stroke-linejoin="round" stroke-width="0.5"><title>2022-06-28 2.7km</title></polyline><polyline fill="none" points="105.35039751284057,39.501673744453 104.42508469335735,40.00251305605343 104.23106748919236,40.97187627421226 104.44000909361057,39.340112436548225 104.753421500267,39.25933173879457 104.81311910151271,39.582454354604124 103.76841107947985,42.89443420711905 102.88787146093091,43.78300580989162 101.99240744207054,46.351765649204026 102.48491265240591,46.96567872041487 101.85808783920947,47.87038964408566 102.14165144518483,50.18061698174279 102.00733184232377,54.25172867675428 102.14165144518483,54.72022486492642 102.51476145302877,54.914085069147404 102.39536625047913,55.689524203568 102.00733184232377,55.948003316880204 101.9774830417009,56.57804490248964 101.99240744207054,59.00126520966296 102.21627344674198,59.76053549758217 101.96255864144769,60.390566330592264 102.1267270448734,61.133677337129484 101.91778544045519,61.47292284439027 102.08195384393912,62.5229651973641 102.35059304954484,62.57142857143481 102.35059304954484,55.67336924908159 94.64960248721763,55.495664672373096 95.35104930208763,47.14339008394745 95.21672969922656,46.561788731924025 95.4405957039562,39.792483804092626 95.81370571180014,39.6470788216393 98.9329053775291,40.56797544473375 99.81344499613624,40.61644358285412 100.97754822066054,37.062085550191114 101.58944863354554,33.4915143733233 102.1267270448734,32.48980541451601 102.1267270448734,32.02126258444332 101.39543142949697,31.714285714289872" stroke="#4dd2ff" stroke-linecap="round" stroke-linejoin="round" stroke-width="0.5"><title>2022-06-12 5.1km</title></polyline><polyline fill="none" points="135.16787103936076,45.128173744422384 135.0478043355979,47.85778352920897 123.28126737149432,45.90806267771404 124.36186770396307,51.49725678889081 137.08893829910085,37.4592478601262 134.44747081724927,40.4488330319291 147.17454141192138,36.93931949615944 141.6514730406925,37.71921198582277 133.3668704838492,48.637671277159825 135.40800444688648,52.407123951241374 126.04280155617744,50.32742690271698 136.72873818781227,36.93931949615944 133.48693718761206,38.88905008521397 133.72707059513777,40.058887422201224 136.6086714840494,39.14901400345843 134.44747081724927,40.83877855702303 138.04947192873806,41.61866935330909 145.61367426346987,39.27899594884366 146.93440800439566,41.488687577540986 138.40967204002663,43.56839486141689 134.0872707059607,53.05702878499869 132.52640355704352,50.58738916530274 131.68593663163483,53.1870097235078 128.68426903896034,52.537104936898686 139.85047248471528,45.128173744422384 139.4902723734267,43.17844992899336 143.81267370749265,44.218302894267254 130.12506948318332,46.817932671750896 134.68760422430933,38.499104136717506 129.76486937189475,46.16802558011841 137.809338521678,44.47826604091097 140.45080600306392,44.73822915065102 138.76987215084955,46.94791406195145 133.3668704838492,48.117746149539016 132.76653696550056,45.128173744422384 131.8060033353977,46.68795127235353 121.0,44.218302894267254 129.16453585308045,56.69649150792975 128.20400222344324,57.346394789638 140.09060589177534,43.958339709206484 138.64980544755235,41.87863287643995 135.88827126193792,42.008614624268375 140.69093941058964,39.538959810859524 148.85547526413575,49.15759625437204 137.3290717061609,47.467839528108016 150.65647582011297,51.10731357813347 146.5742078931071,41.098742193426006 145.2534741521813,47.85778352920897 138.76987215084955,50.717370282742195 139.61033907765523,52.14716195198707 146.33407448558137,44.47826604091097 144.17287381878123,43.56839486141689 145.9738743742928,44.47826604091097 145.73374096723273,41.87863287643995 148.3752084490843,39.408977884449996 150.4163424121216,39.408977884449996 151.8571428572759,41.87863287643995" stroke="#4dd2ff" stroke-linecap="round" stroke-linejoin="round" stroke-width="0.5"><title>2022-05-22 3.4km</title></polyline><polyline fill="none" points="174.45320196915418,46.64919660042506 172.6291344119236,44.83905879268423 175.82125263754278,42.04157025553286 182.81351161096245,42.37068673258182 180.38142153341323,43.028919543954544 182.35749472118914,49.28212174796499 179.31738212425262,53.23150375240948 175.2132301190868,53.560618609772064 175.82125263754278,50.76314080366865 173.0851513016969,52.73783137684222 172.93314567115158,47.471986036747694 167.46094299666584,54.054290806292556 163.2047853609547,51.75048630463425 161.8367346925661,54.877077562734485 158.49261083640158,51.5859287509229 164.4208303997293,43.85171029041521 168.67698803544044,45.33273288339842 178.8613652344793,43.028919543954544 182.20548909157515,39.408636723062955 188.28571428451687,44.01626840385143 187.52568613551557,42.53524495358579 184.02955664973706,46.155522795859724 177.79732582625002,47.307428173022345 179.16537649463862,48.45933296682779 168.52498240582645,48.95300627115648 158.94862772524357,53.39606118691154 157.4285714281723,51.092256018309854 163.660802250728,47.965659555164166 164.87684728950262,44.83905879268423 170.04503870382905,49.11756401567254 169.58902181498706,51.75048630463425 181.29345531295985,50.269467892474495 186.76565798651427,45.33273288339842 177.4933145660907,44.67450073850341 172.17311752215028,49.11756401567254 165.02885291911662,47.471986036747694 163.660802250728,50.76314080366865 159.1006333557889,52.2441588944057 162.2927515823394,51.91504384658765 160.7726952843368,48.29477517504711 169.13300492521375,53.88973341928795 179.16537649463862,49.775794873829 178.55735397525132,47.965659555164166 183.72554538957775,50.269467892474495 187.22167487628758,46.81375451129861 181.29345531295985,45.49729088973254 182.81351161096245,51.092256018309854 178.7093596048653,46.32008074235637 177.79732582625002,47.965659555164166 182.81351161096245,50.927698416868225 184.18156227935106,47.965659555164166 181.59746657218784,45.99096483748872 180.53342716302723,48.29477517504711 182.35749472118914,46.155522795859724 173.23715693037957,48.95300627115648 181.74947220273316,45.661848883959465 178.55735397525132,50.59858317824546" stroke="#4dd2ff" stroke-linecap="round" stroke-linejoin="round" stroke-width="0.5"><title>2022-05-05 2.2km</title></polyline><polyline fill="none" points="31.067669173236936,77.17966910894029 24.165413534268737,77.6192121093627 19.834586466196924,81.575094818254 14.421052631456405,82.45417881489266 12.25563909765333,85.82399726542644 14.421052631456405,87.58216118637938 27.41353383474052,82.01463686442003 31.203007518779486,84.5053733222885 39.187969924882054,84.9449147322448 41.89473684178665,83.04023460054304 37.29323308262974,77.17966910894029 23.35338345868513,77.03315475443378 21.187969924882054,80.98903860861901 14.285714285913855,82.30766484211199 12.39097744366154,84.65188713616226 13.879699248354882,86.99610671575647 18.210526315961033,84.35885949805379 23.894736842252314,84.9449147322448 27.41353383474052,82.16115085838828 31.47368421079591,87.14262034953572 41.21804511267692,84.5053733222885 41.759398496709764,79.67041151598096 37.42857142863795,75.86103953514248 30.932330827228725,75.27498167078011 23.894736842252314,77.76572642137762 21.323308270424604,81.72160884435289 15.909774436615407,81.575094818254 11.984962406102568,86.84959307173267 20.917293233331293,86.26353838888463 28.6315789478831,83.04023460054304 30.25563909765333,85.53096979670227 40.27067669155076,84.0658318172209 41.759398496709764,80.54949633986689 33.639097744598985,76.30058282148093 22.812030075583607,78.64481207239442 18.751879699062556,82.16115085838828 13.067669172771275,82.45417881489266 12.526315790135413,86.55656575132161 23.082706766668707,85.53096979670227 27.819548872299492,82.16115085838828 32.55639097793028,85.3844560465077 37.969924812205136,83.62629021645989 42.300751879345626,80.10995397553779 39.458646616432816,80.69601043977309 34.31578947370872,77.03315475443378 29.17293233051896,79.81692567991558 24.165413534268737,77.03315475443378 21.052631578873843,81.72160884435289 14.150375939439982,82.30766484211199 11.714285714086145,85.53096979670227 13.879699248354882,87.28913397225551 17.263157894834876,84.79840093955863 23.75939849577844,84.79840093955863 26.330827068071812,81.13555267674383 32.15037593990564,84.35885949805379 39.323308270890266,83.47977632842958 42.57142857136205,80.84252452966757 41.21804511267692,83.62629021645989 34.45112781971693,77.6192121093627 31.744360902812332,78.79132631071843 24.70676691737026,76.74012601294089 19.969924811739475,81.28206673485693 14.827067669015378,81.72160884435289 12.39097744366154,86.55656575132161 20.64661654084921,86.70307941676583 27.41353383474052,83.33326242980547 36.48120300704613,86.41005207551643 40.812030075117946,82.89372067013755 37.5639097741805,78.35178356477991" stroke="#4dd2ff" stroke-linecap="round" stroke-linejoin="round" stroke-width="0.5"><title>2022-04-21 3.2km</title></polyline><polyline fill="none" points="71.7394957980141,83.01572980859783 65.73561732377857,85.43420576339122 63.50161603093147,83.77150384522974 52.89010988967493,88.00383339659311 58.75436328398064,79.53916571720038 72.9961215252988,78.48107984510716 69.50549450563267,85.1318964221282 63.08274078834802,85.43420576339122 56.38073691027239,89.96884062967729 56.65998707152903,84.07381338358391 60.01098901126534,78.32992467656732 62.94311570748687,79.84147586743347 66.15449256589636,76.81837239128072 75.09049773775041,74.85335278441198 74.9508726564236,73.19064244208857 77.464124110993,81.50418091472238 72.85649644443765,79.84147586743347 64.06011635391042,80.44609603798017 56.38073691027239,87.24806089128833 55.82223658636212,88.9107600414427 58.335488041397184,88.30614232178777 58.05623787967488,92.99192507041153 59.31286360695958,86.03882431436796 57.77698771748692,82.56226525537204 66.29411764675751,82.86457496858202 73.2753716870211,73.94642003474291 78.0226244344376,71.67908643686678 77.0452488688752,73.19064244208857 79.0,73.79526453814469 73.2753716870211,80.14378597482573 56.65998707152903,85.73651506076567 54.705235940404236,89.66653194499668 56.52036199066788,80.14378597482573 60.70911441510543,77.1206829356961 68.10924369748682,77.72530389332678 74.11312217125669,74.55104191158898 75.36974789900705,79.99263092700858 68.24886877788231,84.98074173519854 64.75824175821617,80.14378597482573 67.82999353576452,83.92265862005297 55.82223658636212,88.15498786466196 59.03361344523728,85.28305109823123 58.335488041397184,79.99263092700858 64.61861667688936,76.21375117043499 69.2262443434447,77.42299343657214 76.2074983837083,74.24873099499382 76.76599870668724,76.06259583809879 71.32062055543065,80.44609603798017 65.59599224338308,80.44609603798017 65.87524240463972,78.02761430689134 60.56948933377862,82.4111103824107 57.63736263755709,81.0507160333218 53.02973497053608,90.4223035746254 56.93923723325133,79.08570040890481 59.871363929938525,77.1206829356961 74.39237233391032,73.34179798269179 78.72074983874336,79.23685552238021 56.24111182941124,87.09690635767765 50.376858435571194,79.53916571720038 48.1428571427241,82.2599554983899 49.25985778961331,87.24806089128833 51.49385908199474,87.85267891711555 53.308985132258385,75.60912977496628 59.592113768681884,73.94642003474291 62.524240465369076,76.21375117043499 74.53199741384014,69.86521778674796 74.9508726564236,73.19064244208857 71.18099547550082,74.85335278441198 65.17711700079963,84.22496813593898 73.6942469291389,76.51606180274393 77.1848739492707,77.27183819143102 74.39237233391032,78.6322350022383 75.64899806072935,79.84147586743347" stroke="#4dd2ff" stroke-linecap="round" stroke-linejoin="round" stroke-width="0.5"><title>2022-04-18 3.7km</title></polyline><polyline fill="none" points="94.71624266123399,84.28861026198138 92.60273972572759,83.48780269350391 92.07436399161816,84.97501642617863 105.49510763213038,78.22534286498558 108.66536203445867,79.82696292852052 112.15264187846333,77.31013067136519 114.90019569406286,78.22534286498558 106.55185909941792,82.11498877534177 105.17808219185099,81.7717851094203 110.67318982351571,77.31013067136519 95.7729941289872,84.51741234981455 89.85518591012806,81.5429826239124 100.63405088055879,80.85657496936619 100.3170254402794,82.34379117761273 105.91780821839347,78.33974435192067 108.55968688800931,81.6573838707991 110.2504892363213,79.7125615492696 115.42857142817229,84.97501642617863 93.65949119348079,84.86061541968957 94.3992172209546,86.11902603751514 93.3424657532014,86.23342695320025 92.70841487310827,83.83100598677993 91.65166340535507,84.74621440446936 93.3424657532014,87.03423313051462 99.68297455925494,78.5685473009944 106.86888453969732,80.85657496936619 111.94129158463329,79.7125615492696 112.25831702491269,81.08537755405996 103.90998043026775,83.37340157921426 103.69863013690338,81.7717851094203 101.58512720139697,81.5429826239124 93.44814090011641,83.37340157921426 93.65949119348079,81.19977883377578 84.57142857136205,85.43262037006207 102.9589041089639,76.85252437600866 106.23483365913853,78.5685473009944 109.29941291548312,77.65333530597854 111.6242661443539,79.7125615492696 110.5675146766007,77.76773683459032 112.04696673154831,80.0557656622259 97.35812133084983,80.74217366462108 98.30919765122235,82.91579703916796 94.0821917806752,85.66142229258548 93.76516634039581,83.83100598677993 91.86301369825378,83.94540706800763 92.91976516600698,82.00058756163344 104.43835616391152,76.3949179481715 104.86105675110593,79.14055452856701 105.07240704447031,77.76773683459032 106.23483365913853,79.94136429927312 107.71428571362048,79.02615309949033 109.1937377685681,82.00058756163344 106.86888453969732,80.0557656622259 102.11350293504074,81.7717851094203 102.85322896251455,76.96692596212961 100.95107632083818,76.16611468431074 92.2857142854482,83.83100598677993 93.76516634039581,81.8861863395432 92.60273972572759,78.5685473009944 101.37377690756693,75.82290972664487 99.99999999953434,79.14055452856701 105.91780821839347,81.8861863395432 112.46966731827706,76.16611468431074" stroke="#4dd2ff" stroke-linecap="round" stroke-linejoin="round" stroke-width="0.5"><title>2022-04-06 3.4km</title></polyline><polyline fill="none" points="133.62594753829762,72.32640333415475 130.5251721702516,72.58462340186816 136.6074623153545,75.94148087932263 133.38742635631934,80.33120804862119 121.58062784047797,85.108251811238 124.91992439050227,88.46508572052699 124.56214261753485,92.33834776643198 123.13101552426815,85.88290635100566 124.56214261753485,83.30072324327193 133.9837293117307,79.81477011879906 138.99267413653433,71.68085300154053 134.222250493709,77.49079758417793 135.2955958135426,88.98152114602271 129.80960862431675,90.2726090552751 127.18587562115863,94.01675870793406 131.59851749008521,76.32881018170156 138.15784999914467,66.00000000011642 139.46971650095657,80.84764582884964 137.68080763472244,81.75141158455517 139.11193472752348,81.75141158455517 140.54306182079017,88.33597684057895 146.38683078298345,88.07775905355811 147.93721846677363,90.91815265920013 141.2586253671907,87.1739965028828 136.6074623153545,87.30310546676628 127.90143916709349,94.01675870793406 132.67186280991882,94.27497563546058 136.6074623153545,90.53082652494777 136.84598349779844,87.56132336636074 143.52457659691572,89.75617400370538 149.24908496811986,87.43221442110371 146.98313373839483,86.01201540813781 151.27651501633227,86.27023349481169 145.79052782757208,88.33597684057895 133.26816576486453,88.72330345166847 127.6629179851152,93.6294332460966 128.4977421220392,79.81477011879906 128.37848153198138,86.14112445584033 130.16739039728418,86.78666955570225 138.8734135455452,84.85003355634399 148.17573964828625,86.65756055433303 150.5609514703974,85.108251811238 147.57943669334054,85.88290635100566 148.29500023974106,87.56132336636074 135.77263817796484,88.46508572052699 137.56154704419896,92.08013055834454 137.44228645274416,90.78904395736754 136.84598349779844,92.5965649371501 131.59851749008521,92.5965649371501 128.37848153198138,96.08249308308586 135.2955958135426,87.81954122846946 139.23119531897828,90.01439154800028 145.55200664512813,87.69043230218813 132.67186280991882,92.5965649371501 124.68140320805833,93.11299916624557 125.51622734591365,95.43695134797599 131.83703867252916,96.85714285715949 135.41485640453175,93.37121622485574 143.1667948239483,95.43695134797599 147.8179578757845,93.11299916624557 148.29500023974106,90.14350030641071 137.68080763472244,88.07775905355811 136.36894113291055,91.69280467601493 126.23179089231417,93.88765022996813 134.34151108469814,88.46508572052699 148.41426083119586,89.62706521712244 147.93721846677363,88.07775905355811" stroke="#4dd2ff" stroke-linecap="round" stroke-linejoin="round" stroke-width="0.5"><title>2022-03-20 3.8km</title></polyline><polyline fill="none" points="173.185410334263,69.77233220636845 162.0243161097169,71.47813269507606 157.42857142863795,75.60047775914427 158.0851063830778,79.7228141707601 163.46869300911203,84.55588722112589 178.56899696029723,76.31122603360564 187.4978723404929,76.02692675462458 188.28571428591385,79.58066478359979 181.85167173249647,81.85505374718923 181.06382978707552,84.55588722112589 184.215197567828,87.39886581280734 187.4978723404929,87.39886581280734 180.27598784165457,85.55093019630294 178.04376899683848,86.83027042355388 183.82127659535035,85.693079151446 185.0030395137146,82.28150138480123 176.20547112450004,83.98729100869969 178.83161094225943,86.54597266728524 185.13434650423005,86.54597266728524 186.18480243114755,84.2715891355183 184.7404255317524,82.13935218274128 178.17507598828524,84.41373818344437 176.20547112450004,86.54597266728524 176.73069908795878,91.23688038380351 180.01337386015803,90.52613751054741 183.82127659535035,84.98233427235391 183.2960486318916,82.42365057673305 176.46808510599658,84.69803624844644 179.09422492375597,86.54597266728524 185.3969604857266,86.11952595575713 186.3161094225943,83.5608437419869 176.73069908795878,83.7029928410193 175.28632218809798,86.11952595575713 178.83161094225943,91.37902892753482 182.50820668693632,88.82035356550477 183.55866261338815,83.5608437419869 180.93252279609442,83.98729100869969 184.215197567828,85.26663225458469 178.30638297833502,84.2715891355183 176.07416413351893,85.97737703146413 175.94285714253783,91.80547449702863 178.30638297833502,93.08481065079104 181.72036474151537,90.66828610550147 177.51854103291407,85.55093019630294 185.0030395137146,86.40382377395872 186.5787234036252,83.7029928410193 181.72036474151537,82.28150138480123 177.3872340428643,84.12944007734768 181.85167173249647,86.40382377395872 183.95258358633146,84.55588722112589 177.64984802436084,83.98729100869969 178.4376899697818,86.54597266728524 184.3465045588091,86.26167486992199 185.3969604857266,83.98729100869969" stroke="#4dd2ff" stroke-linecap="round" stroke-linejoin="round" stroke-width="0.5"><title>2022-03-13 2.2km</title></polyline><polyline fill="none" points="26.846153846010566,115.79460045113228 16.16483516525477,119.00664068828337 21.208791208453476,118.52483494929038 20.76373626384884,120.29145548131783 27.142857142724097,113.54616951872595 32.33516483567655,114.99158966518007 36.48901098873466,112.26135081995744 42.42307692300528,114.67038526968099 15.423076923005283,123.34288763313089 16.609890109859407,119.9702518528793 22.84065934084356,117.72182515112218 20.76373626384884,120.29145548131783 22.84065934084356,115.63399831741117 34.8571428572759,115.3127940146951 37.379120878875256,111.45833875553217 39.90109890140593,111.2977363076061 39.6043956046924,113.38556722179055 27.291208791546524,115.63399831741117 16.906593406572938,122.37927793327253 13.494505494832993,122.37927793327253 21.653846153989434,120.45205727790017 23.582417583093047,111.13713384838775 27.73626373615116,114.50978305411991 37.52747252769768,111.45833875553217 42.57142857182771,114.50978305411991 29.516483517363667,116.43700887064915 14.087912088260055,123.50348920910619 28.03296703286469,114.99158966518007 27.142857142724097,111.13713384838775 30.109890109859407,109.53110861510504 31.74175824224949,112.42195319803432 39.6043956046924,113.38556722179055 30.70329670328647,120.45205727790017 19.873626373708248,116.43700887064915 11.714285714551806,122.05807460681535 12.6043956046924,119.00664068828337 36.04395604413003,113.22496491367929 38.71428571455181,107.92508221929893 39.45604395586997,111.61894119170029 31.148351648822427,112.90376026195008 35.45054945163429,117.88242713431828 39.45604395586997,111.94014602922834 38.56593406572938,109.04930081847124" stroke="#4dd2ff" stroke-linecap="round" stroke-linejoin="round" stroke-width="0.5"><title>2022-03-10 2.4km</title></polyline><polyline fill="none" points="63.69485714286566,117.05052598624025 62.83085714234039,114.37810483376961 60.11542857112363,114.37810483376961 53.32685714261606,117.31776788865682 49.62399999983609,120.791909100255 50.85828571440652,123.19707995583303 59.62171428557485,126.27034926635679 64.92914285697043,123.99880287784617 71.34742857096717,124.53328463237267 78.99999999953434,113.97724132728763 78.62971428548917,108.23152150213718 75.91428571380675,105.15822216204833 64.18857142841443,114.77896825328935 52.70971428602934,117.71863066987135 49.62399999983609,121.05915046122391 52.58628571406007,125.06776623253245 60.609142856672406,121.32639178354293 67.27428571414202,122.92983890429605 75.29714285675436,120.9255297856871 77.6422857134603,114.24448367487639 75.05028571374714,111.57205846044235 50.85828571440652,118.38673511170782 48.88342857128009,123.46432096837088 51.96914285654202,126.00310866010841 58.14057142846286,125.4686273309635 64.06514285691082,121.86087431199849 69.3725714283064,123.06345943501219 77.27199999941513,121.99449491966516 76.90171428536996,113.70999894139823 73.69257142813876,111.17119434464257 52.83314285706729,118.38673511170782 48.75999999977648,122.52897725452203 52.58628571406007,125.86948834208306 60.36228571413085,124.13242333114613 64.18857142841443,119.58932249771897 70.60685714241117,122.662597814342 77.51885714288801,122.26173610659316 78.1359999999404,112.77465028571896 74.80342857120559,111.17119434464257 67.0274285711348,115.0462104845792 61.84342857077718,114.6453471230343 58.75771428551525,117.4513888254296 51.96914285654202,118.38673511170782 48.88342857128009,121.86087431199849 49.25371428579092,124.39966420840938 51.84571428550407,125.06776623253245 60.979428571648896,120.791909100255 64.68228571396321,123.3307004669914 71.96457142848521,122.79621836415026 76.16114285681397,118.92121849092655 75.91428571380675,113.30913528974634 73.93942857114598,111.03757295326795 68.6319999997504,113.97724132728763 63.07771428581327,114.37810483376961 58.51085714250803,117.71863066987135 50.73485714290291,118.78759766090661 48.1428571427241,121.86087431199849 48.88342857128009,124.26604377455078 53.94400000013411,125.4686273309635 62.33714285725728,120.25742626260035 69.00228571426123,122.12811551790219 74.18628571368754,119.85656403261237 76.65485714236274,117.31776788865682 76.28457142785192,111.43843709805515 67.89142857119441,112.90827155124862" stroke="#4dd2ff" stroke-linecap="round" stroke-linejoin="round" stroke-width="0.5"><title>2022-03-06 3.6km</title></polyline><polyline fill="none" points="92.38174273772165,115.43707915826235 89.94902193220332,112.80347072181758 87.90041493764147,117.51624115509912 89.18079430935904,119.87262202298734 103.26496739778668,120.5656746677123 110.30705394176766,116.54596583754756 113.5080023710616,117.93207328370772 111.97154712537304,114.46680278691929 99.42382928263396,114.05096990626771 89.05275637190789,116.68457662709989 88.28452874906361,119.4567903156858 90.46117368107662,121.39733750990126 98.52756372233853,119.4567903156858 104.4173088320531,120.5656746677123 109.02667457051575,117.10040893638507 111.2033195020631,117.51624115509912 112.86781268520281,114.46680278691929 110.56312981620431,115.71430088824127 106.08180201565847,114.05096990626771 102.88085358636454,116.13013340812176 93.53408417245373,115.71430088824127 86.62003556545824,119.31817972671706 87.51630112621933,120.98150613391772 96.09484291588888,116.40735503786709 104.92946058092639,116.68457662709989 110.81920569064096,113.21930387336761 112.99585062265396,113.7737479355419 111.71547125047073,115.99152257817332 103.52104327222332,110.58569238695782 96.60699466522783,112.94208178215194 88.02845287462696,120.98150613391772 90.8452874920331,122.22899999131914 99.42382928263396,118.34790532186162 104.92946058092639,119.1795691276202 109.53882631845772,116.96179817663506 111.5874333139509,114.46680278691929 110.94724362762645,111.97180414712057 108.64256075909361,112.80347072181758 104.6733847069554,110.0312474021921 88.9247184349224,114.88263557769824 89.18079430935904,121.95177920442075 89.43687018333003,120.28845363983419 96.73503260221332,117.51624115509912 106.5939537640661,119.4567903156858 109.41078838193789,118.20929465233348 109.92294013081118,112.94208178215194 100.3200948429294,110.0312474021921 87.77237700019032,118.4865159811452 90.20509780617431,121.25872706144582 100.3200948429294,117.10040893638507 105.05749851837754,120.14984311105218 111.97154712537304,116.54596583754756 112.35566093632951,111.69458187499549 91.48547717835754,120.5656746677123 92.8938944870606,123.33788273797836 96.99110847664997,119.59540089475922 99.8079430940561,120.14984311105218 99.55186722008511,116.68457662709989 102.4967397749424,118.90234789915849 112.09958506235853,115.99152257817332 114.02015411993489,112.2490263787331 111.07528156461194,109.6154135579709 108.00237107323483,111.69458187499549 99.67990515660495,112.2490263787331 96.47895672777668,115.99152257817332 90.7172495550476,115.99152257817332 87.64433906273916,119.1795691276202 89.43687018333003,122.64483109675348 93.66212211037055,122.64483109675348 99.55186722008511,117.23901968589053 108.00237107323483,120.70428516645916 113.89211618248373,117.10040893638507 114.66034380532801,111.14013721130323 112.22762299934402,110.44708115572575 99.93598103150725,112.11041526764166 96.60699466522783,115.15985738800373 89.56490812031552,113.63513693504501 90.97332542901859,116.54596583754756 84.57142857136205,117.79346258426085 88.4125666860491,121.67455837747548 95.83876704191789,118.62512663053349 97.11914641363546,119.87262202298734 98.78363959677517,117.3776304256171 104.2892708950676,120.14984311105218 112.35566093632951,119.59540089475922 115.42857142863795,113.7737479355419 112.48369887378067,108.09068869042676 112.09958506235853,110.58569238695782 109.15471250750124,112.11041526764166" stroke="#4dd2ff" stroke-linecap="round" stroke-linejoin="round" stroke-width="0.5"><title>2022-02-27 4.2km</title></polyline><polyline fill="none" points="133.7684729071334,119.25230783841107 128.44827586226165,124.02447620627936 123.43209007754922,123.36624668224249 122.21604503877461,119.74598089267965 131.18437719997019,119.74598089267965 131.48838845919818,121.55611450818833 142.12878254801035,111.35352439223789 151.2491203378886,114.15101333451457 146.08092892356217,122.87257441401016 151.8571428572759,106.91044664417859 146.9929627031088,109.21426581952255 140.15270936023444,108.06235652358737 137.11259676329792,116.12570933904499 133.7684729071334,116.12570933904499 133.61646727658808,118.59407693275716 126.62420830409974,120.73332667991053 122.97607318870723,124.84726284374483 138.0246305419132,114.64468749659136 136.2005629837513,115.6320354990894 141.21674876939505,122.21434455621056 137.56861365307122,120.40421146526933 144.56087262555957,113.6573390654521 144.40886699501425,122.3789020384429 139.24067558068782,115.6320354990894 127.38423645310104,124.51814822433516 121.0,124.02447620627936 122.36805066931993,127.15106384351384 121.30401126015931,122.87257441401016 126.47220267448574,113.1636646889383 130.42434905003756,118.10040362842847 138.3286418011412,121.39155696623493 135.744546093978,104.27750758489128 138.17663617245853,106.74588804226369 141.36875439807773,106.08765351586044 145.92892329394817,116.78394095960539 145.32090077456087,121.72067203803454 138.3286418011412,117.11305669834837 136.5045742439106,120.5687690784689 133.9204785367474,117.44217238947749 126.47220267448574,120.07509620301425 124.04011259693652,125.83460641501006 124.95214637648314,118.75863467727322 132.24841660819948,125.50549193902407 138.48064743168652,125.99916363530792 135.744546093978,113.1636646889383 136.96059113368392,106.91044664417859 143.80084447655827,108.22691503004171 143.34482758678496,120.23965383984614 144.86488388478756,115.6320354990894 143.49683321639895,117.11305669834837 142.43279380816966,113.49278095201589 149.577058410272,116.94849883462302" stroke="#4dd2ff" stroke-linecap="round" stroke-linejoin="round" stroke-width="0.5"><title>2022-02-13 2.6km</title></polyline><polyline fill="none" points="178.16234188480303,101.3571697929874 180.41903102351353,102.77148809510982 181.5275800738018,104.61438263411401 183.9030423250515,105.9001196147874 185.6450479759369,109.80017138499534 187.2682805142831,111.21446952933911 185.249137600651,119.78590119408909 182.95285742473789,122.18587983760517 182.00267252419144,127.92864641395863 180.65657724859193,129.04290810792008 175.78687963355333,128.82862717559328 171.94654899439774,131.1428571428405 168.85844806791283,131.1000011144206 166.60175892943516,130.32859207398724 165.17648157849908,130.88572092616232 164.82016224088147,130.28573598666117 161.21737782657146,129.3857574381982 158.64396038791165,125.22869592672214 158.4460052002687,122.0573097995948 160.0692377386149,119.35733255610103 163.5532490403857,117.51448388013523 164.85975327831693,116.14305788942147 165.88912025396712,112.62876429711469 165.691165066557,109.92874408315402 167.63112590485252,102.94292038714048 171.78818484419025,100.28571428568102 175.6285154838115,100.9714460336836" stroke="#4dd2ff" stroke-linecap="round" stroke-linejoin="round" stroke-width="0.5"><title>2022-02-12 2.4km</title></polyline><polyline fill="none" points="29.08185299113393,143.17790859832894 24.137413577642292,158.92133743455634 17.06007873127237,162.59477956872433 28.112355066929013,154.51319458975922 29.178802783135325,157.97673652449157 34.60799115942791,155.98257702682167 33.2506940648891,158.71142617438454 36.15918783750385,161.86009188636672 35.28663970576599,163.01460093434434 29.566601953469217,160.9154928905191 24.62216253997758,162.07000269077253 20.64722105069086,160.60062642209232 16.18753059953451,163.32946687890217 16.575329769402742,158.71142617438454 18.9990745796822,157.13709075457882 28.694053821265697,160.39071540499572 33.73544302722439,155.77266534150112 32.28119614068419,159.02629305329174 33.73544302722439,141.2886856511468 26.076409426052123,146.7464341155719 28.5971040292643,145.06712908367626 27.530656312126666,144.75225917366333 23.555714823305607,159.34115986374673 19.289923957083374,160.60062642209232 17.641777486074716,163.85424330132082 19.386873749550432,159.8659377291333 26.367258803453296,158.60647053283174 31.40864800894633,155.56275362544693 34.801890743896365,154.723106457619 38.001233893446624,156.61231190129183 38.09818368591368,158.18664789106697 35.77138866810128,159.23620426782873 37.80733430851251,158.29160356288776 37.80733430851251,150.20999460143503 30.1483007078059,134.57142857136205 28.887953406199813,138.97963203990366 32.66899531055242,140.8688579952577 23.07096586097032,165.42857142852154 25.4947106721811,161.2303592909593 20.453321466222405,159.13124866422731 16.575329769402742,164.37901953351684 25.688610256649554,156.61231190129183 25.00996170984581,157.97673652449157 26.94895755778998,158.29160356288776 25.39776087924838,159.4461154518649 30.1483007078059,155.56275362544693 28.5971040292643,150.8397319826763 35.09274012129754,160.9154928905191 36.93478617677465,159.76098217139952 37.03173596970737,161.1254038317129 34.12324219709262,159.34115986374673 30.24525050027296,159.23620426782873 28.306254651863128,164.37901953351684 24.913011917378753,161.86009188636672 29.469652160536498,156.61231190129183 22.392317314632237,144.8572158179013 36.06223804503679,156.0875328584807" stroke="#4dd2ff" stroke-linecap="round" stroke-linejoin="round" stroke-width="0.5"><title>2022-02-09 3.9km</title></polyline><polyline fill="none" points="67.09993593860418,144.75703282852191 54.23126201145351,147.9028213120764 48.1428571427241,152.99599252827466 53.124279307667166,156.29156722465996 57.552210121415555,154.34418281097896 67.93017296586186,154.7935793766519 71.80461242748424,152.8461935535306 72.77322229323909,149.55061337118968 78.30813581030816,148.05262064444833 79.0,151.3482032122556 76.09417040320113,152.39679656527005 66.54644458647817,147.30362387408968 52.709160794038326,148.50201857613865 49.38821268454194,152.09719851845875 51.187059577554464,155.99196974211372 62.39525944925845,152.39679656527005 63.91736066620797,155.24297584511805 68.48366431705654,155.39277464640327 75.67905188957229,149.70041258411948 74.84881486184895,147.15382448770106 71.66623958945274,146.40482739254367 52.98590647010133,148.35221927659586 48.83472133195028,152.6963945684256 50.91031390149146,156.74096336774528 58.244074310641736,155.99196974211372 63.08712363848463,152.2469975472195 64.19410634180531,154.94337821064983 70.28251121053472,155.09317703323904 75.26393337547779,150.74900677183177 76.37091607926413,152.09719851845875 78.86162716150284,146.55462683329824 68.34529147995636,147.9028213120764 60.8731582313776,145.05663193797227 57.690582958981395,149.1012156669749 52.017296604346484,148.65181786532048 48.41960281832144,152.2469975472195 51.740550928749144,156.44136594992597 62.948750800453126,151.9473994789878 65.02434336906299,155.09317703323904 69.1755285076797,155.39277464640327 75.8174247276038,147.9028213120764 63.22549647651613,149.1012156669749 64.88597053149715,155.24297584511805 72.77322229323909,155.5425734365126 75.26393337547779,152.8461935535306 75.12556053791195,146.70442626299337 72.08135810308158,143.25903663225472 66.96156310010701,143.85823524126317" stroke="#4dd2ff" stroke-linecap="round" stroke-linejoin="round" stroke-width="0.5"><title>2022-02-07 2.3km</title></polyline><polyline fill="none" points="104.70824949722737,148.98062887007836 102.82494969852269,147.5691402037628 99.63782696146518,147.7259723233292 100.36217303853482,149.13746088708285 101.81086519081146,148.03963652811944 103.25955734401941,151.9604352567112 108.18511066399515,153.9992477920605 101.08651911467314,154.62657433992717 101.2313883304596,152.43093062739354 98.18913480918854,151.9604352567112 91.09054325986654,155.56756382156163 85.87525150831789,153.68558444979135 84.86116700153798,150.39211661648005 91.23541247472167,149.4511248874478 97.03018108662218,143.96199832425918 104.56338028144091,144.90299243689515 112.09657947719097,146.9418116126908 112.5311871226877,150.39211661648005 110.06841046269983,154.31291108881123 106.73641851078719,152.90142589609604 102.96981891337782,155.25390070630237 100.21730382274836,152.2740988485748 90.94567404408008,155.25390070630237 85.00603621732444,153.9992477920605 87.61368209216744,155.56756382156163 95.72635814826936,151.9604352567112 96.74044265598059,144.58932777808513 103.69416499044746,145.21665705018677 106.01207243464887,149.92162080307025 113.25553319882601,146.78497943631373 114.26961770653725,151.17627607868053 110.35814889334142,157.13587871589698 106.73641851078719,157.44954155827872 104.41851106658578,152.43093062739354 99.05835010111332,151.0194442087086 95.87122736405581,158.8610237883404 91.09054325986654,162.62497190700378 84.57142857182771,158.23369846655987 86.4547283705324,154.15607944584917 90.94567404408008,154.94023754599039 92.97384305857122,157.9200357372174 95.29175050277263,149.13746088708285 101.2313883304596,145.05982474947814 106.156941649504,146.62814724899363 108.61971830949187,145.05982474947814 115.13883299846202,148.66696480137762 103.549295774661,153.84241612674668 99.49295774661005,152.11726705811452 91.81488933600485,156.9790472772438 86.1649899398908,154.31291108881123 86.02012072410434,150.54894853185397 87.32394366152585,148.98062887007836 93.98792756535113,149.76478884287644 98.76861167047173,144.74616011290345 103.8390342053026,146.31448283954524 110.9376257546246,143.49150111468043 114.41448692139238,144.43249543197453 115.42857142910361,150.2352846902795 98.62374245468527,142.86417134315707 99.78269617725164,141.76634380535688 97.60965794697404,145.21665705018677 102.82494969852269,145.68715388537385 102.96981891337782,143.17783625144511 111.2273641852662,142.23684138967656 106.44668008107692,137.3750280928798 103.40442655887455,137.6886937962845 97.17505030147731,147.41230807325337 99.92756539210677,148.3533006872749 101.52112676110119,145.8439861406805 110.06841046269983,143.17783625144511 112.24144869297743,141.13901353429537 110.9376257546246,140.19801778683905 113.25553319882601,142.08000887278467 112.82092555332929,145.05982474947814 102.53521126694977,151.8036034438992" stroke="#4dd2ff" stroke-linecap="round" stroke-linejoin="round" stroke-width="0.5"><title>2022-02-06 3.0km</title></polyline><polyline fill="none" points="144.7585513079539,141.0606068619527 122.88329979870468,148.58854341774713 123.02816901449114,151.72517593065277 124.76659959740937,149.21587028331123 138.81891348026693,144.51091436296701 142.8752515092492,148.58854341774713 150.69818913470954,147.0202254585456 138.0945674041286,145.76557027420495 127.66398390382528,152.50933334918227 123.8973843054846,149.05903858412057 121.0,150.00002861046232 125.34607645869255,155.33229770697653 125.2012072429061,160.19406103610527 133.74849094543606,161.13504622667097 134.61770623736084,157.84159627137706 143.59959758538753,157.68476519617252 145.19315895345062,159.56673734879587 151.8571428572759,155.48912895249669 143.30985915474594,142.78576129931025 139.83299798797816,143.4130898450967 137.3702213279903,141.0606068619527 130.706237424165,142.78576129931025 132.5895372228697,149.21587028331123 129.6921529173851,149.84319696738385 129.40241448767483,152.82299623743165 132.5895372228697,152.50933334918227 141.28169014118612,142.6289291344583 143.88933601602912,144.51091436296701 147.6559356134385,141.6879359073937 139.6881287721917,147.6475527783623 135.05231388285756,144.0404182090424 125.34607645869255,149.37270197144244 125.49094567447901,151.41151288338006 134.03822937607765,147.96121637022588 137.22535211220384,149.21587028331123 145.04828973766416,139.8059482264798 142.44064386375248,152.82299623743165 139.54325955733657,150.94101822783705 139.10865191183984,152.66616479877848 140.2676056334749,151.41151288338006 145.91750502958894,155.0186351822922 151.5674044266343,151.72517593065277 145.4828973840922,138.86495377321262 148.6700201202184,139.33545105077792 147.0764587521553,139.17861863656435 147.3661971827969,141.0606068619527" stroke="#4dd2ff" stroke-linecap="round" stroke-linejoin="round" stroke-width="0.5"><title>2022-02-05 2.4km</title></polyline><polyline fill="none" points="171.03376623382792,152.65681771590607 171.59480519476347,156.67989255132852 172.64675324689597,157.5907752799103 187.86493506492116,158.04621634777868 188.28571428591385,155.76900903275236 187.09350649360567,153.64361108344747 185.34025974059477,153.1122609236627 181.90389610407874,154.32677517912816 181.062337662559,153.1122609236627 178.18701298697852,153.26407528232085 176.4337662337348,147.34329902747413 168.9298701302614,143.0924647169304 168.29870129888877,138.61388852319214 159.1116883121431,139.37297057855176 157.9194805198349,141.42248938675039 157.42857142863795,150.0759691396379 158.83116883132607,154.40268227341585 160.79480519518256,155.00993883033516 161.9168831172865,160.77885860722745 164.86233766260557,161.31020488741342 171.03376623382792,155.9967299864511 172.29610389634036,156.90761330758687 186.95324675319716,157.81849583837902 188.14545454550534,156.3762647997355 185.55064935074188,153.56770393409533 181.83376623387448,154.4785893621738 180.85194805194624,153.33998245361727 177.62597402604297,153.03635373612633 176.29350649379194,147.34329902747413 170.192207792541,144.4588061933755 168.50909090950154,141.87793746741954 168.36883116909303,138.68979675340233 162.47792207822204,138.7657049780828 159.53246753290296,139.52478692366276 158.19999999995343,141.346581354097 157.7792207794264,150.53141346701887 158.90129870153032,154.70631059579318 161.00519480532967,155.1617529146606 161.56623376649804,160.39932538528228 163.45974025991745,161.38611147680786 164.44155844161287,160.62704533484066" stroke="#4dd2ff" stroke-linecap="round" stroke-linejoin="round" stroke-width="0.5"><title>2022-02-02 2.7km</title></polyline><polyline fill="none" points="32.41269841277972,181.26138681708835 21.492063492070884,180.71150584204588 22.507936507929116,186.62271798180882 18.8253968260251,184.1482593244873 16.285714286379516,185.3854890562361 18.31746031763032,187.99741584283765 24.285714285913855,190.05946076859254 29.11111111100763,186.62271798180882 33.93650793656707,189.78452157450374 40.41269841277972,188.40982500719838 40.41269841277972,185.66042888711672 36.8571428572759,181.67379744397476 32.41269841277972,182.7735586776398 28.47619047621265,181.39885703567415 19.968253968283534,183.59837918530684 16.285714286379516,187.3100670366548 19.714285714086145,189.23464306688402 25.301587301772088,187.99741584283765 28.98412698460743,184.2857293348061 31.650793650653213,185.24801912589464 32.920634921174496,189.23464306688402 39.396825396921486,187.035127444542 40.15873015904799,184.6981393051101 38.00000000046566,182.22367814031895 31.396825396921486,182.49861842906103 23.015873015858233,179.88668408058584 17.42857142863795,183.73584923520684 18.698412698693573,187.72247635014355 22.63492063479498,188.68476440012455 29.492063492070884,184.56066932459362 31.904761905316263,189.37211270886473 37.11111111100763,188.27235529536847 42.57142857136205,183.8733192748623 37.873015873134136,176.72486401104834 27.20634920662269,181.81126763287466 22.00000000046566,182.0862079814542 19.714285714086145,187.3100670366548 11.714285714086145,188.68476440012455 13.238095238339156,189.78452157450374 23.904761905316263,186.89765763352625 34.9523809524253,191.0217476345133 41.0476190475747,183.8733192748623 37.238095238339156,179.88668408058584 26.57142857136205,183.73584923520684 33.04761904804036,190.05946076859254 39.9047619048506,185.11054918565787 40.41269841277972,181.67379744397476 32.539682540111244,180.98644634906668 25.0476190475747,184.2857293348061 34.9523809524253,191.84656456043012 40.539682540111244,188.68476440012455 38.76190476259217,182.7735586776398" stroke="#4dd2ff" stroke-linecap="round" stroke-linejoin="round" stroke-width="0.5"><title>2022-01-28 2.6km</title></polyline><polyline fill="none" points="64.94897959148511,186.29902629985008 65.91326530557126,184.06206525326706 67.42857142817229,188.38685441832058 64.67346938699484,186.89554883516394 61.7806122447364,196.7381457366282 62.74489795882255,190.92207143234555 61.22959183668718,190.02728931279853 48.1428571427241,193.60641545895487 59.714285714086145,191.36946234630886 57.92346938699484,192.4133741010446 56.82142857089639,188.23772390850354 58.33673469396308,186.89554883516394 51.448979591950774,184.95684996328782 54.204081632662565,188.68511540535837 59.57653061160818,186.29902629985008 65.36224489752203,188.53598491707817 63.15816326485947,195.09771618491504 77.346938774921,170.3419843754964 76.52040816284716,180.03552925027907 78.99999999953434,183.31641103199217 69.49489795882255,183.61467275267933 65.91326530557126,189.57989810733125 61.6428571427241,187.49207119771745 62.33163265278563,189.2816372498637 54.8928571427241,188.53598491707817 49.795918367337435,191.07120174763259 51.724489795509726,189.13250680512283 59.714285714086145,190.02728931279853 63.15816326485947,185.55337288731243 67.5663265301846,185.25511144695338 77.07142857089639,194.35206595691852 72.11224489705637,193.60641545895487 66.32653061207384,183.76380359730683 71.01020408095792,184.658588436665 69.08163265278563,184.50945765699726 67.15306122414768,193.60641545895487 59.57653061160818,190.17641969327815 70.04591836687177,193.90467569057364 74.31632653065026,198.22944419586565 69.90816326485947,194.05380578991026 72.38775510154665,192.11511365347542 71.69897959101945,189.2816372498637 75.28061224427074,190.02728931279853 70.04591836687177,183.61467275267933 73.48979591811076,191.8168531631818 73.21428571315482,197.18553538783453 68.53061224427074,189.57989810733125 67.42857142817229,191.07120174763259 67.5663265301846,188.38685441832058 65.6377551020123,190.3255500626983 63.15816326485947,189.2816372498637" stroke="#4dd2ff" stroke-linecap="round" stroke-linejoin="round" stroke-width="0.5"><title>2022-01-26 2.5km</title></polyline><polyline fill="none" points="102.13438735157251,183.36147553741466 93.84076792746782,181.24889132822864 93.23094297014177,179.53241485671606 95.06041784305125,182.96536618459504 85.5471485038288,187.85070885904133 90.79164313990623,187.05849201674573 97.37775268219411,178.4761208408745 101.03670242754743,180.5887082607951 108.23263692809269,180.32463496748824 108.35460191965103,182.04111069336068 89.93788819853216,187.58663661638275 98.96329757152125,177.28778934187721 105.30547713162377,178.4761208408745 109.20835686055943,176.62760484125465 109.33032185211778,180.19259830622468 95.18238283414394,186.26627483044285 92.98701298702508,183.88962120760698 87.86448334250599,186.5303472642554 89.08413325855508,187.4546004809672 93.23094297014177,185.60609357920475 94.08469791058451,181.1168547339039 96.52399774175137,179.66445156547707 100.42687747022137,180.98481812980026 107.50084697920829,179.53241485671606 102.62224731827155,180.5887082607951 99.32919254619628,184.285730359843 96.15810276661068,179.26834141020663 94.08469791058451,181.7770376097178 101.64652738533914,181.7770376097178 87.98644833453,191.9438237301074 87.86448334250599,189.4351415114943 84.57142857136205,189.96328542300034 85.91304347850382,187.85070885904133 97.01185770751908,178.7401944019366 102.13438735157251,181.9090741565451 108.23263692809269,180.72074489388615 98.84133258089423,185.73812984849792 98.96329757152125,183.88962120760698 99.32919254619628,186.92645584302954 105.06154714850709,184.54980308015365 109.94014680990949,178.08001042739488 108.59853190276772,182.5692567457445 115.42857142863795,180.19259830622468" stroke="#4dd2ff" stroke-linecap="round" stroke-linejoin="round" stroke-width="0.5"><title>2022-01-24 2.3km</title></polyline><polyline fill="none" points="141.160000000149,179.16359424381517 140.20000000018626,180.351337064174 141.160000000149,178.866658431245 137.73142857151106,177.9758507356746 127.71999999973923,181.68754691502545 121.13714285707101,185.69617124507204 121.27428571460769,189.85325486876536 128.26857142848894,190.89252445835155 137.5942857139744,185.84463866229635 151.44571428606287,187.03237761417404 150.07428571395576,179.01512634265237 145.82285714289173,176.63963846722618 139.65142857143655,178.56972257536836 135.40000000037253,176.93657460191753 131.01142857130617,177.3819787238026 130.32571428548545,181.98448231909424 121.41142857214436,187.18084493500646 122.64571428578347,189.85325486876536 128.54285714263096,191.04099149955437 136.77142857108265,189.25938629568554 137.18285714276135,187.62624683254398 141.84571428550407,189.7047877414152 150.62285714317113,188.36858311318792 151.03428571484983,180.20286924915854 144.862857142929,176.93657460191753 131.97142857126892,178.7181905087782 131.14857142837718,181.5390791965183 124.84000000031665,182.13295000523794 121.0,187.03237761417404 121.68571428582072,190.44712327013258 129.7771428572014,192.37719438725617 137.32000000029802,187.47777954372577 146.64571428578347,190.00172198517248 149.9371428573504,188.9624519442441 151.7200000002049,178.866658431245 143.90285714296624,176.3427022891119 131.97142857126892,178.866658431245 130.46285714255646,183.17222350626253 123.33142857113853,184.9538339972496 122.09714285749942,189.11091912526172 132.10857142833993,190.59559034358244 136.63428571401164,185.84463866229635 141.43428571382537,188.8139847527491 149.25142857106403,186.14157346484717 151.8571428572759,182.7268206415465 151.44571428606287,180.05440142331645 147.60571428574622,176.19423418410588 142.9428571430035,177.08504265313968" stroke="#4dd2ff" stroke-linecap="round" stroke-linejoin="round" stroke-width="0.5"><title>2022-01-23 2.3km</title></polyline><polyline fill="none" points="177.346938774921,181.1042899559252 165.2653061216697,184.99272892833687 159.71428571362048,191.17886907909997 159.71428571362048,188.1741743918974 165.59183673467487,182.5182684804313 171.95918367337435,181.45778466342017 180.1224489789456,181.28103731619194 179.1428571427241,185.5229701269418 173.75510204024613,185.5229701269418 180.2857142854482,172.9738975504879 173.2653061216697,183.932246186072 162.32653061114252,186.76019914192148 162.32653061114252,189.76489556906745 160.693877549842,188.5276680761017 165.10204081516713,188.35092124040239 169.346938774921,181.8112793203909 183.7142857145518,180.22055296204053 179.79591836687177,185.69971716729924 169.51020408049226,183.57875183643773 165.10204081516713,191.00212243502028 169.02040816191584,188.8811617095489 157.4285714281723,188.8811617095489 176.04081632569432,178.62982556712814 178.81632652971894,181.98802662966773 174.57142856996506,186.93694609263912 164.1224489789456,183.4020046426449 159.5510204071179,192.06260210694745 167.71428571362048,187.4671868691221 165.59183673467487,186.40670520160347 159.0612244894728,191.8858555268962 162.81632652971894,191.00212243502028 167.55102040804923,184.2857404849492 175.71428571362048,184.81598183698952 177.8367346925661,182.16477392567322 184.85714285634458,188.35092124040239 188.2857142854482,187.64393376884982 186.32653061207384,177.03909713681787 180.7755102030933,174.03438505157828 183.38775510061532,179.33681564871222 178.65306122414768,184.81598183698952 173.9183673467487,185.5229701269418 167.38775510154665,195.59753102087416 174.73469387739897,189.41140206390992 176.69387755077332,192.94633481511846 182.73469387739897,189.41140206390992 178.65306122414768,182.16477392567322 186.97959183622152,176.86234946921468 185.346938774921,173.32739343540743 174.24489795882255,185.5229701269418" stroke="#4dd2ff" stroke-linecap="round" stroke-linejoin="round" stroke-width="0.5"><title>2022-01-14 2.4km</title></polyline><polyline fill="none" points="22.13533834554255,214.10276066325605 14.015037593897432,216.153959921794 12.12030075211078,219.67029667156748 13.473684210330248,224.06570901919622 19.29323308262974,224.94479034363758 27.81954887183383,219.9633244582219 32.96240601455793,223.04011365852784 37.29323308169842,223.18662731349468 40.13533834554255,221.57497652748134 42.300751878879964,214.395789256203 38.105263157282025,211.4655014204327 35.263157894369215,213.3701889963122 25.112781954929233,212.34458821674343 12.39097744366154,219.67029667156748 13.473684210330248,225.97038473945577 17.93984962347895,225.384330862551 27.81954887183383,219.37726884230506 33.23308270657435,221.86800403834786 41.35338345821947,216.44698821741622 42.57142857136205,213.3701889963122 38.105263157282025,211.4655014204327 27.54887218028307,214.54230353655294 24.030075187329203,213.80973202863242 14.150375939439982,218.0586430862313 13.067669172771275,222.60057263064664 16.315789473243058,225.384330862551 23.353383457753807,223.18662731349468 26.19548872159794,219.9633244582219 30.255639097187668,222.16103150718845 41.75939849577844,214.24927496514283 30.52631578920409,212.051559326821 14.285714285913855,216.59350234956946 11.714285714086145,221.13543518132064 15.639097743667662,225.6773578224238 25.518796992488205,219.9633244582219 30.52631578920409,222.74708631727844 39.593984961509705,221.42846275574993 39.593984961509705,212.34458821674343 36.751879698596895,211.17247240338475" stroke="#4dd2ff" stroke-linecap="round" stroke-linejoin="round" stroke-width="0.5"><title>2022-01-11 2.1km</title></polyline><polyline fill="none" points="68.00797057012096,211.33125802013092 68.40527283912525,216.2058480756823 66.41876149643213,215.9191078164149 68.80257510719821,214.48540589679033 58.07541385665536,215.48899734951556 54.10239117126912,213.3384436131455 49.86450030701235,225.23814500216395 60.06192519981414,220.22020734997932 64.03494788473472,224.9514060501242 70.3917841813527,220.22020734997932 72.77559779258445,220.7936865822412 74.49724095594138,217.06606860505417 72.64316370338202,212.04811025131494 73.17290006158873,213.3384436131455 67.08093194337562,212.621591849369 66.94849785417318,214.05529511836357 58.207847946323454,216.0624779514037 58.34028203552589,213.05170293920673 50.659104843623936,222.08401424763724 48.54015941126272,221.65390511916485 48.80502759106457,224.66466705687344 49.996934396680444,225.66825335251633 59.0024524834007,222.08401424763724 75.1594114038162,222.8008625874063 75.1594114038162,210.90114655683283 66.28632740629837,209.324070392875 58.73758430406451,215.77573767129797 52.77805027598515,215.0588867890183 48.67259350139648,218.6431386055192 50.26180257508531,224.66466705687344 48.1428571427241,228.53563996683806 54.10239117126912,225.95499220036436 54.63212752901018,227.10194717836566 63.902513795532286,220.36357717344072 67.4782342123799,222.2273839362897 78.73513182066381,220.22020734997932 76.08645003056154,214.772146363277 76.88105456763878,208.7505878400989 71.71612507710233,211.47462848725263 61.651134273502976,211.90473982563708 53.83752299193293,218.35639869887382 49.33476394880563,217.63954875036143 48.54015941126272,224.37792802159674 53.175352544523776,225.66825335251633 63.637645616196096,220.0768375158077 66.0214592278935,222.2273839362897 77.80809319484979,220.22020734997932 79.0,208.60721717600245 68.27283874945715,210.47103500040248 60.85652973642573,216.2058480756823 64.69711833260953,222.51412328274455 67.21336603350937,219.93346767162438 68.1404046593234,222.8008625874063 72.37829552404583,225.23814500216395 75.95401594089344,219.21661829412915 73.17290006158873,215.3456271730829" stroke="#4dd2ff" stroke-linecap="round" stroke-linejoin="round" stroke-width="0.5"><title>2022-01-09 2.9km</title></polyline><polyline fill="none" points="105.43435511831194,212.28262054058723 103.18565644836053,213.90554895286914 97.18912666244432,213.0940849230392 92.56680161925033,216.61042650823947 85.82070560986176,217.9628638176946 84.57142857136205,221.208709366736 85.82070560986176,224.99552204750944 90.44303065352142,228.64708415057976 95.81492192018777,229.4585414264584 100.81203007511795,221.61443966371007 111.55581260845065,220.8029789814027 113.17987275822088,218.09810749499593 110.18160786526278,213.22932895249687 100.43724696338177,212.68835277564358 98.56333140516654,210.38920227752533 93.5662232497707,212.1473764424445 92.31694621173665,217.15140154981054 88.69404279906303,215.6637198093813 85.94563331408426,216.8809140487574 85.57085020234808,223.778333093971 96.81434355070814,221.88492647965904 100.06246385164559,219.18005655927118 104.68478889483958,222.56114334787708 111.30595720047131,222.29065663006622 113.30480046244338,219.18005655927118 111.93059572018683,215.1227443376556 104.55986119108275,212.1473764424445 97.43898207042366,212.41786462860182 94.81550028920174,213.90554895286914 93.5662232497707,217.82762013096362 88.06940428027883,218.09810749499593 84.94621168309823,220.53249200887512 86.57027183333412,224.04881959652994 93.44129554647952,224.99552204750944 97.93869288591668,223.23735997150652 101.5615962985903,218.36859481979627 107.43319837981835,220.93822245288175 113.17987275822088,217.15140154981054 113.17987275822088,214.31128083576914 112.43030653521419,217.55713272781577 108.80740312300622,213.63506098242942 104.80971659906209,214.98750044498593 100.68710237089545,211.7416440898087 92.56680161925033,216.33993892895523 87.19491035258397,217.01615780382417 85.07113938685507,220.39724850805942 86.07056101737544,223.37260326673277 95.19028340093791,223.50784655218013 99.06304222112522,218.09810749499593 109.30711393849924,221.0734659145819 111.80566801596433,219.99151794658974 115.05378831690177,217.28664528555237 115.42857142863795,214.31128083576914 115.30364372441545,210.11871379753575 113.92943898169324,207.68431571638212 111.80566801596433,207.95480454864446" stroke="#4dd2ff" stroke-linecap="round" stroke-linejoin="round" stroke-width="0.5"><title>2022-01-08 2.5km</title></polyline><polyline fill="none" points="137.3433088650927,214.14823678822722 140.6363636367023,214.41230990970507 139.17278373846784,215.73267494502943 132.09881422948092,217.31711172591895 128.4398644841276,212.43176056514494 122.95143986539915,217.58118438883685 123.68322981335223,220.35394504282158 127.70807453477755,221.67430577753112 135.51383399264887,218.5054384083487 138.31902879755944,221.54226974688936 143.44155844207853,220.485981159145 149.17391304392368,215.86471139616333 149.29587803594768,211.77157697244547 141.7340485607274,210.4512090702774 132.3427442125976,212.69583393528592 130.7571993228048,216.78896628541406 121.85375494137406,217.053039024584 121.0,219.95783663599286 123.5612648227252,223.7868809653446 130.39130434812978,222.99466555658728 138.19706380646676,217.58118438883685 145.39299830654636,220.6180172660388 151.3692828915082,212.16768715670332 143.92941840784624,208.47065542498603 134.66007905174047,213.4880538166035 129.9034443818964,212.29972386546433 128.80575945787132,216.39285710442346 122.21964991558343,219.16561956435908 123.31733483960852,222.99466555658728 133.074534161482,220.22190891648643 135.26990400953218,221.1461615981534 136.00169395841658,218.7695108994376 141.12422360247,220.75005336361937 143.44155844207853,218.3734021486016 147.95426312834024,219.29765576682985 151.8571428572759,217.31711172591895 151.3692828915082,214.01620021276176 146.2467532469891,209.13084021233954 137.09937888244167,212.43176056514494 131.36702428013086,211.77157697244547 129.65951439877972,216.78896628541406 122.34161490667611,219.03358335222583 123.68322981335223,227.48388165782671 126.7323546023108,228.67220171785448 132.3427442125976,227.35184604779352 135.63579898374155,220.08987278107088 141.7340485607274,221.1461615981534 151.3692828915082,218.5054384083487 151.61321287462488,214.14823678822722 149.17391304392368,211.6395402252674 141.97797854384407,210.8473195412662 138.31902879755944,212.43176056514494" stroke="#4dd2ff" stroke-linecap="round" stroke-linejoin="round" stroke-width="0.5"><title>2022-01-03 2.6km</title></polyline><polyline fill="none" points="176.84285714291036,213.7694480684586 168.61428571445867,214.1870138887316 158.32857142854482,218.22347880958114 158.84285714337602,224.76531775773037 167.97142857173458,223.9301906202454 172.98571428563446,218.64104366267566 181.98571428610012,221.14643087680452 186.22857142891735,217.3883488313295 181.08571428619325,210.42891824326944 167.45714285690337,214.46539105207194 166.68571428535506,217.3883488313295 160.7714285715483,217.24916046659928 157.42857142863795,221.14643087680452 161.67142857145518,222.81668720662128 172.21428571408615,218.50185538840014 175.81428571464494,221.8423711906653 180.18571428582072,222.25993525795639 188.15714285802096,219.47617309668567 185.32857142901048,213.7694480684586 180.31428571464494,210.98567361745518 174.01428571436554,211.54242882994004 165.52857142873108,217.66672553122044 158.32857142854482,218.22347880958114 158.97142857126892,223.51262691558804 161.9285714281723,226.29638323385734 167.45714285690337,227.5490722624818 172.47142857173458,220.7288665678352 177.74285714281723,224.0693785016192 180.18571428582072,223.09506312047597 186.61428571492434,217.80591386579908 186.35714285774156,212.51675006456207 181.08571428619325,209.59378488035873 173.11428571492434,214.74376817489974 166.81428571464494,213.3518821579637 165.40000000037253,217.1099720915081 157.5571428569965,219.47617309668567 159.22857142891735,224.76531775773037 166.42857142863795,226.4355709439842 173.11428571492434,219.6153613004135 175.04285714309663,221.56399509531911 188.28571428591385,218.36266710388009 187.25714285718277,214.46539105207194 180.31428571464494,211.54242882994004 176.20000000065193,210.98567361745518 174.52857142873108,212.93431615631562 174.39999999990687,211.54242882994004 170.1571428575553,216.69240690593142 173.2428571432829,222.67749923444353 176.32857142901048,222.67749923444353" stroke="#4dd2ff" stroke-linecap="round" stroke-linejoin="round" stroke-width="0.5"><title>2022-01-02 2.6km</title></polyline><polyline fill="none" points="31.94847775110975,248.74996301403735 29.419203746598214,249.02377667673863 28.407494144514203,247.1070802070899 28.660421545617282,249.98212418321054 26.76346604153514,247.79161488323007 15.381733020301908,252.30953753483482 12.220140514429659,255.0476672234945 12.725995315704495,258.6072298932122 22.46370023395866,259.01794823165983 28.281030444893986,252.85716378991492 30.05152224795893,256.0060116779059 36.627634659875184,256.6905431342311 40.29508196655661,252.72025724081323 41.55971896927804,246.55945228761993 38.777517564129084,245.1903817950515 29.039812645874918,245.73801011103205 23.096018734853715,248.47614931233693 21.831381732132286,251.2142845498165 11.714285714086145,253.81550935423002 12.346604214981198,259.29176040773746 18.037470725364983,260.9346326322993 24.360655737109482,260.11319669825025 27.90163934417069,254.22622873296496 35.489461358170956,257.9226991307223 41.0538641680032,249.70831065974198 30.93676814902574,247.65470796800219 15.002341919578612,252.99407032865565 12.220140514429659,255.86910535721108 12.473067915067077,259.97629067476373 16.899297422729433,261.75606820965186 28.281030444893986,254.91076083329972 33.21311475383118,257.5119805543218 39.789227166213095,255.1845736040268 40.16861826693639,256.6905431342311 42.57142857089639,248.74996301403735 37.512880561407655,244.23203186085448 28.028103044256568,245.73801011103205 21.45199063187465,250.66665781941265 14.370023418217897,252.85716378991492 11.840749413240701,256.6905431342311 12.852459016256034,259.4286664808169 20.946135830599815,259.83938464091625 28.028103044256568,253.81550935423002 33.466042154002935,257.6488867565058 40.800936767831445,252.03572434815578 39.4098360654898,243.95821750466712 32.58079625247046,247.1070802070899 24.866510537918657,246.8332662669709 20.31381732970476,251.89881773968227 15.128805620130152,252.30953753483482 12.473067915067077,256.82744939567056 13.864168617874384,259.1548543245299 23.096018734853715,253.67860287474468 24.234192037023604,256.6905431342311 27.269320842344314,254.5000416028779" stroke="#4dd2ff" stroke-linecap="round" stroke-linejoin="round" stroke-width="0.5"><title>2021-12-29 2.9km</title></polyline><polyline fill="none" points="63.6338924234733,256.0353863061173 62.25968768121675,255.90014272683766 63.25910931173712,250.2199035611702 57.63736263709143,249.81417153123766 55.8883747830987,252.3838062316645 52.01561596337706,252.92478150769603 49.39213418215513,256.3058734352235 50.266628108453006,260.3631756725954 60.260844418779016,259.14598592650145 62.25968768121675,255.0886810461525 69.75534991361201,258.4697690582834 76.12666281079873,257.3878215600271 77.37593984883279,251.57234302372672 71.2544823596254,248.46173079579603 64.75824175868183,250.08465956046712 56.76286871032789,248.5969749132637 48.1428571427241,253.60100038256496 49.76691729389131,259.9574458452407 59.761133603286,259.6869592446601 64.13360323896632,255.0886810461525 66.88201272441074,257.5230650315061 74.62753036431968,256.84684757573996 78.37536148028448,254.2772190128453 79.0,251.70758691627998 75.50202429108322,244.9453803023789 68.00636205915362,248.5969749132637 58.01214574929327,248.7322190211853 55.26373626338318,254.00673159002326 48.517640254460275,254.412462709588 48.2677848469466,257.2525780784199 49.76691729389131,260.76890541194007 52.76518218591809,260.6336621751543 64.5083863507025,255.0886810461525 74.2527472525835,259.6869592446601 77.87565066479146,251.57234302372672 71.37941006338224,249.54368346219417 66.38230190845206,250.49039153149351 57.76229034084827,248.86746311944444 56.513013302814215,253.06002530246042 50.516483516898006,251.57234302372672 49.26720647793263,253.73624412843492 51.2660497399047,257.7935519453604 54.01445922534913,258.7402558347676 61.63504916150123,258.7402558347676 62.75939849577844,256.84684757573996 73.12839791737497,258.3345256552566 77.50086755305529,252.92478150769603 75.75187969906256,248.5969749132637 71.50433776760474,246.70355637627654 51.01619433192536,254.2772190128453" stroke="#4dd2ff" stroke-linecap="round" stroke-linejoin="round" stroke-width="0.5"><title>2021-12-28 2.6km</title></polyline><polyline fill="none" points="99.43691345117986,245.96884926897474 98.19812304480001,249.50444742513355 93.58081334689632,250.11403256410267 88.96350364992395,254.50303905212786 88.40041710156947,257.79478641366586 89.97705943649635,259.98928108089603 93.01772679854184,255.2345390218543 99.43691345117986,254.0153722295072 101.91449426487088,257.063287556055 106.7570385816507,257.6728699593805 112.50052137672901,253.40578850230668 113.06360792508349,248.8948620655574 103.82898852974176,247.797607862507 98.76120959315449,249.138696235721 91.32846715301275,251.94278665725142 88.6256517204456,254.62495573598426 89.52659019781277,258.64820134604815 91.66631908202544,260.35502991394605 97.29718456743285,259.7454484810587 101.12617309717461,254.74687241076026 104.50469238776714,257.1852040543454 110.24817518237978,255.47837227454875 115.42857142863795,245.35926262987778 106.98227320145816,248.4071936191758 101.01355578703806,246.2126838627737 100.78832116769627,247.797607862507 89.86444212729111,250.96745138801634 88.28779979143292,256.81945453281514 84.57142857136205,259.7454484810587 99.43691345117986,257.42903702449985 100.56308654882014,253.64962201961316 104.05422314954922,257.6728699593805 111.82481751823798,254.0153722295072 113.73931178357452,248.04144219181035 111.93743482790887,245.48117997508962 95.15745568228886,246.45651842129882 94.25651720492169,250.23594956542365 86.71115745557472,255.8441220872337 87.2742440039292,259.7454484810587 89.63920750748366,261.086527342326 89.63920750748366,258.2824521420989 94.36913451505825,257.55095349648036 92.56725755985826,260.35502991394605 99.21167883230373,255.2345390218543 102.59019812289625,256.6975380079821 111.26173096941784,255.6002888873918 113.85192909277976,246.94418743264396 111.48696558922529,244.62775837176014 106.64442127244547,245.23734527558554 106.41918665263802,246.57843568746466" stroke="#4dd2ff" stroke-linecap="round" stroke-linejoin="round" stroke-width="0.5"><title>2021-12-27 2.6km</title></polyline></svg>