<?xml version="1.0" encoding="utf-8" ?>
<svg baseProfile="full" height="300mm" version="1.1" viewBox="0,0,200,300" width="200mm" xmlns="http://www.w3.org/2000/svg" xmlns:ev="http://www.w3.org/2001/xml-events" xmlns:xlink="http://www.w3.org/1999/xlink"><defs /><rect fill="#222222" height="300" width="200" x="0" y="0" /><text fill="#FFFFFF" style="font-size:12px; font-family:Arial; font-weight:bold;" x="10" y="20">Over 2km Runs</text><text fill="#FFFFFF" style="font-size:4px; font-family:Arial" x="10" y="280">ATHLETE</text><text fill="#FFFFFF" style="font-size:9px; font-family:Arial" x="10" y="290">Kris</text><text fill="#FFFFFF" style="font-size:4px; font-family:Arial" x="120" y="280">STATISTICS</text><text fill="#FFFFFF" style="font-size:3px; font-family:Arial" x="120" y="285">Number: 34</text><text fill="#FFFFFF" style="font-size:3px; font-family:Arial" x="120" y="290">Weekly: 1.7</text><text fill="#FFFFFF" style="font-size:3px; font-family:Arial" x="141" y="285">Total: 98.8 km</text><text fill="#FFFFFF" style="font-size:3px; font-family:Arial" x="141" y="290">Avg: 2.9 km</text><text fill="#FFFFFF" style="font-size:3px; font-family:Arial" x="167" y="285">Min: 2.1 km</text><text fill="#FFFFFF" style="font-size:3px; font-family:Arial" x="167" y="290">Max: 5.1 km</text><polyline fill="none" points="28.57142857182771,43.12195458787028 28.285714285448194,42.96730399434455 27.0,41.73009884194471 25.57142857182771,41.26614672492724 13.428571429103613,48.68936850794125 16.142857142724097,52.710269540548325 21.14285714365542,51.47307002847083 29.285714286379516,50.69981996982824 40.1428571427241,44.66845990961883 39.28571428544819,43.740556850796565 37.28571428544819,42.50335214601364 33.8571428572759,41.11149599670898 30.428571429103613,43.12195458787028 27.285714286379516,44.823110379860736 17.0,48.070767677389085 14.285714286379516,48.070767677389085 28.0,49.61726941750385 33.0,42.194050857564434 21.14285714365542,44.204508430324495 18.714285714551806,45.75101296848152 14.857142857275903,53.17421917291358 17.857142857275903,52.710269540548325 34.71428571548313,51.16377003863454 37.857142858207226,50.54516992473509 41.28571428544819,46.98821579327341 29.142857142724097,44.04985791537911 24.714285714551806,43.431255741859786 21.14285714365542,46.060313742025755 19.285714286379516,47.4521666681394 17.857142857275903,47.4521666681394 13.142857142724097,48.53471831709612 12.57142857182771,49.307969158980995 11.714285714551806,53.328869028016925 21.714285714551806,51.16377003863454 23.0,50.54516992473509 30.857142857275903,50.85447000374552 34.42857142910361,41.420797441736795 16.714285714551806,46.524264817941 15.428571429103613,46.83356547926087 11.714285714551806,49.46261929371394 14.42857142817229,52.55561964050867 19.0,51.627720006858 20.142857142724097,51.00912002660334 24.285714285448194,49.771919530117884 39.57142857182771,49.61726941750385 40.0,48.68936850794125 38.1428571427241,43.12195458787028 36.8571428572759,42.6580027731834 27.857142857275903,43.12195458787028 26.428571429103613,42.81265338952653 23.285714285448194,43.12195458787028 21.857142857275903,44.66845990961883 12.0,49.771919530117884 19.857142857275903,51.93701992952265 21.428571429103613,51.47307002847083 33.0,50.69981996982824 38.57142857182771,51.00912002660334 42.57142857182771,43.58590630197432 33.57142857182771,42.50335214601364 25.42857142817229,44.823110379860736 27.714285714551806,48.998668855871074 28.714285714551806,49.92656963109039 41.0,46.36961447028443 37.1428571427241,42.194050857564434 33.57142857182771,40.9568452576641 26.57142857182771,43.431255741859786 26.285714285448194,48.53471831709612 29.285714286379516,51.16377003863454 30.714285714551806,51.78236997383647 33.285714286379516,52.246319807483815 34.285714286379516,52.09166987380013 39.28571428544819,48.68936850794125 38.71428571455181,42.96730399434455 38.285714286379516,42.194050857564434 37.28571428544819,42.50335214601364 36.285714286379516,41.88474952511024 34.8571428572759,41.420797441736795" stroke="#4dd2ff" stroke-linecap="round" stroke-linejoin="round" stroke-width="0.5"><title>2022-07-11 4.0km</title></polyline><polyline fill="none" points="75.0,50.390520102810115 67.8571428572759,41.73009844974149 66.7142857145518,42.50335181027185 62.1428571427241,41.42079702753108 56.285714286379516,44.04985769127961 55.285714286379516,45.44171202706639 55.0,52.24632017640397 60.00000000093132,50.545170170487836 70.0,51.78237030946184 71.57142857275903,52.09167023212649 74.1428571427241,53.17421960912179 76.57142857182771,44.20450821798295 72.42857142817229,42.03939982771408 64.2857142854482,42.65800244861748 61.8571428572759,41.73009844974149 57.71428571455181,45.1324111422291 53.14285714365542,47.297516398713924 50.0,52.400970110087655 53.71428571455181,51.78237030946184 56.42857142910361,51.78237030946184 65.1428571427241,50.08121993369423 69.1428571427241,52.24632017640397 75.28571428637952,52.555620032246225 77.42857142910361,45.44171202706639 61.57142857182771,42.50335181027185 59.14285714365542,43.43125547282398 51.71428571455181,47.60681697074324 57.42857142910361,53.17421960912179 61.42857142817229,50.85447027243208 69.00000000093132,51.93702027644031 72.28571428637952,52.400970110087655 73.85714285820723,52.24632017640397 76.7142857145518,44.513809237396345 66.28571428637952,42.65800244861748 56.71428571455181,46.214964044629596 51.71428571455181,47.60681697074324 48.1428571427241,51.93702027644031 48.57142857182771,53.32886947551742 51.28571428544819,52.864919843152165 53.28571428544819,52.71026994311251 56.14285714365542,51.93702027644031 60.42857142910361,52.555620032246225 62.28571428544819,51.31842034123838 63.1428571427241,49.926569832721725 63.1428571427241,50.23587002407294 64.2857142854482,50.08121993369423 65.57142857182771,51.00912030634936 66.8571428572759,51.93702027644031 68.0,53.01956973189954 70.8571428572759,48.844018810545094 71.14285714365542,47.452166690141894 72.85714285820723,46.214964044629596 74.28571428637952,46.83356545690913 78.1428571427241,45.75101286789868 79.0,43.43125547282398 70.14285714365542,40.95684481004719" stroke="#4dd2ff" stroke-linecap="round" stroke-linejoin="round" stroke-width="0.5"><title>2022-07-08 2.5km</title></polyline><polyline fill="none" points="92.06102635338902,48.68336128606461 91.46185853052884,48.521203827578574 90.86269070859998,48.521203827578574 89.06518724095076,47.87257387780119 87.56726768426597,48.1968888763804 84.72122052777559,51.277879020315595 86.5187239954248,53.06160822021775 91.91123439744115,52.89945107884705 109.8862690711394,50.1427778811194 98.95145631115884,41.87273793993518 97.90291262138635,42.197053806856275 96.70457697659731,42.8456853996031 94.45769764203578,45.76452524366323 84.87101248279214,49.98062052857131 85.32038834970444,52.08866519643925 92.51040222030133,52.08866519643925 107.9389736475423,50.467092551174574 114.529819695279,48.84551873221062 115.42857142910361,46.41315580380615 113.63106796145439,43.65647462639026 110.3356449380517,41.224106065463275 99.40083217807114,41.71057998901233 87.8668515952304,47.386101292213425 91.91123439744115,52.08866519643925 98.65187239926308,50.30493522225879 100.0,49.65630578820128 115.12898751813918,48.68336128606461 114.529819695279,45.115894495975226 111.83356449380517,42.35921172250528 106.44105409178883,42.35921172250528 103.74479889124632,43.170001125428826 98.05270457733423,43.332158970995806 92.36061026435345,47.71041636110749 85.17059639468789,49.65630578820128 88.16643550712615,52.4129795844201 88.3162274621427,52.08866519643925 88.46601941809058,52.08866519643925 92.95977808628231,51.92650798440445 93.85852982010692,51.92650798440445 94.45769764203578,51.92650798440445 96.10540915373713,51.11572175018955 100.14979195594788,49.65630578820128 101.49791955668479,48.84551873221062 102.84604715742171,50.62924986833241 106.29126213584095,51.44003627926577 107.33980582561344,51.277879020315595 107.9389736475423,51.277879020315595 109.73647711519152,51.44003627926577 110.63522884901613,51.60219352610875 111.53398058284074,51.60219352610875 113.18169209454209,51.60219352610875 115.12898751813918,46.899628600804135 112.43273231666535,44.62942131177988 97.15395284350961,41.224106065463275 87.26768377330154,52.89945107884705 89.06518724095076,52.4129795844201 96.10540915373713,52.4129795844201 98.05270457733423,51.277879020315595 98.50208044424653,50.791407173732296 98.80166435521096,49.00767616694793 96.255201109685,46.73747101367917 93.10957004129887,47.223943740013056 92.21081830747426,47.548258832190186 91.46185853052884,47.548258832190186 90.71289875265211,47.548258832190186 89.51456310786307,47.386101292213425 88.76560332905501,47.223943740013056 88.76560332905501,47.386101292213425 84.57142857182771,51.44003627926577 87.8668515952304,51.11572175018955 88.16643550712615,51.277879020315595 92.80998613126576,52.57513676118106 93.55894590821117,50.95356446795631" stroke="#4dd2ff" stroke-linecap="round" stroke-linejoin="round" stroke-width="0.5"><title>2022-06-28 2.7km</title></polyline><polyline fill="none" points="141.7789689413621,39.501673744453 140.85365612187888,40.00251305605343 140.6596389177139,40.97187627421226 140.8685805221321,39.340112436548225 141.18199292878853,39.25933173879457 141.24169053003425,39.582454354604124 140.19698250800138,42.89443420711905 139.31644288945245,43.78300580989162 138.42097887059208,46.351765649204026 138.91348408092745,46.96567872041487 138.286659267731,47.87038964408566 138.57022287370637,50.18061698174279 138.4359032708453,54.25172867675428 138.57022287370637,54.72022486492642 138.9433328815503,54.914085069147404 138.82393767900066,55.689524203568 138.4359032708453,55.948003316880204 138.40605447022244,56.57804490248964 138.42097887059208,59.00126520966296 138.64484487526352,59.76053549758217 138.39113006996922,60.390566330592264 138.55529847339494,61.133677337129484 138.34635686897673,61.47292284439027 138.51052527246065,62.5229651973641 138.77916447806638,62.57142857143481 138.77916447806638,55.67336924908159 131.07817391573917,55.495664672373096 131.77962073060917,47.14339008394745 131.6453011277481,46.561788731924025 131.86916713247774,39.792483804092626 132.24227714032168,39.6470788216393 135.36147680605063,40.56797544473375 136.24201642465778,40.61644358285412 137.40611964918207,37.062085550191114 138.01802006206708,33.4915143733233 138.55529847339494,32.48980541451601 138.55529847339494,32.02126258444332 137.8240028580185,31.714285714289872" stroke="#4dd2ff" stroke-linecap="round" stroke-linejoin="round" stroke-width="0.5"><title>2022-06-12 5.1km</title></polyline><polyline fill="none" points="171.5964424679987,45.128173744422384 171.47637576423585,47.85778352920897 159.70983880013227,45.90806267771404 160.79043913260102,51.49725678889081 173.5175097277388,37.4592478601262 170.87604224588722,40.4488330319291 183.60311284055933,36.93931949615944 178.08004446933046,37.71921198582277 169.79544191248715,48.637671277159825 171.83657587552443,52.407123951241374 162.4713729848154,50.32742690271698 173.15730961645022,36.93931949615944 169.91550861625,38.88905008521397 170.15564202377573,40.058887422201224 173.03724291268736,39.14901400345843 170.87604224588722,40.83877855702303 174.478043357376,41.61866935330909 182.04224569210783,39.27899594884366 183.36297943303362,41.488687577540986 174.8382434686646,43.56839486141689 170.51584213459864,53.05702878499869 168.95497498568147,50.58738916530274 168.11450806027278,53.1870097235078 165.1128404675983,52.537104936898686 176.27904391335323,45.128173744422384 175.91884380206466,43.17844992899336 180.2412451361306,44.218302894267254 166.55364091182128,46.817932671750896 171.11617565294728,38.499104136717506 166.1934408005327,46.16802558011841 174.23790995031595,44.47826604091097 176.87937743170187,44.73822915065102 175.1984435794875,46.94791406195145 169.79544191248715,48.117746149539016 169.19510839413851,45.128173744422384 168.23457476403564,46.68795127235353 157.42857142863795,44.218302894267254 165.5931072817184,56.69649150792975 164.6325736520812,57.346394789638 176.5191773204133,43.958339709206484 175.0783768761903,41.87863287643995 172.31684269057587,42.008614624268375 177.1195108392276,39.538959810859524 185.2840466927737,49.15759625437204 173.75764313479885,47.467839528108016 187.08504724875093,51.10731357813347 183.00277932174504,41.098742193426006 181.68204558081925,47.85778352920897 175.1984435794875,50.717370282742195 176.03891050629318,52.14716195198707 182.76264591421932,44.47826604091097 180.60144524741918,43.56839486141689 182.40244580293074,44.47826604091097 182.16231239587069,41.87863287643995 184.80377987772226,39.408977884449996 186.84491384075955,39.408977884449996 188.28571428591385,41.87863287643995" stroke="#4dd2ff" stroke-linecap="round" stroke-linejoin="round" stroke-width="0.5"><title>2022-05-22 3.4km</title></polyline><polyline fill="none" points="28.738916255533695,80.93491088610608 26.914848698303103,79.12477307836525 30.1069669239223,76.32728454121388 37.09922589734197,76.65640101826284 34.66713581979275,77.31463382963557 36.64320900756866,83.56783603364602 33.60309641063213,87.5172180380905 29.498944405466318,87.84633289545309 30.1069669239223,85.04885508934967 27.370865588076413,87.02354566252325 27.218859957531095,81.75770032242872 21.74665728304535,88.34000509197358 17.490499647334218,86.03620059031527 16.122448978945613,89.16279184841551 12.778325122781098,85.87164303660393 18.706544686108828,78.13742457609624 22.96270232181996,79.61844716907945 33.147079520858824,77.31463382963557 36.49120337795466,73.69435100874398 42.57142857089639,78.30198268953245 41.81140042189509,76.82095923926681 38.315270936116576,80.44123708154075 32.08304011262953,81.59314245870337 33.45109078101814,82.74504725250881 22.810696692205966,83.2387205568375 13.234342011623085,87.68177547259256 11.714285714551806,85.37797030399088 17.946516537107527,82.25137384084519 19.162561575882137,79.12477307836525 24.330752990208566,83.40327830135357 23.87473610136658,86.03620059031527 35.579169599339366,84.55518217815552 41.051372272893786,79.61844716907945 31.77902885247022,78.96021502418444 26.458831808529794,83.40327830135357 19.314567205496132,81.75770032242872 17.946516537107527,85.04885508934967 13.386347642168403,86.52987318008672 16.578465868718922,86.20075813226867 15.058409570716321,82.58048946072813 23.41871921159327,88.17544770496897 33.45109078101814,84.06150915951002 32.84306826163083,82.25137384084519 38.01125967595726,84.55518217815552 41.507389162667096,81.09946879697964 35.579169599339366,79.78300517541356 37.09922589734197,85.37797030399088 32.99507389124483,80.60579502803739 32.08304011262953,82.25137384084519 37.09922589734197,85.21341270254925 38.46727656573057,82.25137384084519 35.88318085856736,80.27667912316974 34.81914144940674,82.58048946072813 36.64320900756866,80.44123708154075 27.522871216759086,83.2387205568375 36.035186489112675,79.94756316964049 32.84306826163083,84.88429746392649" stroke="#4dd2ff" stroke-linecap="round" stroke-linejoin="round" stroke-width="0.5"><title>2022-05-05 2.2km</title></polyline><polyline fill="none" points="67.49624060187489,77.17966910894029 60.59398496290669,77.6192121093627 56.263157894834876,81.575094818254 50.84962406009436,82.45417881489266 48.68421052629128,85.82399726542644 50.84962406009436,87.58216118637938 63.84210526337847,82.01463686442003 67.63157894741744,84.5053733222885 75.61654135352,84.9449147322448 78.3233082704246,83.04023460054304 73.72180451126769,77.17966910894029 59.78195488732308,77.03315475443378 57.616541353520006,80.98903860861901 50.71428571455181,82.30766484211199 48.81954887229949,84.65188713616226 50.308270676992834,86.99610671575647 54.639097744598985,84.35885949805379 60.323308270890266,84.9449147322448 63.84210526337847,82.16115085838828 67.90225563943386,87.14262034953572 77.64661654131487,84.5053733222885 78.18796992534772,79.67041151598096 73.8571428572759,75.86103953514248 67.36090225586668,75.27498167078011 60.323308270890266,77.76572642137762 57.751879699062556,81.72160884435289 52.33834586525336,81.575094818254 48.41353383474052,86.84959307173267 57.345864661969244,86.26353838888463 65.06015037652105,83.04023460054304 66.68421052629128,85.53096979670227 76.69924812018871,84.0658318172209 78.18796992534772,80.54949633986689 70.06766917323694,76.30058282148093 59.24060150422156,78.64481207239442 55.18045112770051,82.16115085838828 49.49624060140923,82.45417881489266 48.954887218773365,86.55656575132161 59.51127819530666,85.53096979670227 64.24812030093744,82.16115085838828 68.98496240656823,85.3844560465077 74.39849624084309,83.62629021645989 78.72932330798358,80.10995397553779 75.88721804507077,80.69601043977309 70.74436090234667,77.03315475443378 65.60150375915691,79.81692567991558 60.59398496290669,77.03315475443378 57.481203007511795,81.72160884435289 50.578947368077934,82.30766484211199 48.1428571427241,85.53096979670227 50.308270676992834,87.28913397225551 53.69172932347283,84.79840093955863 60.18796992441639,84.79840093955863 62.759398496709764,81.13555267674383 68.5789473685436,84.35885949805379 75.75187969952822,83.47977632842958 79.0,80.84252452966757 77.64661654131487,83.62629021645989 70.87969924835488,77.6192121093627 68.17293233145028,78.79132631071843 61.13533834600821,76.74012601294089 56.398496240377426,81.28206673485693 51.25563909765333,81.72160884435289 48.81954887229949,86.55656575132161 57.07518796948716,86.70307941676583 63.84210526337847,83.33326242980547 72.90977443568408,86.41005207551643 77.2406015037559,82.89372067013755 73.99248120281845,78.35178356477991" stroke="#4dd2ff" stroke-linecap="round" stroke-linejoin="round" stroke-width="0.5"><title>2022-04-21 3.2km</title></polyline><polyline fill="none" points="108.16806722665206,83.01572980859783 102.16418875241652,85.43420576339122 99.93018745956942,83.77150384522974 89.31868131831288,88.00383339659311 95.18293471261859,79.53916571720038 109.42469295393676,78.48107984510716 105.93406593427062,85.1318964221282 99.51131221698597,85.43420576339122 92.80930833891034,89.96884062967729 93.08855850016698,84.07381338358391 96.43956043990329,78.32992467656732 99.37168713612482,79.84147586743347 102.58306399453431,76.81837239128072 111.51906916638836,74.85335278441198 111.37944408506155,73.19064244208857 113.89269553963095,81.50418091472238 109.2850678730756,79.84147586743347 100.48868778254837,80.44609603798017 92.80930833891034,87.24806089128833 92.25080801500008,88.9107600414427 94.76405947003514,88.30614232178777 94.48480930831283,92.99192507041153 95.74143503559753,86.03882431436796 94.20555914612487,82.56226525537204 102.72268907539546,82.86457496858202 109.70394311565906,73.94642003474291 114.45119586307555,71.67908643686678 113.47382029751316,73.19064244208857 115.42857142863795,73.79526453814469 109.70394311565906,80.14378597482573 93.08855850016698,85.73651506076567 91.13380736904219,89.66653194499668 92.94893341930583,80.14378597482573 97.13768584374338,77.1206829356961 104.53781512612477,77.72530389332678 110.54169359989464,74.55104191158898 111.798319327645,79.99263092700858 104.67744020652026,84.98074173519854 101.18681318685412,80.14378597482573 104.25856496440247,83.92265862005297 92.25080801500008,88.15498786466196 95.46218487387523,85.28305109823123 94.76405947003514,79.99263092700858 101.04718810552731,76.21375117043499 105.65481577208266,77.42299343657214 112.63606981234625,74.24873099499382 113.1945701353252,76.06259583809879 107.7491919840686,80.44609603798017 102.02456367202103,80.44609603798017 102.30381383327767,78.02761430689134 96.99806076241657,82.4111103824107 94.06593406619504,81.0507160333218 89.45830639917403,90.4223035746254 93.36780866188928,79.08570040890481 96.29993535857648,77.1206829356961 110.82094376254827,73.34179798269179 115.14932126738131,79.23685552238021 92.66968325804919,87.09690635767765 86.80542986420915,79.53916571720038 84.57142857136205,82.2599554983899 85.68842921825126,87.24806089128833 87.9224305106327,87.85267891711555 89.73755656089634,75.60912977496628 96.02068519731984,73.94642003474291 98.95281189400703,76.21375117043499 110.9605688424781,69.86521778674796 111.37944408506155,73.19064244208857 107.60956690413877,74.85335278441198 101.60568842943758,84.22496813593898 110.12281835777685,76.51606180274393 113.61344537790865,77.27183819143102 110.82094376254827,78.6322350022383 112.0775694893673,79.84147586743347" stroke="#4dd2ff" stroke-linecap="round" stroke-linejoin="round" stroke-width="0.5"><title>2022-04-18 3.7km</title></polyline><polyline fill="none" points="131.14481408987194,84.28861026198138 129.03131115436554,83.48780269350391 128.5029354202561,84.97501642617863 141.92367906076834,78.22534286498558 145.09393346309662,79.82696292852052 148.58121330710128,77.31013067136519 151.3287671227008,78.22534286498558 142.98043052805588,82.11498877534177 141.60665362048894,81.7717851094203 147.10176125215366,77.31013067136519 132.20156555762514,84.51741234981455 126.28375733876601,81.5429826239124 137.06262230919674,80.85657496936619 136.74559686891735,82.34379117761273 142.34637964703143,78.33974435192067 144.98825831664726,81.6573838707991 146.67906066495925,79.7125615492696 151.85714285681024,84.97501642617863 130.08806262211874,84.86061541968957 130.82778864959255,86.11902603751514 129.77103718183935,86.23342695320025 129.13698630174622,83.83100598677993 128.08023483399302,84.74621440446936 129.77103718183935,87.03423313051462 136.1115459878929,78.5685473009944 143.29745596833527,80.85657496936619 148.36986301327124,79.7125615492696 148.68688845355064,81.08537755405996 140.3385518589057,83.37340157921426 140.12720156554133,81.7717851094203 138.01369863003492,81.5429826239124 129.87671232875437,83.37340157921426 130.08806262211874,81.19977883377578 121.0,85.43262037006207 139.38747553760186,76.85252437600866 142.66340508777648,78.5685473009944 145.72798434412107,77.65333530597854 148.05283757299185,79.7125615492696 146.99608610523865,77.76773683459032 148.47553816018626,80.0557656622259 133.78669275948778,80.74217366462108 134.7377690798603,82.91579703916796 130.51076320931315,85.66142229258548 130.19373776903376,83.83100598677993 128.29158512689173,83.94540706800763 129.34833659464493,82.00058756163344 140.86692759254947,76.3949179481715 141.2896281797439,79.14055452856701 141.50097847310826,77.76773683459032 142.66340508777648,79.94136429927312 144.14285714225844,79.02615309949033 145.62230919720605,82.00058756163344 143.29745596833527,80.0557656622259 138.5420743636787,81.7717851094203 139.2818003911525,76.96692596212961 137.37964774947613,76.16611468431074 128.71428571408615,83.83100598677993 130.19373776903376,81.8861863395432 129.03131115436554,78.5685473009944 137.8023483362049,75.82290972664487 136.4285714281723,79.14055452856701 142.34637964703143,81.8861863395432 148.898238746915,76.16611468431074" stroke="#4dd2ff" stroke-linecap="round" stroke-linejoin="round" stroke-width="0.5"><title>2022-04-06 3.4km</title></polyline><polyline fill="none" points="170.05451896693558,72.32640333415475 166.95374359888956,72.58462340186816 173.03603374399245,75.94148087932263 169.8159977849573,80.33120804862119 158.00919926911592,85.108251811238 161.34849581914023,88.46508572052699 160.9907140461728,92.33834776643198 159.5595869529061,85.88290635100566 160.9907140461728,83.30072324327193 170.41230074036866,79.81477011879906 175.42124556517228,71.68085300154053 170.65082192234695,77.49079758417793 171.72416724218056,88.98152114602271 166.2381800529547,90.2726090552751 163.61444704979658,94.01675870793406 168.02708891872317,76.32881018170156 174.58642142778262,66.00000000011642 175.89828792959452,80.84764582884964 174.1093790633604,81.75141158455517 175.54050615616143,81.75141158455517 176.97163324942812,88.33597684057895 182.8154022116214,88.07775905355811 184.36578989541158,90.91815265920013 177.68719679582864,87.1739965028828 173.03603374399245,87.30310546676628 164.33001059573144,94.01675870793406 169.10043423855677,94.27497563546058 173.03603374399245,90.53082652494777 173.2745549264364,87.56132336636074 179.95314802555367,89.75617400370538 185.6776563967578,87.43221442110371 183.41170516703278,86.01201540813781 187.70508644497022,86.27023349481169 182.21909925621003,88.33597684057895 169.69673719350249,88.72330345166847 164.09148941375315,93.6294332460966 164.92631355067715,79.81477011879906 164.80705296061933,86.14112445584033 166.59596182592213,86.78666955570225 175.30198497418314,84.85003355634399 184.6043110769242,86.65756055433303 186.98952289903536,85.108251811238 184.0080081219785,85.88290635100566 184.723571668379,87.56132336636074 172.2012096066028,88.46508572052699 173.9901184728369,92.08013055834454 173.8708578813821,90.78904395736754 173.2745549264364,92.5965649371501 168.02708891872317,92.5965649371501 164.80705296061933,96.08249308308586 171.72416724218056,87.81954122846946 175.65976674761623,90.01439154800028 181.98057807376608,87.69043230218813 169.10043423855677,92.5965649371501 161.10997463669628,93.11299916624557 161.9447987745516,95.43695134797599 168.2656101011671,96.85714285715949 171.8434278331697,93.37121622485574 179.59536625258625,95.43695134797599 184.24652930442244,93.11299916624557 184.723571668379,90.14350030641071 174.1093790633604,88.07775905355811 172.7975125615485,91.69280467601493 162.66036232095212,93.88765022996813 170.7700825133361,88.46508572052699 184.8428322598338,89.62706521712244 184.36578989541158,88.07775905355811" stroke="#4dd2ff" stroke-linecap="round" stroke-linejoin="round" stroke-width="0.5"><title>2022-03-20 3.8km</title></polyline><polyline fill="none" points="27.47112461971119,104.05804649204947 16.310030395165086,105.76384698075708 11.714285714086145,109.8861920448253 12.370820668525994,114.00852845644113 17.754407294560224,118.84160150680691 32.85471124574542,110.59694031928666 41.7835866259411,110.3126410403056 42.57142857136205,113.86637906928081 36.137386017944664,116.14076803287026 35.34954407252371,118.84160150680691 38.50091185327619,121.68458009848837 41.7835866259411,121.68458009848837 34.56170212710276,119.83664448198397 32.329483282286674,121.11598470923491 38.10699088079855,119.97879343712702 39.288753799162805,116.56721567048226 30.49118540994823,118.27300529438071 33.117325227707624,120.83168695296627 39.420060789678246,120.83168695296627 40.47051671659574,118.55730342119932 39.0261398172006,116.4250664684223 32.46079027373344,118.69945246912539 30.49118540994823,120.83168695296627 31.016413373406976,125.52259466948453 34.29908814560622,124.81185179622844 38.10699088079855,119.26804855803493 37.5817629173398,116.70936486241408 30.753799391444772,118.98375053412747 33.37993920920417,120.83168695296627 39.68267477117479,120.40524024143815 40.6018237080425,117.84655802766792 31.016413373406976,117.98870712670032 29.572036473546177,120.40524024143815 33.117325227707624,125.66474321321584 36.79392097238451,123.1060678511858 37.844376898836344,117.84655802766792 35.21823708154261,118.27300529438071 38.50091185327619,119.55234654026572 32.59209726378322,118.55730342119932 30.359878418967128,120.26309131714515 30.228571427986026,126.09118878270965 32.59209726378322,127.37052493647207 36.00607902696356,124.95400039118249 31.804255318362266,119.83664448198397 39.288753799162805,120.68953805963974 40.864437689073384,117.98870712670032 36.00607902696356,116.56721567048226 31.672948328312486,118.4151543630287 36.137386017944664,120.68953805963974 38.23829787177965,118.84160150680691 31.93556230980903,118.27300529438071 32.72340425522998,120.83168695296627 38.632218844257295,120.54738915560301 39.68267477117479,118.27300529438071" stroke="#4dd2ff" stroke-linecap="round" stroke-linejoin="round" stroke-width="0.5"><title>2022-03-13 2.2km</title></polyline><polyline fill="none" points="63.274725274182856,115.79460045113228 52.59340659342706,119.00664068828337 57.63736263662577,118.52483494929038 57.19230769202113,120.29145548131783 63.57142857089639,113.54616951872595 68.76373626384884,114.99158966518007 72.91758241690695,112.26135081995744 78.85164835117757,114.67038526968099 51.85164835117757,123.34288763313089 53.0384615380317,119.9702518528793 59.26923076901585,117.72182515112218 57.19230769202113,120.29145548131783 59.26923076901585,115.63399831741117 71.2857142854482,115.3127940146951 73.80769230704755,111.45833875553217 76.32967032957822,111.2977363076061 76.03296703286469,113.38556722179055 63.719780219718814,115.63399831741117 53.33516483474523,122.37927793327253 49.92307692300528,122.37927793327253 58.082417582161725,120.45205727790017 60.01098901126534,111.13713384838775 64.16483516432345,114.50978305411991 73.95604395586997,111.45833875553217 79.0,114.50978305411991 65.94505494553596,116.43700887064915 50.516483516432345,123.50348920910619 64.46153846103698,114.99158966518007 63.57142857089639,111.13713384838775 66.5384615380317,109.53110861510504 68.17032967042178,112.42195319803432 76.03296703286469,113.38556722179055 67.13186813145876,120.45205727790017 56.30219780188054,116.43700887064915 48.1428571427241,122.05807460681535 49.03296703286469,119.00664068828337 72.47252747230232,113.22496491367929 75.1428571427241,107.92508221929893 75.88461538404226,111.61894119170029 67.57692307699472,112.90376026195008 71.87912087980658,117.88242713431828 75.88461538404226,111.94014602922834 74.99450549390167,109.04930081847124" stroke="#4dd2ff" stroke-linecap="round" stroke-linejoin="round" stroke-width="0.5"><title>2022-03-10 2.4km</title></polyline><polyline fill="none" points="100.12342857150361,117.05052598624025 99.25942857097834,114.37810483376961 96.54399999976158,114.37810483376961 89.75542857125401,117.31776788865682 86.05257142847404,120.791909100255 87.28685714304447,123.19707995583303 96.0502857142128,126.27034926635679 101.35771428560838,123.99880287784617 107.77599999960512,124.53328463237267 115.42857142817229,113.97724132728763 115.05828571412712,108.23152150213718 112.3428571424447,105.15822216204833 100.61714285705239,114.77896825328935 89.13828571466729,117.71863066987135 86.05257142847404,121.05915046122391 89.01485714269802,125.06776623253245 97.03771428531036,121.32639178354293 103.70285714277998,122.92983890429605 111.72571428539231,120.9255297856871 114.07085714209825,114.24448367487639 111.4788571423851,111.57205846044235 87.28685714304447,118.38673511170782 85.31199999991804,123.46432096837088 88.39771428517997,126.00310866010841 94.56914285710081,125.4686273309635 100.49371428554878,121.86087431199849 105.80114285694435,123.06345943501219 113.70057142805308,121.99449491966516 113.33028571400791,113.70999894139823 110.12114285677671,111.17119434464257 89.26171428570524,118.38673511170782 85.18857142841443,122.52897725452203 89.01485714269802,125.86948834208306 96.7908571427688,124.13242333114613 100.61714285705239,119.58932249771897 107.03542857104912,122.662597814342 113.94742857152596,122.26173610659316 114.56457142857835,112.77465028571896 111.23199999984354,111.17119434464257 103.45599999977276,115.0462104845792 98.27199999941513,114.6453471230343 95.1862857141532,117.4513888254296 88.39771428517997,118.38673511170782 85.31199999991804,121.86087431199849 85.68228571442887,124.39966420840938 88.27428571414202,125.06776623253245 97.40800000028685,120.791909100255 101.11085714260116,123.3307004669914 108.39314285712317,122.79621836415026 112.58971428545192,118.92121849092655 112.3428571424447,113.30913528974634 110.36799999978393,111.03757295326795 105.06057142838836,113.97724132728763 99.50628571445122,114.37810483376961 94.93942857114598,117.71863066987135 87.16342857154086,118.78759766090661 84.57142857136205,121.86087431199849 85.31199999991804,124.26604377455078 90.37257142877206,125.4686273309635 98.76571428589523,120.25742626260035 105.43085714289919,122.12811551790219 110.61485714232549,119.85656403261237 113.0834285710007,117.31776788865682 112.71314285648987,111.43843709805515 104.31999999983236,112.90827155124862" stroke="#4dd2ff" stroke-linecap="round" stroke-linejoin="round" stroke-width="0.5"><title>2022-03-06 3.6km</title></polyline><polyline fill="none" points="128.8103141663596,115.43707915826235 126.37759336084127,112.80347072181758 124.32898636627942,117.51624115509912 125.609365737997,119.87262202298734 139.69353882642463,120.5656746677123 146.73562537040561,116.54596583754756 149.93657379969954,117.93207328370772 148.400118554011,114.46680278691929 135.8524007112719,114.05096990626771 125.48132780054584,116.68457662709989 124.71310017770156,119.4567903156858 126.88974510971457,121.39733750990126 134.95613515097648,119.4567903156858 140.84588026069105,120.5656746677123 145.4552459991537,117.10040893638507 147.63189093070105,117.51624115509912 149.29638411384076,114.46680278691929 146.99170124484226,115.71430088824127 142.51037344429642,114.05096990626771 139.3094250150025,116.13013340812176 129.96265560109168,115.71430088824127 123.04860699409619,119.31817972671706 123.94487255485728,120.98150613391772 132.52341434452683,116.40735503786709 141.35803200956434,116.68457662709989 147.2477771192789,113.21930387336761 149.4244220512919,113.7737479355419 148.14404267910868,115.99152257817332 139.94961470086128,110.58569238695782 133.03556609386578,112.94208178215194 124.45702430326492,120.98150613391772 127.27385892067105,122.22899999131914 135.8524007112719,118.34790532186162 141.35803200956434,119.1795691276202 145.96739774709567,116.96179817663506 148.01600474258885,114.46680278691929 147.3758150562644,111.97180414712057 145.07113218773156,112.80347072181758 141.10195613559335,110.0312474021921 125.35328986356035,114.88263557769824 125.609365737997,121.95177920442075 125.86544161196798,120.28845363983419 133.16360403085127,117.51624115509912 143.02252519270405,119.4567903156858 145.83935981057584,118.20929465233348 146.35151155944914,112.94208178215194 136.74866627156734,110.0312474021921 124.20094842882827,118.4865159811452 126.63366923481226,121.25872706144582 136.74866627156734,117.10040893638507 141.4860699470155,120.14984311105218 148.400118554011,116.54596583754756 148.78423236496747,111.69458187499549 127.9140486069955,120.5656746677123 129.32246591569856,123.33788273797836 133.41967990528792,119.59540089475922 136.23651452269405,120.14984311105218 135.98043864872307,116.68457662709989 138.92531120358035,118.90234789915849 148.52815649099648,115.99152257817332 150.44872554857284,112.2490263787331 147.5038529932499,109.6154135579709 144.43094250187278,111.69458187499549 136.1084765852429,112.2490263787331 132.90752815641463,115.99152257817332 127.14582098368555,115.99152257817332 124.07291049137712,119.1795691276202 125.86544161196798,122.64483109675348 130.0906935390085,122.64483109675348 135.98043864872307,117.23901968589053 144.43094250187278,120.70428516645916 150.32068761112168,117.10040893638507 151.08891523396596,111.14013721130323 148.65619442798197,110.44708115572575 136.3645524601452,112.11041526764166 133.03556609386578,115.15985738800373 125.99347954895347,113.63513693504501 127.40189685765654,116.54596583754756 121.0,117.79346258426085 124.84113811468706,121.67455837747548 132.26733847055584,118.62512663053349 133.5477178422734,119.87262202298734 135.21221102541313,117.3776304256171 140.71784232370555,120.14984311105218 148.78423236496747,119.59540089475922 151.8571428572759,113.7737479355419 148.91227030241862,108.09068869042676 148.52815649099648,110.58569238695782 145.5832839361392,112.11041526764166" stroke="#4dd2ff" stroke-linecap="round" stroke-linejoin="round" stroke-width="0.5"><title>2022-02-27 4.2km</title></polyline><polyline fill="none" points="170.1970443353057,119.25230783841107 164.87684729043394,124.02447620627936 159.8606615057215,123.36624668224249 158.6446164669469,119.74598089267965 167.61294862814248,119.74598089267965 167.91695988737047,121.55611450818833 178.55735397618264,111.35352439223789 187.6776917660609,114.15101333451457 182.50950035173446,122.87257441401016 188.2857142854482,106.91044664417859 183.42153413128108,109.21426581952255 176.58128078840673,108.06235652358737 173.5411681914702,116.12570933904499 170.1970443353057,116.12570933904499 170.04503870476037,118.59407693275716 163.05277973227203,120.73332667991053 159.40464461687952,124.84726284374483 174.4532019700855,114.64468749659136 172.6291344119236,115.6320354990894 177.64532019756734,122.21434455621056 173.99718508124352,120.40421146526933 180.98944405373186,113.6573390654521 180.83743842318654,122.3789020384429 175.6692470088601,115.6320354990894 163.81280788127333,124.51814822433516 157.4285714281723,124.02447620627936 158.79662209749222,127.15106384351384 157.7325826883316,122.87257441401016 162.90077410265803,113.1636646889383 166.85292047820985,118.10040362842847 174.7572132293135,121.39155696623493 172.17311752215028,104.27750758489128 174.60520760063082,106.74588804226369 177.79732582625002,106.08765351586044 182.35749472212046,116.78394095960539 181.74947220273316,121.72067203803454 174.7572132293135,117.11305669834837 172.9331456720829,120.5687690784689 170.3490499649197,117.44217238947749 162.90077410265803,120.07509620301425 160.46868402510881,125.83460641501006 161.38071780465543,118.75863467727322 168.67698803637177,125.50549193902407 174.9092188598588,125.99916363530792 172.17311752215028,113.1636646889383 173.3891625618562,106.91044664417859 180.22941590473056,108.22691503004171 179.77339901495725,120.23965383984614 181.29345531295985,115.6320354990894 179.92540464457124,117.11305669834837 178.86136523634195,113.49278095201589 186.0056298384443,116.94849883462302" stroke="#4dd2ff" stroke-linecap="round" stroke-linejoin="round" stroke-width="0.5"><title>2022-02-13 2.6km</title></polyline><polyline fill="none" points="32.44805617048405,135.64288407872664 34.70474530919455,137.05720238084905 35.813294359482825,138.90009691985324 38.188756610732526,140.18583390052663 39.93076226161793,144.08588567073457 41.55399479996413,145.50018381507834 39.534851886332035,154.07161547982832 37.23857171041891,156.4715941233444 36.28838680987246,162.21436069969786 34.942291534272954,163.32862239365932 30.07259391923435,163.11434146133251 26.23226328007877,165.42857142857974 23.144162353593856,165.38571540015982 20.887473215116188,164.61430635972647 19.462195864180103,165.17143521190155 19.105876526562497,164.5714502724004 15.503092112252489,163.67147172393743 12.929674673592672,159.51441021246137 12.731719485949725,156.34302408533404 14.354952024295926,153.64304684184026 17.838963326066732,151.80019816587446 19.145467563997954,150.4287721751607 20.174834539648145,146.91447858285392 19.97687935223803,144.21445836889325 21.91684019053355,137.2286346728797 26.07389912987128,134.57142857142026 29.914229769492522,135.25716031942284" stroke="#4dd2ff" stroke-linecap="round" stroke-linejoin="round" stroke-width="0.5"><title>2022-02-12 2.4km</title></polyline><polyline fill="none" points="65.51042441977188,143.17790859832894 60.56598500628024,158.92133743455634 53.48865015991032,162.59477956872433 64.54092649556696,154.51319458975922 65.60737421177328,157.97673652449157 71.03656258806586,155.98257702682167 69.67926549352705,158.71142617438454 72.5877592661418,161.86009188636672 71.71521113440394,163.01460093434434 65.99517338210717,160.9154928905191 61.05073396861553,162.07000269077253 57.07579247932881,160.60062642209232 52.61610202817246,163.32946687890217 53.003901198040694,158.71142617438454 55.42764600832015,157.13709075457882 65.12262524990365,160.39071540499572 70.16401445586234,155.77266534150112 68.70976756932214,159.02629305329174 70.16401445586234,141.2886856511468 62.504980854690075,146.7464341155719 65.02567545790225,145.06712908367626 63.95922774076462,144.75225917366333 59.98428625194356,159.34115986374673 55.718495385721326,160.60062642209232 54.07034891471267,163.85424330132082 55.815445178188384,159.8659377291333 62.79583023209125,158.60647053283174 67.83721943758428,155.56275362544693 71.23046217253432,154.723106457619 74.42980532208458,156.61231190129183 74.52675511455163,158.18664789106697 72.19996009673923,159.23620426782873 74.23590573715046,158.29160356288776 74.23590573715046,150.20999460143503 66.57687213644385,134.57142857136205 65.31652483483776,138.97963203990366 69.09756673919037,140.8688579952577 59.49953728960827,165.42857142852154 61.92328210081905,161.2303592909593 56.88189289486036,159.13124866422731 53.003901198040694,164.37901953351684 62.117181685287505,156.61231190129183 61.43853313848376,157.97673652449157 63.37752898642793,158.29160356288776 61.82633230788633,159.4461154518649 66.57687213644385,155.56275362544693 65.02567545790225,150.8397319826763 71.52131154993549,160.9154928905191 73.3633576054126,159.76098217139952 73.46030739834532,161.1254038317129 70.55181362573057,159.34115986374673 66.67382192891091,159.23620426782873 64.73482608050108,164.37901953351684 61.341583346016705,161.86009188636672 65.89822358917445,156.61231190129183 58.82088874327019,144.8572158179013 72.49080947367474,156.0875328584807" stroke="#4dd2ff" stroke-linecap="round" stroke-linejoin="round" stroke-width="0.5"><title>2022-02-09 3.9km</title></polyline><polyline fill="none" points="103.52850736724213,144.75703282852191 90.65983344009146,147.9028213120764 84.57142857136205,152.99599252827466 89.55285073630512,156.29156722465996 93.9807815500535,154.34418281097896 104.35874439449981,154.7935793766519 108.2331838561222,152.8461935535306 109.20179372187704,149.55061337118968 114.73670723894611,148.05262064444833 115.42857142863795,151.3482032122556 112.52274183183908,152.39679656527005 102.97501601511613,147.30362387408968 89.13773222267628,148.50201857613865 85.81678411317989,152.09719851845875 87.61563100619242,155.99196974211372 98.8238308778964,152.39679656527005 100.34593209484592,155.24297584511805 104.91223574569449,155.39277464640327 112.10762331821024,149.70041258411948 111.2773862904869,147.15382448770106 108.0948110180907,146.40482739254367 89.41447789873928,148.35221927659586 85.26329276058823,152.6963945684256 87.33888533012941,156.74096336774528 94.67264573927969,155.99196974211372 99.51569506712258,152.2469975472195 100.62267777044326,154.94337821064983 106.71108263917267,155.09317703323904 111.69250480411574,150.74900677183177 112.79948750790209,152.09719851845875 115.29019859014079,146.55462683329824 104.77386290859431,147.9028213120764 97.30172966001555,145.05663193797227 94.11915438761935,149.1012156669749 88.44586803298444,148.65181786532048 84.84817424695939,152.2469975472195 88.1691223573871,156.44136594992597 99.37732222909108,151.9473994789878 101.45291479770094,155.09317703323904 105.60409993631765,155.39277464640327 112.24599615624174,147.9028213120764 99.65406790515408,149.1012156669749 101.3145419601351,155.24297584511805 109.20179372187704,155.5425734365126 111.69250480411574,152.8461935535306 111.5541319665499,146.70442626299337 108.50992953171954,143.25903663225472 103.39013452874497,143.85823524126317" stroke="#4dd2ff" stroke-linecap="round" stroke-linejoin="round" stroke-width="0.5"><title>2022-02-07 2.3km</title></polyline><polyline fill="none" points="141.13682092539966,148.98062887007836 139.25352112669498,147.5691402037628 136.06639838963747,147.7259723233292 136.7907444667071,149.13746088708285 138.23943661898375,148.03963652811944 139.6881287721917,151.9604352567112 144.61368209216744,153.9992477920605 137.51509054284543,154.62657433992717 137.65995975863189,152.43093062739354 134.61770623736084,151.9604352567112 127.51911468803883,155.56756382156163 122.30382293649018,153.68558444979135 121.28973842971027,150.39211661648005 127.66398390289396,149.4511248874478 133.45875251479447,143.96199832425918 140.9919517096132,144.90299243689515 148.52515090536326,146.9418116126908 148.95975855086,150.39211661648005 146.49698189087212,154.31291108881123 143.16498993895948,152.90142589609604 139.3983903415501,155.25390070630237 136.64587525092065,152.2740988485748 127.37424547225237,155.25390070630237 121.43460764549673,153.9992477920605 124.04225352033973,155.56756382156163 132.15492957644165,151.9604352567112 133.16901408415288,144.58932777808513 140.12273641861975,145.21665705018677 142.44064386282116,149.92162080307025 149.6841046269983,146.78497943631373 150.69818913470954,151.17627607868053 146.7867203215137,157.13587871589698 143.16498993895948,157.44954155827872 140.84708249475807,152.43093062739354 135.4869215292856,151.0194442087086 132.2997987922281,158.8610237883404 127.51911468803883,162.62497190700378 121.0,158.23369846655987 122.88329979870468,154.15607944584917 127.37424547225237,154.94023754599039 129.4024144867435,157.9200357372174 131.72032193094492,149.13746088708285 137.65995975863189,145.05982474947814 142.5855130776763,146.62814724899363 145.04828973766416,145.05982474947814 151.5674044266343,148.66696480137762 139.9778672028333,153.84241612674668 135.92152917478234,152.11726705811452 128.24346076417714,156.9790472772438 122.59356136806309,154.31291108881123 122.44869215227664,150.54894853185397 123.75251508969814,148.98062887007836 130.41649899352342,149.76478884287644 135.19718309864402,144.74616011290345 140.2676056334749,146.31448283954524 147.3661971827969,143.49150111468043 150.84305834956467,144.43249543197453 151.8571428572759,150.2352846902795 135.05231388285756,142.86417134315707 136.21126760542393,141.76634380535688 134.03822937514633,145.21665705018677 139.25352112669498,145.68715388537385 139.3983903415501,143.17783625144511 147.6559356134385,142.23684138967656 142.8752515092492,137.3750280928798 139.83299798704684,137.6886937962845 133.6036217296496,147.41230807325337 136.35613682027906,148.3533006872749 137.94969818927348,145.8439861406805 146.49698189087212,143.17783625144511 148.67002012114972,141.13901353429537 147.3661971827969,140.19801778683905 149.6841046269983,142.08000887278467 149.24949698150158,145.05982474947814 138.96378269512206,151.8036034438992" stroke="#4dd2ff" stroke-linecap="round" stroke-linejoin="round" stroke-width="0.5"><title>2022-02-06 3.0km</title></polyline><polyline fill="none" points="181.18712273612618,141.0606068619527 159.31187122687697,148.58854341774713 159.45674044266343,151.72517593065277 161.19517102558166,149.21587028331123 175.24748490843922,144.51091436296701 179.3038229374215,148.58854341774713 187.12676056288183,147.0202254585456 174.5231388323009,145.76557027420495 164.09255533199757,152.50933334918227 160.32595573365688,149.05903858412057 157.4285714281723,150.00002861046232 161.77464788686484,155.33229770697653 161.62977867107838,160.19406103610527 170.17706237360835,161.13504622667097 171.04627766553313,157.84159627137706 180.02816901355982,157.68476519617252 181.6217303816229,159.56673734879587 188.2857142854482,155.48912895249669 179.73843058291823,142.78576129931025 176.26156941615045,143.4130898450967 173.79879275616258,141.0606068619527 167.1348088523373,142.78576129931025 169.01810865104198,149.21587028331123 166.1207243455574,149.84319696738385 165.83098591584712,152.82299623743165 169.01810865104198,152.50933334918227 177.7102615693584,142.6289291344583 180.3179074442014,144.51091436296701 184.08450704161078,141.6879359073937 176.116700200364,147.6475527783623 171.48088531102985,144.0404182090424 161.77464788686484,149.37270197144244 161.9195171026513,151.41151288338006 170.46680080424994,147.96121637022588 173.65392354037613,149.21587028331123 181.47686116583645,139.8059482264798 178.86921529192477,152.82299623743165 175.97183098550886,150.94101822783705 175.53722334001213,152.66616479877848 176.69617706164718,151.41151288338006 182.34607645776123,155.0186351822922 187.9959758548066,151.72517593065277 181.9114688122645,138.86495377321262 185.0985915483907,139.33545105077792 183.5050301803276,139.17861863656435 183.7947686109692,141.0606068619527" stroke="#4dd2ff" stroke-linecap="round" stroke-linejoin="round" stroke-width="0.5"><title>2022-02-05 2.4km</title></polyline><polyline fill="none" points="25.319480519508943,186.9425320016453 25.88051948044449,190.96560683706775 26.932467532576993,191.87648956564954 42.15064935060218,192.3319306335179 42.57142857159488,190.0547233184916 41.3792207792867,187.9293253691867 39.6259740262758,187.39797520940192 36.189610389759764,188.6124894648674 35.34805194824003,187.39797520940192 32.47272727265954,187.54978956806008 30.71948051941581,181.62901331321336 23.21558441594243,177.37817900266964 22.584415584569797,172.89960280893138 13.397402597824112,173.658684864291 12.20519480551593,175.70820367248962 11.714285714318976,184.36168342537712 13.116883117007092,188.68839655915508 15.080519480863586,189.2956531160744 16.202597402967513,195.06457289296668 19.148051948286593,195.59591917315265 25.319480519508943,190.28244427219033 26.58181818202138,191.1933275933261 41.23896103887819,192.10421012411825 42.43116883118637,190.66197908547474 39.8363636364229,187.85341821983457 36.11948051955551,188.76430364791304 35.13766233762726,187.6256967393565 31.911688311723992,187.32206802186556 30.579220779472962,181.62901331321336 24.477922078222036,178.74452047911473 22.794805195182562,176.16365175315877 22.654545454774052,172.97551103914157 16.76363636390306,173.05141926382203 13.81818181858398,173.810501209402 12.485714285634458,175.63229563983623 12.06493506510742,184.8171277527581 13.187012987211347,188.99202488153242 15.29090909101069,189.44746720039984 15.851948052179068,194.6850396710215 17.745454545598477,195.6718257625471 18.727272727293894,194.9127596205799" stroke="#4dd2ff" stroke-linecap="round" stroke-linejoin="round" stroke-width="0.5"><title>2022-02-02 2.7km</title></polyline><polyline fill="none" points="68.84126984141767,181.26138681708835 57.920634920708835,180.71150584204588 58.93650793656707,186.62271798180882 55.25396825466305,184.1482593244873 52.71428571501747,185.3854890562361 54.74603174626827,187.99741584283765 60.71428571455181,190.05946076859254 65.53968253964558,186.62271798180882 70.36507936520502,189.78452157450374 76.84126984141767,188.40982500719838 76.84126984141767,185.66042888711672 73.28571428591385,181.67379744397476 68.84126984141767,182.7735586776398 64.9047619048506,181.39885703567415 56.396825396921486,183.59837918530684 52.71428571501747,187.3100670366548 56.1428571427241,189.23464306688402 61.73015873041004,187.99741584283765 65.41269841324538,184.2857293348061 68.07936507929116,185.24801912589464 69.34920634981245,189.23464306688402 75.82539682555944,187.035127444542 76.58730158768594,184.6981393051101 74.42857142910361,182.22367814031895 67.82539682555944,182.49861842906103 59.444444444496185,179.88668408058584 53.8571428572759,183.73584923520684 55.126984127331525,187.72247635014355 59.06349206343293,188.68476440012455 65.92063492070884,184.56066932459362 68.33333333395422,189.37211270886473 73.53968253964558,188.27235529536847 79.0,183.8733192748623 74.30158730177209,176.72486401104834 63.63492063526064,181.81126763287466 58.42857142910361,182.0862079814542 56.1428571427241,187.3100670366548 48.1428571427241,188.68476440012455 49.66666666697711,189.78452157450374 60.333333333954215,186.89765763352625 71.38095238106325,191.0217476345133 77.47619047621265,183.8733192748623 73.66666666697711,179.88668408058584 63.0,183.73584923520684 69.47619047667831,190.05946076859254 76.33333333348855,185.11054918565787 76.84126984141767,181.67379744397476 68.9682539687492,180.98644634906668 61.47619047621265,184.2857293348061 71.38095238106325,191.84656456043012 76.9682539687492,188.68476440012455 75.19047619123012,182.7735586776398" stroke="#4dd2ff" stroke-linecap="round" stroke-linejoin="round" stroke-width="0.5"><title>2022-01-28 2.6km</title></polyline><polyline fill="none" points="101.37755102012306,186.29902629985008 102.34183673420921,184.06206525326706 103.85714285681024,188.38685441832058 101.10204081563279,186.89554883516394 98.20918367337435,196.7381457366282 99.1734693874605,190.92207143234555 97.65816326532513,190.02728931279853 84.57142857136205,193.60641545895487 96.1428571427241,191.36946234630886 94.35204081563279,192.4133741010446 93.24999999953434,188.23772390850354 94.76530612260103,186.89554883516394 87.87755102058873,184.95684996328782 90.63265306130052,188.68511540535837 96.00510204024613,186.29902629985008 101.79081632615998,188.53598491707817 99.58673469349742,195.09771618491504 113.77551020355895,170.3419843754964 112.94897959148511,180.03552925027907 115.42857142817229,183.31641103199217 105.9234693874605,183.61467275267933 102.34183673420921,189.57989810733125 98.07142857136205,187.49207119771745 98.76020408142358,189.2816372498637 91.32142857136205,188.53598491707817 86.22448979597539,191.07120174763259 88.15306122414768,189.13250680512283 96.1428571427241,190.02728931279853 99.58673469349742,185.55337288731243 103.99489795882255,185.25511144695338 113.49999999953434,194.35206595691852 108.54081632569432,193.60641545895487 102.75510204071179,183.76380359730683 107.43877550959587,184.658588436665 105.51020408142358,184.50945765699726 103.58163265278563,193.60641545895487 96.00510204024613,190.17641969327815 106.47448979550973,193.90467569057364 110.74489795928821,198.22944419586565 106.33673469349742,194.05380578991026 108.8163265301846,192.11511365347542 108.1275510196574,189.2816372498637 111.7091836729087,190.02728931279853 106.47448979550973,183.61467275267933 109.91836734674871,191.8168531631818 109.64285714179277,197.18553538783453 104.9591836729087,189.57989810733125 103.85714285681024,191.07120174763259 103.99489795882255,188.38685441832058 102.06632653065026,190.3255500626983 99.58673469349742,189.2816372498637" stroke="#4dd2ff" stroke-linecap="round" stroke-linejoin="round" stroke-width="0.5"><title>2022-01-26 2.5km</title></polyline><polyline fill="none" points="138.56295878021047,183.36147553741466 130.26933935610577,181.24889132822864 129.65951439877972,179.53241485671606 131.4889892716892,182.96536618459504 121.97571993246675,187.85070885904133 127.22021456854418,187.05849201674573 133.80632411083207,178.4761208408745 137.46527385618538,180.5887082607951 144.66120835673064,180.32463496748824 144.78317334828898,182.04111069336068 126.36645962717012,187.58663661638275 135.3918690001592,177.28778934187721 141.73404856026173,178.4761208408745 145.63692828919739,176.62760484125465 145.75889328075573,180.19259830622468 131.6109542627819,186.26627483044285 129.41558441566303,183.88962120760698 124.29305477114394,186.5303472642554 125.51270468719304,187.4546004809672 129.65951439877972,185.60609357920475 130.51326933922246,181.1168547339039 132.95256917038932,179.66445156547707 136.85544889885932,180.98481812980026 143.92941840784624,179.53241485671606 139.0508187469095,180.5887082607951 135.75776397483423,184.285730359843 132.58667419524863,179.26834141020663 130.51326933922246,181.7770376097178 138.0750988139771,181.7770376097178 124.41501976316795,191.9438237301074 124.29305477114394,189.4351415114943 121.0,189.96328542300034 122.34161490714177,187.85070885904133 133.44042913615704,178.7401944019366 138.56295878021047,181.9090741565451 144.66120835673064,180.72074489388615 135.26990400953218,185.73812984849792 135.3918690001592,183.88962120760698 135.75776397483423,186.92645584302954 141.49011857714504,184.54980308015365 146.36871823854744,178.08001042739488 145.02710333140567,182.5692567457445 151.8571428572759,180.19259830622468" stroke="#4dd2ff" stroke-linecap="round" stroke-linejoin="round" stroke-width="0.5"><title>2022-01-24 2.3km</title></polyline><polyline fill="none" points="177.58857142878696,179.16359424381517 176.62857142882422,180.351337064174 177.58857142878696,178.866658431245 174.160000000149,177.9758507356746 164.14857142837718,181.68754691502545 157.56571428570896,185.69617124507204 157.70285714324564,189.85325486876536 164.6971428571269,190.89252445835155 174.02285714261234,185.84463866229635 187.87428571470082,187.03237761417404 186.5028571425937,179.01512634265237 182.2514285715297,176.63963846722618 176.0800000000745,178.56972257536836 171.82857142901048,176.93657460191753 167.43999999994412,177.3819787238026 166.7542857141234,181.98448231909424 157.8400000007823,187.18084493500646 159.07428571442142,189.85325486876536 164.97142857126892,191.04099149955437 173.1999999997206,189.25938629568554 173.6114285713993,187.62624683254398 178.27428571414202,189.7047877414152 187.05142857180908,188.36858311318792 187.46285714348778,180.20286924915854 181.29142857156694,176.93657460191753 168.39999999990687,178.7181905087782 167.57714285701513,181.5390791965183 161.2685714289546,182.13295000523794 157.42857142863795,187.03237761417404 158.11428571445867,190.44712327013258 166.20571428583935,192.37719438725617 173.74857142893597,187.47777954372577 183.07428571442142,190.00172198517248 186.36571428598836,188.9624519442441 188.14857142884284,178.866658431245 180.3314285716042,176.3427022891119 168.39999999990687,178.866658431245 166.8914285711944,183.17222350626253 159.75999999977648,184.9538339972496 158.52571428613737,189.11091912526172 168.53714285697788,190.59559034358244 173.0628571426496,185.84463866229635 177.86285714246333,188.8139847527491 185.67999999970198,186.14157346484717 188.28571428591385,182.7268206415465 187.87428571470082,180.05440142331645 184.03428571438417,176.19423418410588 179.37142857164145,177.08504265313968" stroke="#4dd2ff" stroke-linecap="round" stroke-linejoin="round" stroke-width="0.5"><title>2022-01-23 2.3km</title></polyline><polyline fill="none" points="31.632653061300516,215.39000424160622 19.551020408049226,219.2784432140179 14.0,225.464583364781 14.0,222.45988867757842 19.877551021054387,216.8039827661123 26.24489795975387,215.7434989491012 34.40816326532513,215.56675160187297 33.42857142910361,219.80868441262282 28.040816326625645,219.80868441262282 34.57142857182771,207.25961183616892 27.551020408049226,218.21796047175303 16.612244897522032,221.0459134276025 16.612244897522032,224.05060985474847 14.979591836221516,222.81338236178271 19.387755101546645,222.6366355260834 23.632653061300516,216.09699360607192 38.00000000093132,214.50626724772155 34.08163265325129,219.98543145298027 23.795918366871774,217.86446612211876 19.387755101546645,225.2878367207013 23.306122448295355,223.16687599522993 11.714285714551806,223.16687599522993 30.32653061207384,212.91553985280916 33.10204081609845,216.27374091534875 28.85714285634458,221.22266037832014 18.40816326532513,217.68771892832592 13.83673469349742,226.34831639262848 22.0,221.7529011548031 19.877551021054387,220.6924194872845 13.346938775852323,226.17156981257722 17.10204081609845,225.2878367207013 21.836734694428742,218.57145477063023 30.0,219.10169612267055 32.12244897894561,216.45048821135424 39.1428571427241,222.6366355260834 42.57142857182771,221.92964805453084 40.612244898453355,211.3248114224989 35.06122448947281,208.3200993372593 37.67346938699484,213.62252993439324 32.93877551052719,219.10169612267055 28.204081633128226,219.80868441262282 21.67346938792616,229.88324530655518 29.020408163778484,223.69711634959094 30.97959183715284,227.2320491007995 37.020408163778484,223.69711634959094 32.93877551052719,216.45048821135424 41.26530612260103,211.1480637548957 39.632653061300516,207.61310772108845 28.530612245202065,219.80868441262282" stroke="#4dd2ff" stroke-linecap="round" stroke-linejoin="round" stroke-width="0.5"><title>2022-01-14 2.4km</title></polyline><polyline fill="none" points="58.5639097741805,214.10276066325605 50.443609022535384,216.153959921794 48.54887218074873,219.67029667156748 49.9022556389682,224.06570901919622 55.72180451126769,224.94479034363758 64.24812030047178,219.9633244582219 69.39097744319588,223.04011365852784 73.72180451033637,223.18662731349468 76.5639097741805,221.57497652748134 78.72932330751792,214.395789256203 74.53383458591998,211.4655014204327 71.69172932300717,213.3701889963122 61.541353383567184,212.34458821674343 48.81954887229949,219.67029667156748 49.9022556389682,225.97038473945577 54.3684210521169,225.384330862551 64.24812030047178,219.37726884230506 69.6616541352123,221.86800403834786 77.78195488685742,216.44698821741622 79.0,213.3701889963122 74.53383458591998,211.4655014204327 63.97744360892102,214.54230353655294 60.458646615967155,213.80973202863242 50.578947368077934,218.0586430862313 49.49624060140923,222.60057263064664 52.74436090188101,225.384330862551 59.78195488639176,223.18662731349468 62.62406015023589,219.9633244582219 66.68421052582562,222.16103150718845 78.1879699244164,214.24927496514283 66.95488721784204,212.051559326821 50.71428571455181,216.59350234956946 48.1428571427241,221.13543518132064 52.067669172305614,225.6773578224238 61.94736842112616,219.9633244582219 66.95488721784204,222.74708631727844 76.02255639014766,221.42846275574993 76.02255639014766,212.34458821674343 73.18045112723485,211.17247240338475" stroke="#4dd2ff" stroke-linecap="round" stroke-linejoin="round" stroke-width="0.5"><title>2022-01-11 2.1km</title></polyline><polyline fill="none" points="104.43654199875891,211.33125802013092 104.8338442677632,216.2058480756823 102.84733292507008,215.9191078164149 105.23114653583616,214.48540589679033 94.50398528529331,215.48899734951556 90.53096259990707,213.3384436131455 86.2930717356503,225.23814500216395 96.49049662845209,220.22020734997932 100.46351931337267,224.9514060501242 106.82035560999066,220.22020734997932 109.2041692212224,220.7936865822412 110.92581238457933,217.06606860505417 109.07173513201997,212.04811025131494 109.60147149022669,213.3384436131455 103.50950337201357,212.621591849369 103.37706928281114,214.05529511836357 94.6364193749614,216.0624779514037 94.76885346416384,213.05170293920673 87.08767627226189,222.08401424763724 84.96873083990067,221.65390511916485 85.23359901970252,224.66466705687344 86.4255058253184,225.66825335251633 95.43102391203865,222.08401424763724 111.58798283245414,222.8008625874063 111.58798283245414,210.90114655683283 102.71489883493632,209.324070392875 95.16615573270246,215.77573767129797 89.2066217046231,215.0588867890183 85.10116493003443,218.6431386055192 86.69037400372326,224.66466705687344 84.57142857136205,228.53563996683806 90.53096259990707,225.95499220036436 91.06069895764813,227.10194717836566 100.33108522417024,220.36357717344072 103.90680564101785,222.2273839362897 115.16370324930176,220.22020734997932 112.51502145919949,214.772146363277 113.30962599627674,208.7505878400989 108.14469650574028,211.47462848725263 98.07970570214093,211.90473982563708 90.26609442057088,218.35639869887382 85.76333537744358,217.63954875036143 84.96873083990067,224.37792802159674 89.60392397316173,225.66825335251633 100.06621704483405,220.0768375158077 102.45003065653145,222.2273839362897 114.23666462348774,220.22020734997932 115.42857142863795,208.60721717600245 104.7014101780951,210.47103500040248 97.28510116506368,216.2058480756823 101.12568976124749,222.51412328274455 103.64193746214733,219.93346767162438 104.56897608796135,222.8008625874063 108.80686695268378,225.23814500216395 112.3825873695314,219.21661829412915 109.60147149022669,215.3456271730829" stroke="#4dd2ff" stroke-linecap="round" stroke-linejoin="round" stroke-width="0.5"><title>2022-01-09 2.9km</title></polyline><polyline fill="none" points="141.8629265469499,212.28262054058723 139.61422787699848,213.90554895286914 133.61769809108227,213.0940849230392 128.99537304788828,216.61042650823947 122.24927703849971,217.9628638176946 121.0,221.208709366736 122.24927703849971,224.99552204750944 126.87160208215937,228.64708415057976 132.24349334882572,229.4585414264584 137.2406015037559,221.61443966371007 147.9843840370886,220.8029789814027 149.60844418685883,218.09810749499593 146.61017929390073,213.22932895249687 136.86581839201972,212.68835277564358 134.9919028338045,210.38920227752533 129.99479467840865,212.1473764424445 128.7455176403746,217.15140154981054 125.12261422770098,215.6637198093813 122.37420474272221,216.8809140487574 121.99942163098603,223.778333093971 133.2429149793461,221.88492647965904 136.49103528028354,219.18005655927118 141.11336032347754,222.56114334787708 147.73452862910926,222.29065663006622 149.73337189108133,219.18005655927118 148.35916714882478,215.1227443376556 140.9884326197207,212.1473764424445 133.86755349906161,212.41786462860182 131.2440717178397,213.90554895286914 129.99479467840865,217.82762013096362 124.49797570891678,218.09810749499593 121.37478311173618,220.53249200887512 122.99884326197207,224.04881959652994 129.86986697511747,224.99552204750944 134.36726431455463,223.23735997150652 137.99016772722825,218.36859481979627 143.8617698084563,220.93822245288175 149.60844418685883,217.15140154981054 149.60844418685883,214.31128083576914 148.85887796385214,217.55713272781577 145.23597455164418,213.63506098242942 141.23828802770004,214.98750044498593 137.1156737995334,211.7416440898087 128.99537304788828,216.33993892895523 123.62348178122193,217.01615780382417 121.49971081549302,220.39724850805942 122.49913244601339,223.37260326673277 131.61885482957587,223.50784655218013 135.49161364976317,218.09810749499593 145.7356853671372,221.0734659145819 148.23423944460228,219.99151794658974 151.48235974553972,217.28664528555237 151.8571428572759,214.31128083576914 151.7322151530534,210.11871379753575 150.3580104103312,207.68431571638212 148.23423944460228,207.95480454864446" stroke="#4dd2ff" stroke-linecap="round" stroke-linejoin="round" stroke-width="0.5"><title>2022-01-08 2.5km</title></polyline><polyline fill="none" points="173.77188029373065,214.14823678822722 177.06493506534025,214.41230990970507 175.6013551671058,215.73267494502943 168.52738565811887,217.31711172591895 164.86843591276556,212.43176056514494 159.3800112940371,217.58118438883685 160.11180124199018,220.35394504282158 164.1366459634155,221.67430577753112 171.94240542128682,218.5054384083487 174.7476002261974,221.54226974688936 179.87012987071648,220.485981159145 185.60248447256163,215.86471139616333 185.72444946458563,211.77157697244547 178.16261998936534,210.4512090702774 168.77131564123556,212.69583393528592 167.18577075144276,216.78896628541406 158.28232637001202,217.053039024584 157.42857142863795,219.95783663599286 159.98983625136316,223.7868809653446 166.81987577676773,222.99466555658728 174.6256352351047,217.58118438883685 181.8215697351843,220.6180172660388 187.79785432014614,212.16768715670332 180.3579898364842,208.47065542498603 171.08865048037842,213.4880538166035 166.33201581053436,212.29972386546433 165.23433088650927,216.39285710442346 158.64822134422138,219.16561956435908 159.74590626824647,222.99466555658728 169.50310559011996,220.22190891648643 171.69847543817014,221.1461615981534 172.43026538705453,218.7695108994376 177.55279503110796,220.75005336361937 179.87012987071648,218.3734021486016 184.3828345569782,219.29765576682985 188.28571428591385,217.31711172591895 187.79785432014614,214.01620021276176 182.67532467562705,209.13084021233954 173.52795031107962,212.43176056514494 167.79559570876881,211.77157697244547 166.08808582741767,216.78896628541406 158.77018633531407,219.03358335222583 160.11180124199018,227.48388165782671 163.16092603094876,228.67220171785448 168.77131564123556,227.35184604779352 172.0643704123795,220.08987278107088 178.16261998936534,221.1461615981534 187.79785432014614,218.5054384083487 188.04178430326283,214.14823678822722 185.60248447256163,211.6395402252674 178.40654997248203,210.8473195412662 174.7476002261974,212.43176056514494" stroke="#4dd2ff" stroke-linecap="round" stroke-linejoin="round" stroke-width="0.5"><title>2022-01-03 2.6km</title></polyline><polyline fill="none" points="31.128571428358555,248.0551623541396 22.899999999906868,248.47272817441262 12.614285713993013,252.50919309526216 13.128571428824216,259.0510320434114 22.25714285718277,258.21590490592644 27.27142857108265,252.92675794835668 36.27142857154831,255.43214516248554 40.51428571436554,251.67406311701052 35.371428571641445,244.71463252895046 21.742857142351568,248.75110533775296 20.971428570803255,251.67406311701052 15.057142856996506,251.5348747522803 11.714285714086145,255.43214516248554 15.957142856903374,257.1024014923023 26.49999999953434,252.78756967408117 30.100000000093132,256.1280854763463 34.471428571268916,256.5456495436374 42.442857143469155,253.7618873823667 39.614285714458674,248.0551623541396 34.60000000009313,245.2713879031362 28.299999999813735,245.82814311562106 19.814285714179277,251.95243981690146 12.614285713993013,252.50919309526216 13.25714285671711,257.79834120126907 16.214285713620484,260.58209751953837 21.742857142351568,261.8347865481628 26.75714285718277,255.01458085351624 32.02857142826542,258.35509278730024 34.471428571268916,257.380777406157 40.90000000037253,252.0916281514801 40.64285714318976,246.8024643502431 35.371428571641445,243.87949916603975 27.40000000037253,249.02948246058077 21.100000000093132,247.63759644364472 19.685714285820723,251.39568637718912 11.8428571424447,253.7618873823667 13.514285714365542,259.0510320434114 20.714285714086145,260.7212852296652 27.40000000037253,253.90107558609452 29.32857142854482,255.84970938100014 42.57142857136205,252.6483813895611 41.542857142630965,248.75110533775296 34.60000000009313,245.82814311562106 30.48571428610012,245.2713879031362 28.814285714179277,247.22003044199664 28.68571428535506,245.82814311562106 24.442857143003494,250.97812119161244 27.528571428731084,256.96321352012455 30.614285714458674,256.96321352012455" stroke="#4dd2ff" stroke-linecap="round" stroke-linejoin="round" stroke-width="0.5"><title>2022-01-02 2.6km</title></polyline><polyline fill="none" points="68.3770491797477,248.74996301403735 65.84777517523617,249.02377667673863 64.83606557315215,247.1070802070899 65.08899297425523,249.98212418321054 63.19203747017309,247.79161488323007 51.81030444893986,252.30953753483482 48.64871194306761,255.0476672234945 49.154566744342446,258.6072298932122 58.89227166259661,259.01794823165983 64.70960187353194,252.85716378991492 66.48009367659688,256.0060116779059 73.05620608851314,256.6905431342311 76.72365339519456,252.72025724081323 77.98829039791599,246.55945228761993 75.20608899276704,245.1903817950515 65.46838407451287,245.73801011103205 59.524590163491666,248.47614931233693 58.25995316077024,251.2142845498165 48.1428571427241,253.81550935423002 48.77517564361915,259.29176040773746 54.466042154002935,260.9346326322993 60.789227165747434,260.11319669825025 64.33021077280864,254.22622873296496 71.91803278680891,257.9226991307223 77.48243559664115,249.70831065974198 67.36533957766369,247.65470796800219 51.43091334821656,252.99407032865565 48.64871194306761,255.86910535721108 48.90163934370503,259.97629067476373 53.327868851367384,261.75606820965186 64.70960187353194,254.91076083329972 69.64168618246913,257.5119805543218 76.21779859485105,255.1845736040268 76.59718969557434,256.6905431342311 78.99999999953434,248.74996301403735 73.9414519900456,244.23203186085448 64.45667447289452,245.73801011103205 57.8805620605126,250.66665781941265 50.79859484685585,252.85716378991492 48.26932084187865,256.6905431342311 49.281030444893986,259.4286664808169 57.374707259237766,259.83938464091625 64.45667447289452,253.81550935423002 69.89461358264089,257.6488867565058 77.2295081964694,252.03572434815578 75.83840749412775,243.95821750466712 69.00936768110842,247.1070802070899 61.29508196655661,246.8332662669709 56.74238875834271,251.89881773968227 51.5573770487681,252.30953753483482 48.90163934370503,256.82744939567056 50.292740046512336,259.1548543245299 59.524590163491666,253.67860287474468 60.662763465661556,256.6905431342311 63.697892270982265,254.5000416028779" stroke="#4dd2ff" stroke-linecap="round" stroke-linejoin="round" stroke-width="0.5"><title>2021-12-29 2.9km</title></polyline><polyline fill="none" points="100.06246385211125,256.0353863061173 98.6882591098547,255.90014272683766 99.68768074037507,250.2199035611702 94.06593406572938,249.81417153123766 92.31694621173665,252.3838062316645 88.44418739201501,252.92478150769603 85.82070561079308,256.3058734352235 86.69519953709096,260.3631756725954 96.68941584741697,259.14598592650145 98.6882591098547,255.0886810461525 106.18392134224996,258.4697690582834 112.55523423943669,257.3878215600271 113.80451127747074,251.57234302372672 107.68305378826335,248.46173079579603 101.18681318731979,250.08465956046712 93.19144013896585,248.5969749132637 84.57142857136205,253.60100038256496 86.19548872252926,259.9574458452407 96.18970503192395,259.6869592446601 100.56217466760427,255.0886810461525 103.3105841530487,257.5230650315061 111.05610179295763,256.84684757573996 114.80393290892243,254.2772190128453 115.42857142863795,251.70758691627998 111.93059571972117,244.9453803023789 104.43493348779157,248.5969749132637 94.44071717793122,248.7322190211853 91.69230769202113,254.00673159002326 84.94621168309823,254.412462709588 84.69635627558455,257.2525780784199 86.19548872252926,260.76890541194007 89.19375361455604,260.6336621751543 100.93695777934045,255.0886810461525 110.68131868122146,259.6869592446601 114.30422209342942,251.57234302372672 107.80798149202019,249.54368346219417 102.81087333709002,250.49039153149351 94.19086176948622,248.86746311944444 92.94158473145217,253.06002530246042 86.94505494553596,251.57234302372672 85.69577790657058,253.73624412843492 87.69462116854265,257.7935519453604 90.44303065398708,258.7402558347676 98.06362059013918,258.7402558347676 99.1879699244164,256.84684757573996 109.55696934601292,258.3345256552566 113.92943898169324,252.92478150769603 112.18045112770051,248.5969749132637 107.93290919624269,246.70355637627654 87.44476576056331,254.2772190128453" stroke="#4dd2ff" stroke-linecap="round" stroke-linejoin="round" stroke-width="0.5"><title>2021-12-28 2.6km</title></polyline><polyline fill="none" points="135.8654848798178,245.96884926897474 134.62669447343796,249.50444742513355 130.00938477553427,250.11403256410267 125.3920750785619,254.50303905212786 124.82898853020743,257.79478641366586 126.4056308651343,259.98928108089603 129.4462982271798,255.2345390218543 135.8654848798178,254.0153722295072 138.34306569350883,257.063287556055 143.18561001028866,257.6728699593805 148.92909280536696,253.40578850230668 149.49217935372144,248.8948620655574 140.25755995837972,247.797607862507 135.18978102179244,249.138696235721 127.7570385816507,251.94278665725142 125.05422314908355,254.62495573598426 125.95516162645072,258.64820134604815 128.0948905106634,260.35502991394605 133.7257559960708,259.7454484810587 137.55474452581257,254.74687241076026 140.9332638164051,257.1852040543454 146.67674661101773,255.47837227454875 151.8571428572759,245.35926262987778 143.4108446300961,248.4071936191758 137.442127215676,246.2126838627737 137.21689259633422,247.797607862507 126.29301355592906,250.96745138801634 124.71637122007087,256.81945453281514 121.0,259.7454484810587 135.8654848798178,257.42903702449985 136.9916579774581,253.64962201961316 140.48279457818717,257.6728699593805 148.25338894687593,254.0153722295072 150.16788321221247,248.04144219181035 148.36600625654683,245.48117997508962 131.5860271109268,246.45651842129882 130.68508863355964,250.23594956542365 123.13972888421267,255.8441220872337 123.70281543256715,259.7454484810587 126.06777893612161,261.086527342326 126.06777893612161,258.2824521420989 130.7977059436962,257.55095349648036 128.9958289884962,260.35502991394605 135.64025026094168,255.2345390218543 139.0187695515342,256.6975380079821 147.6903023980558,255.6002888873918 150.2805005214177,246.94418743264396 147.91553701786324,244.62775837176014 143.07299270108342,245.23734527558554 142.84775808127597,246.57843568746466" stroke="#4dd2ff" stroke-linecap="round" stroke-linejoin="round" stroke-width="0.5"><title>2021-12-27 2.6km</title></polyline></svg>