<?xml version="1.0" encoding="utf-8" ?>
<svg baseProfile="full" height="200mm" version="1.1" viewBox="0,0,200,200" width="200mm" xmlns="http://www.w3.org/2000/svg" xmlns:ev="http://www.w3.org/2001/xml-events" xmlns:xlink="http://www.w3.org/1999/xlink"><defs /><rect fill="#1a1a1a" height="200" width="200" x="0" y="0" /><text alignment-baseline="middle" fill="#e1ed5e" style="dominant-baseline: central; font-size:9.0px; font-family:Arial;" text-anchor="middle" x="100.0" y="100.0">2022</text><line stroke="#e1ed5e" stroke-width="0.3" x1="100.0" x2="100.0" y1="15.0" y2="10.0" /><path d="M 100.0 14.0 a86.0,86.0 0 0,1 42.46469731375804,11.215312516191453" fill="none" id="id13" stroke="none" /><text fill="#e1ed5e" style="font-size:6.75px; font-family:Arial;" text-anchor="middle"><textPath startOffset="22.20632615414155" xlink:href="#id13">January</textPath></text><path d="M 100.36148047927253 79.00311137660856 l 0.5431031355445807 -31.546588825469836 a52.55126348562125,52.55126348562125 0 0,0 0.9043155671695252,0.023355803109187098 l -1.0860453379089736 31.53256623021829" fill="#f4ff19" stroke="none" /><path d="M 100.72285384407766 79.0124445844662 l 1.1033463690776097 -32.034889560684825 a53.05388466902928,53.05388466902928 0 0,0 0.9124236583609057,0.03929088206317019 l -1.654610859827847 32.01115095209746" fill="#ecff1a" stroke="none" /><path d="M 102.52436894288641 79.15227682838746 l 3.6435720454320095 -30.090760533655768 a51.31055074959987,51.31055074959987 0 0,0 0.8759084150420119,0.11371805101228764 l -4.160995188981867 30.023584159479345" fill="#fff517" stroke="none" /><path d="M 102.88285421437855 79.19881850522331 l 4.923309854786613 -35.52405159222212 a56.863591864913616,56.863591864913616 0 0,0 0.9683897302446596,0.14271547341430485 l -5.534068565459928 35.434041634646846" fill="#b1ff20" stroke="none" /><path d="M 103.59715602781102 79.31037775812273 l 4.4427432577486625 -25.553153382785602 a46.936491965152854,46.936491965152854 0 0,0 0.7948021686248975,0.14524501606858983 l -4.881940547476461 25.472892885366274" fill="#ffac0f" stroke="none" /><path d="M 103.95276090670814 79.375362276772 l 4.416801590164683 -23.045900028491257 a44.465328559602455,44.465328559602455 0 0,0 0.7504764788382797,0.15053852153880282 l -4.812844478470088 22.966457550875248" fill="#ff800b" stroke="none" /><path d="M 104.307194497241 79.44645832069477 l 4.350306251360294 -20.759267061738356 a42.21019409202093,42.21019409202093 0 0,0 0.7098493884994742,0.1551455822217832 l -4.706998364013296 20.6813079814207" fill="#ff5708" stroke="none" /><path d="M 104.66035177308747 79.52364482259891 l 6.618398705263062 -29.079496397079 a50.823150607029405,50.823150607029405 0 0,0 0.8513514541661519,0.2014873831388329 l -7.117973846391737 28.9612631017993" fill="#ffed16" stroke="none" /><path d="M 105.71112130821622 79.79150937346287 l 6.392918443944239 -22.62099252992656 a44.50699277385169,44.50699277385169 0 0,0 0.7354458034399656,0.2146967972759221 l -6.781354465107631 22.507597403731936" fill="#ff810b" stroke="none" /><path d="M 107.76421540070413 80.48803036053334 l 10.625829187925627 -26.703388019111458 a49.73985347266401,49.73985347266401 0 0,0 0.7927967276957478,0.32340169116743617 l -11.08390978520976 26.516525441760443" fill="#ffdb14" stroke="none" /><path d="M 108.09893153111575 80.62456947434976 l 10.861177112565974 -25.983672261310407 a49.162322213441826,49.162322213441826 0 0,0 0.7779732464891761,0.3330875433797084 l -11.306834116845465 25.79286518996791" fill="#ffd213" stroke="none" /><path d="M 108.76106565485865 80.91482961587045 l 12.787824788333538 -27.857092338121355 a51.652015534899775,51.652015534899775 0 0,0 0.8048411863481361,0.3778837287325317 l -13.265444185981272 27.63284362674882" fill="#fffb17" stroke="none" /><path d="M 109.41281617654863 81.2277094730956 l 14.641495784231301 -29.200019149934807 a53.66518815430614,53.66518815430614 0 0,0 0.8222005462011499,0.42116305420670025 l -15.141956818021207 28.943663570415605" fill="#e3ff1b" stroke="none" /><line stroke="#e1ed5e" stroke-width="0.3" x1="143.23703022742887" x2="145.7803849466894" y1="26.81831364943548" y2="22.513508569990506" /><path d="M 143.74570117128098 25.957352633546492 a86.0,86.0 0 0,1 28.547481713284135,27.462654790039103" fill="none" id="id14" stroke="none" /><text fill="#e1ed5e" style="font-size:6.75px; font-family:Arial;" text-anchor="middle"><textPath startOffset="19.985693538727396" xlink:href="#id14">February</textPath></text><path d="M 110.99172775467656 82.1063720568725 l 17.3755432919686 -28.28595412071683 a54.19645621463792,54.19645621463792 0 0,0 0.7907026758790613,0.4951379430962653 l -17.859865120219926 27.982671836297623" fill="#daff1b" stroke="none" /><path d="M 111.90073688211348 82.69761687909136 l 16.826466051874736 -24.463860102484343 a50.69192501184149,50.69192501184149 0 0,0 0.7146809747889015,0.5006796950918995 l -17.24507816624729 24.17059556462851" fill="#ffeb16" stroke="none" /><path d="M 112.19680574252982 82.90503203632743 l 21.845500610415268 -30.61851938686197 a58.61275882414498,58.61275882414498 0 0,0 0.8162655161689047,0.5930516116409533 l -22.369311442937963 30.237948540404343" fill="#97ff23" stroke="none" /><path d="M 112.48926042617603 83.11751280151076 l 17.14936716946227 -23.181834778129065 a49.83571150489449,49.83571150489449 0 0,0 0.6852501608202805,0.5161162144041492 l -17.545863484040932 22.88320197421907" fill="#ffdd14" stroke="none" /><path d="M 113.06298171725822 83.55741782278167 l 29.95429250632817 -37.70394284828807 a69.15440733579473,69.15440733579473 0 0,0 0.9256699464942248,0.7484940540351851 l -30.598865851386883 37.18274269698876" fill="#34ff5f" stroke="none" /><path d="M 113.89432698308785 84.25364557470407 l 19.93822806118084 -22.595869957996488 a51.1348017643778,51.1348017643778 0 0,0 0.6549857060035624,0.5880526339277484 l -20.324224754780392 22.24931831529944" fill="#fff316" stroke="none" /><path d="M 114.16331599549186 84.49514656593476 l 21.911856248065575 -23.98732893502494 a53.48878873816282,53.48878873816282 0 0,0 0.6744480744394523,0.626825981184966 l -22.321512206299875 23.606598367765336" fill="#e6ff1a" stroke="none" /><path d="M 114.42810811169701 84.74124197986012 l 11.440678580720574 -12.099337258769673 a37.65181937473532,37.65181937473532 0 0,0 0.46709189788557864,0.449342035689501 l -11.64725372221857 11.90061213631787" fill="#ff0000" stroke="none" /><path d="M 117.45458315368197 88.32363383020206 l 43.3993646527753 -29.032310239703087 a73.21474782203713,73.21474782203713 0 0,0 0.6917167766339621,1.0535321067737884 l -43.89267806476719 28.280960068951625" fill="#3bff9c" stroke="none" /><line stroke="#e1ed5e" stroke-width="0.3" x1="172.23445277983987" x2="176.4835382374775" y1="55.19839476539836" y2="52.563006222186495" /><path d="M 173.08426987136738 54.67131705675599 a86.0,86.0 0 0,1 12.851231095245387,41.99856678651699" fill="none" id="id15" stroke="none" /><text fill="#e1ed5e" style="font-size:6.75px; font-family:Arial;" text-anchor="middle"><textPath startOffset="22.20632615414155" xlink:href="#id15">March</textPath></text><path d="M 118.73160827565052 90.50648371742162 l 39.73575763688953 -20.13879729786837 a65.5477450785363,65.5477450785363 0 0,0 0.5014089962071132,1.0108099399618633 l -40.07652664605005 19.451827769407554" fill="#37ff2e" stroke="none" /><path d="M 119.34039704204932 91.81776055985345 l 26.82230789873926 -11.347571877023046 a50.12393497656137,50.12393497656137 0 0,0 0.329334094985327,0.7975086335530606 l -27.013663680610787 10.884188673016682" fill="#ffe215" stroke="none" /><path d="M 119.7369772167798 92.82701384747503 l 25.120260854958094 -9.129426521668142 a47.72777458068063,47.72777458068063 0 0,0 0.2739731516907111,0.7745589934510214 l -25.273687087458615 8.695669901790506" fill="#ffb911" stroke="none" /><path d="M 120.45610955862082 95.25157060432595 l 46.17399763591699 -10.718263268089126 a68.40167956059929,68.40167956059929 0 0,0 0.2563617199955792,1.1492193232584507 l -46.35165374291461 9.921865775280711" fill="#33ff53" stroke="none" /><line stroke="#e1ed5e" stroke-width="0.3" x1="184.98032266829074" x2="189.97916517819016" y1="98.17113171792111" y2="98.06355123074" /><path d="M 185.9800911702706 98.14961562048488 a86.0,86.0 0 0,1 -9.607161424134198,41.387399972396054" fill="none" id="id16" stroke="none" /><text fill="#e1ed5e" style="font-size:6.75px; font-family:Arial;" text-anchor="middle"><textPath startOffset="21.466115282336823" xlink:href="#id16">April</textPath></text><path d="M 120.95626037817324 101.35467743843564 l 41.29480581568854 2.6694238739922818 a62.380995773113824,62.380995773113824 0 0,0 -0.0784914562986225,1.0709535594423314 l -41.24273780072558 -3.3798505699313837" fill="#62ff29" stroke="none" /><path d="M 120.8583938346157 102.4346265915055 l 22.98368156875162 2.6826937280815177 a44.13971616274627,44.13971616274627 0 0,0 -0.09458193379028983,0.7539110723033715 l -22.93409812571448 -3.077922554672284" fill="#ff7a0b" stroke="none" /><path d="M 120.23288151984713 105.62410040840565 l 44.0461438693245 12.243433318243145 a66.7161289828382,66.7161289828382 0 0,0 -0.31708385290209334,1.1038104894456775 l -43.82886737953631 -12.999801283193404" fill="#30ff39" stroke="none" /><path d="M 119.9155931802556 106.66101706037122 l 37.3704792307091 12.499020112380453 a60.40530702459443,60.40530702459443 0 0,0 -0.33829609360864643,0.9832468009180004 l -37.149792306157224 -13.140439616387754" fill="#7dff26" stroke="none" /><line stroke="#e1ed5e" stroke-width="0.3" x1="174.80103733775053" x2="179.2010983576182" y1="140.37084112569926" y2="142.7455964860345" /><path d="M 175.68104954172406 140.8457921977663 a86.0,86.0 0 0,1 -30.038265399797805,32.042727171017184" fill="none" id="id17" stroke="none" /><text fill="#e1ed5e" style="font-size:6.75px; font-family:Arial;" text-anchor="middle"><textPath startOffset="22.206326154141568" xlink:href="#id17">May</textPath></text><path d="M 117.75023020441432 111.22182372390056 l 22.901445742420417 14.478459388093007 a48.094316808985695,48.094316808985695 0 0,0 -0.4484111109715609,0.6959440021326355 l -22.648829768071806 -14.870524990147096" fill="#ffc011" stroke="none" /><path d="M 113.75828350139079 115.86535959552629 l 27.62949607840117 31.86094331336507 a63.172369655543996,63.172369655543996 0 0,0 -0.8276618961274619,0.7053514236211947 l -27.07696870569666 -32.331819127209215" fill="#57ff2a" stroke="none" /><line stroke="#e1ed5e" stroke-width="0.3" x1="143.8653032363475" x2="146.44561519142675" y1="172.8068346515853" y2="177.08958963109032" /><path d="M 144.38136562736335 173.6633856474863 a86.0,86.0 0 0,1 -40.68145358897372,12.25698825130547" fill="none" id="id18" stroke="none" /><text fill="#e1ed5e" style="font-size:6.75px; font-family:Arial;" text-anchor="middle"><textPath startOffset="21.466115282336833" xlink:href="#id18">June</textPath></text><path d="M 107.2578585660854 119.70592522655815 l 21.77357569825621 59.11777567967444 a84.0,84.0 0 0,0 -1.3611217574810608,0.4880498358401595 l -20.752734380145416 -59.48381305655456" fill="#4dd2ff" stroke="none" /><line stroke="#e1ed5e" stroke-width="0.3" x1="102.19456741930631" x2="102.32365962044197" y1="184.97166512339345" y2="189.96999836594603" /><path d="M 102.22038585953345 185.97133177190398 a86.0,86.0 0 0,1 -42.740103519485714,-10.115201625700543" fill="none" id="id19" stroke="none" /><text fill="#e1ed5e" style="font-size:6.75px; font-family:Arial;" text-anchor="middle"><textPath startOffset="22.20632615414155" xlink:href="#id19">July</textPath></text><line stroke="#e1ed5e" stroke-width="0.3" x1="58.666819895761336" x2="56.23545636021788" y1="174.27360380694188" y2="178.64263932499728" /><path d="M 58.180547188652646 175.14741091055294 a86.0,86.0 0 0,1 -31.652253787137756,-30.449443065178592" fill="none" id="id20" stroke="none" /><text fill="#e1ed5e" style="font-size:6.75px; font-family:Arial;" text-anchor="middle"><textPath startOffset="22.20632615414155" xlink:href="#id20">August</textPath></text><line stroke="#e1ed5e" stroke-width="0.3" x1="26.63291911575756" x2="22.317208475507996" y1="142.92168965132927" y2="145.44649492493687" /><path d="M 25.769776987707644 143.4266507060508 a86.0,86.0 0 0,1 -11.730757126820373,-40.83630448921669" fill="none" id="id21" stroke="none" /><text fill="#e1ed5e" style="font-size:6.75px; font-family:Arial;" text-anchor="middle"><textPath startOffset="21.46611528233685" xlink:href="#id21">September</textPath></text><line stroke="#e1ed5e" stroke-width="0.3" x1="15.007084014347285" x2="10.007500721073583" y1="101.09737516637583" y2="101.16192664675087" /><path d="M 14.007167355692545 101.11028546245083 a86.0,86.0 0 0,1 10.666146001902534,-42.60595125391555" fill="none" id="id22" stroke="none" /><text fill="#e1ed5e" style="font-size:6.75px; font-family:Arial;" text-anchor="middle"><textPath startOffset="22.20632615414155" xlink:href="#id22">October</textPath></text><line stroke="#e1ed5e" stroke-width="0.3" x1="26.266209847984243" x2="21.928928074336255" y1="57.711370442889674" y2="55.22380399835377" /><path d="M 25.398753493254645 57.213857153982495 a86.0,86.0 0 0,1 29.58750427330803,-30.492523968695096" fill="none" id="id23" stroke="none" /><text fill="#e1ed5e" style="font-size:6.75px; font-family:Arial;" text-anchor="middle"><textPath startOffset="21.46611528233685" xlink:href="#id23">November</textPath></text><line stroke="#e1ed5e" stroke-width="0.3" x1="56.762969772571076" x2="54.21961505331055" y1="26.818313649435495" y2="22.513508569990535" /><path d="M 56.25429882871897 25.957352633546506 a86.0,86.0 0 0,1 42.265352541879196,-11.944610805530505" fill="none" id="id24" stroke="none" /><text fill="#e1ed5e" style="font-size:6.75px; font-family:Arial;" text-anchor="middle"><textPath startOffset="22.20632615414155" xlink:href="#id24">December</textPath></text></svg>